<?xml version="1.0" encoding="utf-8" standalone="no"?>
<!DOCTYPE svg PUBLIC "-//W3C//DTD SVG 1.1//EN"
  "http://www.w3.org/Graphics/SVG/1.1/DTD/svg11.dtd">
<svg xmlns:xlink="http://www.w3.org/1999/xlink" width="405.510687pt" height="309.024687pt" viewBox="0 0 405.510687 309.024687" xmlns="http://www.w3.org/2000/svg" version="1.1">
 <metadata>
  <rdf:RDF xmlns:dc="http://purl.org/dc/elements/1.1/" xmlns:cc="http://creativecommons.org/ns#" xmlns:rdf="http://www.w3.org/1999/02/22-rdf-syntax-ns#">
   <cc:Work>
    <dc:type rdf:resource="http://purl.org/dc/dcmitype/StillImage"/>
    <dc:date>2023-01-11T12:43:45.670673</dc:date>
    <dc:format>image/svg+xml</dc:format>
    <dc:creator>
     <cc:Agent>
      <dc:title>Matplotlib v3.6.2, https://matplotlib.org/</dc:title>
     </cc:Agent>
    </dc:creator>
   </cc:Work>
  </rdf:RDF>
 </metadata>
 <defs>
  <style type="text/css">*{stroke-linejoin: round; stroke-linecap: butt}</style>
 </defs>
 <g id="figure_1">
  <g id="patch_1">
   <path d="M 0 309.024687 
L 405.510687 309.024687 
L 405.510687 0 
L 0 0 
z
" style="fill: #ffffff; stroke: #ffffff; stroke-linejoin: miter"/>
  </g>
  <g id="axes_1">
   <g id="patch_2">
    <path d="M 41.190688 273.312 
L 398.310688 273.312 
L 398.310688 7.2 
L 41.190688 7.2 
z
" style="fill: #ebebeb"/>
   </g>
   <g id="matplotlib.axis_1">
    <g id="xtick_1">
     <g id="line2d_1">
      <path d="M 57.423415 273.312 
L 57.423415 7.2 
" clip-path="url(#p01a9a77788)" style="fill: none; stroke: #ffffff"/>
     </g>
     <g id="line2d_2">
      <path d="M 57.423415 273.312 
" style="fill: none; stroke: #000000; stroke-width: 1.5"/>
      <defs>
       <path id="ma62349d711" d="M 0 0 
L 0 2.75 
" style="stroke: #333333"/>
      </defs>
      <g>
       <use xlink:href="#ma62349d711" x="57.423415" y="273.312" style="stroke: #333333"/>
      </g>
     </g>
     <g id="text_1">
      <!-- 1 -->
      <g style="fill: #4d4d4d" transform="translate(54.623915 284.948625) scale(0.088 -0.088)">
       <defs>
        <path id="DejaVuSans-31" d="M 794 531 
L 1825 531 
L 1825 4091 
L 703 3866 
L 703 4441 
L 1819 4666 
L 2450 4666 
L 2450 531 
L 3481 531 
L 3481 0 
L 794 0 
L 794 531 
z
" transform="scale(0.015625)"/>
       </defs>
       <use xlink:href="#DejaVuSans-31"/>
      </g>
     </g>
    </g>
    <g id="xtick_2">
     <g id="line2d_3">
      <path d="M 147.296669 273.312 
L 147.296669 7.2 
" clip-path="url(#p01a9a77788)" style="fill: none; stroke: #ffffff"/>
     </g>
     <g id="line2d_4">
      <path d="M 147.296669 273.312 
" style="fill: none; stroke: #000000; stroke-width: 1.5"/>
      <g>
       <use xlink:href="#ma62349d711" x="147.296669" y="273.312" style="stroke: #333333"/>
      </g>
     </g>
     <g id="text_2">
      <!-- 10 -->
      <g style="fill: #4d4d4d" transform="translate(141.697669 284.948625) scale(0.088 -0.088)">
       <defs>
        <path id="DejaVuSans-30" d="M 2034 4250 
Q 1547 4250 1301 3770 
Q 1056 3291 1056 2328 
Q 1056 1369 1301 889 
Q 1547 409 2034 409 
Q 2525 409 2770 889 
Q 3016 1369 3016 2328 
Q 3016 3291 2770 3770 
Q 2525 4250 2034 4250 
z
M 2034 4750 
Q 2819 4750 3233 4129 
Q 3647 3509 3647 2328 
Q 3647 1150 3233 529 
Q 2819 -91 2034 -91 
Q 1250 -91 836 529 
Q 422 1150 422 2328 
Q 422 3509 836 4129 
Q 1250 4750 2034 4750 
z
" transform="scale(0.015625)"/>
       </defs>
       <use xlink:href="#DejaVuSans-31"/>
       <use xlink:href="#DejaVuSans-30" x="63.623047"/>
      </g>
     </g>
    </g>
    <g id="xtick_3">
     <g id="line2d_5">
      <path d="M 237.169924 273.312 
L 237.169924 7.2 
" clip-path="url(#p01a9a77788)" style="fill: none; stroke: #ffffff"/>
     </g>
     <g id="line2d_6">
      <path d="M 237.169924 273.312 
" style="fill: none; stroke: #000000; stroke-width: 1.5"/>
      <g>
       <use xlink:href="#ma62349d711" x="237.169924" y="273.312" style="stroke: #333333"/>
      </g>
     </g>
     <g id="text_3">
      <!-- 100 -->
      <g style="fill: #4d4d4d" transform="translate(228.771424 284.948625) scale(0.088 -0.088)">
       <use xlink:href="#DejaVuSans-31"/>
       <use xlink:href="#DejaVuSans-30" x="63.623047"/>
       <use xlink:href="#DejaVuSans-30" x="127.246094"/>
      </g>
     </g>
    </g>
    <g id="xtick_4">
     <g id="line2d_7">
      <path d="M 327.043179 273.312 
L 327.043179 7.2 
" clip-path="url(#p01a9a77788)" style="fill: none; stroke: #ffffff"/>
     </g>
     <g id="line2d_8">
      <path d="M 327.043179 273.312 
" style="fill: none; stroke: #000000; stroke-width: 1.5"/>
      <g>
       <use xlink:href="#ma62349d711" x="327.043179" y="273.312" style="stroke: #333333"/>
      </g>
     </g>
     <g id="text_4">
      <!-- 1000 -->
      <g style="fill: #4d4d4d" transform="translate(315.845179 284.948625) scale(0.088 -0.088)">
       <use xlink:href="#DejaVuSans-31"/>
       <use xlink:href="#DejaVuSans-30" x="63.623047"/>
       <use xlink:href="#DejaVuSans-30" x="127.246094"/>
       <use xlink:href="#DejaVuSans-30" x="190.869141"/>
      </g>
     </g>
    </g>
    <g id="xtick_5">
     <g id="line2d_9">
      <path d="M 43.501871 273.312 
L 43.501871 7.2 
" clip-path="url(#p01a9a77788)" style="fill: none; stroke: #ffffff; stroke-width: 0.5"/>
     </g>
    </g>
    <g id="xtick_6">
     <g id="line2d_10">
      <path d="M 48.713796 273.312 
L 48.713796 7.2 
" clip-path="url(#p01a9a77788)" style="fill: none; stroke: #ffffff; stroke-width: 0.5"/>
     </g>
    </g>
    <g id="xtick_7">
     <g id="line2d_11">
      <path d="M 53.31104 273.312 
L 53.31104 7.2 
" clip-path="url(#p01a9a77788)" style="fill: none; stroke: #ffffff; stroke-width: 0.5"/>
     </g>
    </g>
    <g id="xtick_8">
     <g id="line2d_12">
      <path d="M 84.47796 273.312 
L 84.47796 7.2 
" clip-path="url(#p01a9a77788)" style="fill: none; stroke: #ffffff; stroke-width: 0.5"/>
     </g>
    </g>
    <g id="xtick_9">
     <g id="line2d_13">
      <path d="M 100.303855 273.312 
L 100.303855 7.2 
" clip-path="url(#p01a9a77788)" style="fill: none; stroke: #ffffff; stroke-width: 0.5"/>
     </g>
    </g>
    <g id="xtick_10">
     <g id="line2d_14">
      <path d="M 111.532506 273.312 
L 111.532506 7.2 
" clip-path="url(#p01a9a77788)" style="fill: none; stroke: #ffffff; stroke-width: 0.5"/>
     </g>
    </g>
    <g id="xtick_11">
     <g id="line2d_15">
      <path d="M 120.242124 273.312 
L 120.242124 7.2 
" clip-path="url(#p01a9a77788)" style="fill: none; stroke: #ffffff; stroke-width: 0.5"/>
     </g>
    </g>
    <g id="xtick_12">
     <g id="line2d_16">
      <path d="M 127.3584 273.312 
L 127.3584 7.2 
" clip-path="url(#p01a9a77788)" style="fill: none; stroke: #ffffff; stroke-width: 0.5"/>
     </g>
    </g>
    <g id="xtick_13">
     <g id="line2d_17">
      <path d="M 133.375126 273.312 
L 133.375126 7.2 
" clip-path="url(#p01a9a77788)" style="fill: none; stroke: #ffffff; stroke-width: 0.5"/>
     </g>
    </g>
    <g id="xtick_14">
     <g id="line2d_18">
      <path d="M 138.587051 273.312 
L 138.587051 7.2 
" clip-path="url(#p01a9a77788)" style="fill: none; stroke: #ffffff; stroke-width: 0.5"/>
     </g>
    </g>
    <g id="xtick_15">
     <g id="line2d_19">
      <path d="M 143.184295 273.312 
L 143.184295 7.2 
" clip-path="url(#p01a9a77788)" style="fill: none; stroke: #ffffff; stroke-width: 0.5"/>
     </g>
    </g>
    <g id="xtick_16">
     <g id="line2d_20">
      <path d="M 174.351215 273.312 
L 174.351215 7.2 
" clip-path="url(#p01a9a77788)" style="fill: none; stroke: #ffffff; stroke-width: 0.5"/>
     </g>
    </g>
    <g id="xtick_17">
     <g id="line2d_21">
      <path d="M 190.177109 273.312 
L 190.177109 7.2 
" clip-path="url(#p01a9a77788)" style="fill: none; stroke: #ffffff; stroke-width: 0.5"/>
     </g>
    </g>
    <g id="xtick_18">
     <g id="line2d_22">
      <path d="M 201.40576 273.312 
L 201.40576 7.2 
" clip-path="url(#p01a9a77788)" style="fill: none; stroke: #ffffff; stroke-width: 0.5"/>
     </g>
    </g>
    <g id="xtick_19">
     <g id="line2d_23">
      <path d="M 210.115379 273.312 
L 210.115379 7.2 
" clip-path="url(#p01a9a77788)" style="fill: none; stroke: #ffffff; stroke-width: 0.5"/>
     </g>
    </g>
    <g id="xtick_20">
     <g id="line2d_24">
      <path d="M 217.231655 273.312 
L 217.231655 7.2 
" clip-path="url(#p01a9a77788)" style="fill: none; stroke: #ffffff; stroke-width: 0.5"/>
     </g>
    </g>
    <g id="xtick_21">
     <g id="line2d_25">
      <path d="M 223.248381 273.312 
L 223.248381 7.2 
" clip-path="url(#p01a9a77788)" style="fill: none; stroke: #ffffff; stroke-width: 0.5"/>
     </g>
    </g>
    <g id="xtick_22">
     <g id="line2d_26">
      <path d="M 228.460306 273.312 
L 228.460306 7.2 
" clip-path="url(#p01a9a77788)" style="fill: none; stroke: #ffffff; stroke-width: 0.5"/>
     </g>
    </g>
    <g id="xtick_23">
     <g id="line2d_27">
      <path d="M 233.057549 273.312 
L 233.057549 7.2 
" clip-path="url(#p01a9a77788)" style="fill: none; stroke: #ffffff; stroke-width: 0.5"/>
     </g>
    </g>
    <g id="xtick_24">
     <g id="line2d_28">
      <path d="M 264.22447 273.312 
L 264.22447 7.2 
" clip-path="url(#p01a9a77788)" style="fill: none; stroke: #ffffff; stroke-width: 0.5"/>
     </g>
    </g>
    <g id="xtick_25">
     <g id="line2d_29">
      <path d="M 280.050364 273.312 
L 280.050364 7.2 
" clip-path="url(#p01a9a77788)" style="fill: none; stroke: #ffffff; stroke-width: 0.5"/>
     </g>
    </g>
    <g id="xtick_26">
     <g id="line2d_30">
      <path d="M 291.279015 273.312 
L 291.279015 7.2 
" clip-path="url(#p01a9a77788)" style="fill: none; stroke: #ffffff; stroke-width: 0.5"/>
     </g>
    </g>
    <g id="xtick_27">
     <g id="line2d_31">
      <path d="M 299.988633 273.312 
L 299.988633 7.2 
" clip-path="url(#p01a9a77788)" style="fill: none; stroke: #ffffff; stroke-width: 0.5"/>
     </g>
    </g>
    <g id="xtick_28">
     <g id="line2d_32">
      <path d="M 307.10491 273.312 
L 307.10491 7.2 
" clip-path="url(#p01a9a77788)" style="fill: none; stroke: #ffffff; stroke-width: 0.5"/>
     </g>
    </g>
    <g id="xtick_29">
     <g id="line2d_33">
      <path d="M 313.121635 273.312 
L 313.121635 7.2 
" clip-path="url(#p01a9a77788)" style="fill: none; stroke: #ffffff; stroke-width: 0.5"/>
     </g>
    </g>
    <g id="xtick_30">
     <g id="line2d_34">
      <path d="M 318.33356 273.312 
L 318.33356 7.2 
" clip-path="url(#p01a9a77788)" style="fill: none; stroke: #ffffff; stroke-width: 0.5"/>
     </g>
    </g>
    <g id="xtick_31">
     <g id="line2d_35">
      <path d="M 322.930804 273.312 
L 322.930804 7.2 
" clip-path="url(#p01a9a77788)" style="fill: none; stroke: #ffffff; stroke-width: 0.5"/>
     </g>
    </g>
    <g id="xtick_32">
     <g id="line2d_36">
      <path d="M 354.097724 273.312 
L 354.097724 7.2 
" clip-path="url(#p01a9a77788)" style="fill: none; stroke: #ffffff; stroke-width: 0.5"/>
     </g>
    </g>
    <g id="xtick_33">
     <g id="line2d_37">
      <path d="M 369.923619 273.312 
L 369.923619 7.2 
" clip-path="url(#p01a9a77788)" style="fill: none; stroke: #ffffff; stroke-width: 0.5"/>
     </g>
    </g>
    <g id="xtick_34">
     <g id="line2d_38">
      <path d="M 381.15227 273.312 
L 381.15227 7.2 
" clip-path="url(#p01a9a77788)" style="fill: none; stroke: #ffffff; stroke-width: 0.5"/>
     </g>
    </g>
    <g id="xtick_35">
     <g id="line2d_39">
      <path d="M 389.861888 273.312 
L 389.861888 7.2 
" clip-path="url(#p01a9a77788)" style="fill: none; stroke: #ffffff; stroke-width: 0.5"/>
     </g>
    </g>
    <g id="xtick_36">
     <g id="line2d_40">
      <path d="M 396.978164 273.312 
L 396.978164 7.2 
" clip-path="url(#p01a9a77788)" style="fill: none; stroke: #ffffff; stroke-width: 0.5"/>
     </g>
    </g>
    <g id="text_5">
     <!-- njobs -->
     <g transform="translate(199.254984 299.537031) scale(0.11 -0.11)">
      <defs>
       <path id="DejaVuSans-6e" d="M 3513 2113 
L 3513 0 
L 2938 0 
L 2938 2094 
Q 2938 2591 2744 2837 
Q 2550 3084 2163 3084 
Q 1697 3084 1428 2787 
Q 1159 2491 1159 1978 
L 1159 0 
L 581 0 
L 581 3500 
L 1159 3500 
L 1159 2956 
Q 1366 3272 1645 3428 
Q 1925 3584 2291 3584 
Q 2894 3584 3203 3211 
Q 3513 2838 3513 2113 
z
" transform="scale(0.015625)"/>
       <path id="DejaVuSans-6a" d="M 603 3500 
L 1178 3500 
L 1178 -63 
Q 1178 -731 923 -1031 
Q 669 -1331 103 -1331 
L -116 -1331 
L -116 -844 
L 38 -844 
Q 366 -844 484 -692 
Q 603 -541 603 -63 
L 603 3500 
z
M 603 4863 
L 1178 4863 
L 1178 4134 
L 603 4134 
L 603 4863 
z
" transform="scale(0.015625)"/>
       <path id="DejaVuSans-6f" d="M 1959 3097 
Q 1497 3097 1228 2736 
Q 959 2375 959 1747 
Q 959 1119 1226 758 
Q 1494 397 1959 397 
Q 2419 397 2687 759 
Q 2956 1122 2956 1747 
Q 2956 2369 2687 2733 
Q 2419 3097 1959 3097 
z
M 1959 3584 
Q 2709 3584 3137 3096 
Q 3566 2609 3566 1747 
Q 3566 888 3137 398 
Q 2709 -91 1959 -91 
Q 1206 -91 779 398 
Q 353 888 353 1747 
Q 353 2609 779 3096 
Q 1206 3584 1959 3584 
z
" transform="scale(0.015625)"/>
       <path id="DejaVuSans-62" d="M 3116 1747 
Q 3116 2381 2855 2742 
Q 2594 3103 2138 3103 
Q 1681 3103 1420 2742 
Q 1159 2381 1159 1747 
Q 1159 1113 1420 752 
Q 1681 391 2138 391 
Q 2594 391 2855 752 
Q 3116 1113 3116 1747 
z
M 1159 2969 
Q 1341 3281 1617 3432 
Q 1894 3584 2278 3584 
Q 2916 3584 3314 3078 
Q 3713 2572 3713 1747 
Q 3713 922 3314 415 
Q 2916 -91 2278 -91 
Q 1894 -91 1617 61 
Q 1341 213 1159 525 
L 1159 0 
L 581 0 
L 581 4863 
L 1159 4863 
L 1159 2969 
z
" transform="scale(0.015625)"/>
       <path id="DejaVuSans-73" d="M 2834 3397 
L 2834 2853 
Q 2591 2978 2328 3040 
Q 2066 3103 1784 3103 
Q 1356 3103 1142 2972 
Q 928 2841 928 2578 
Q 928 2378 1081 2264 
Q 1234 2150 1697 2047 
L 1894 2003 
Q 2506 1872 2764 1633 
Q 3022 1394 3022 966 
Q 3022 478 2636 193 
Q 2250 -91 1575 -91 
Q 1294 -91 989 -36 
Q 684 19 347 128 
L 347 722 
Q 666 556 975 473 
Q 1284 391 1588 391 
Q 1994 391 2212 530 
Q 2431 669 2431 922 
Q 2431 1156 2273 1281 
Q 2116 1406 1581 1522 
L 1381 1569 
Q 847 1681 609 1914 
Q 372 2147 372 2553 
Q 372 3047 722 3315 
Q 1072 3584 1716 3584 
Q 2034 3584 2315 3537 
Q 2597 3491 2834 3397 
z
" transform="scale(0.015625)"/>
      </defs>
      <use xlink:href="#DejaVuSans-6e"/>
      <use xlink:href="#DejaVuSans-6a" x="63.378906"/>
      <use xlink:href="#DejaVuSans-6f" x="91.162109"/>
      <use xlink:href="#DejaVuSans-62" x="152.34375"/>
      <use xlink:href="#DejaVuSans-73" x="215.820312"/>
     </g>
    </g>
   </g>
   <g id="matplotlib.axis_2">
    <g id="ytick_1">
     <g id="line2d_41">
      <path d="M 41.190688 213.967442 
L 398.310688 213.967442 
" clip-path="url(#p01a9a77788)" style="fill: none; stroke: #ffffff"/>
     </g>
     <g id="line2d_42">
      <path d="M 41.190688 213.967442 
" style="fill: none; stroke: #000000; stroke-width: 1.5"/>
      <defs>
       <path id="mc487f474b4" d="M 0 0 
L -2.75 0 
" style="stroke: #333333"/>
      </defs>
      <g>
       <use xlink:href="#mc487f474b4" x="41.190688" y="213.967442" style="stroke: #333333"/>
      </g>
     </g>
     <g id="text_6">
      <!-- 0.1 -->
      <g style="fill: #4d4d4d" transform="translate(22.245938 216.395692) scale(0.088 -0.088)">
       <defs>
        <path id="DejaVuSans-2e" d="M 684 794 
L 1344 794 
L 1344 0 
L 684 0 
L 684 794 
z
" transform="scale(0.015625)"/>
       </defs>
       <use xlink:href="#DejaVuSans-30"/>
       <use xlink:href="#DejaVuSans-2e" x="63.623047"/>
       <use xlink:href="#DejaVuSans-31" x="95.410156"/>
      </g>
     </g>
    </g>
    <g id="ytick_2">
     <g id="line2d_43">
      <path d="M 41.190688 92.61578 
L 398.310688 92.61578 
" clip-path="url(#p01a9a77788)" style="fill: none; stroke: #ffffff"/>
     </g>
     <g id="line2d_44">
      <path d="M 41.190688 92.61578 
" style="fill: none; stroke: #000000; stroke-width: 1.5"/>
      <g>
       <use xlink:href="#mc487f474b4" x="41.190688" y="92.61578" style="stroke: #333333"/>
      </g>
     </g>
     <g id="text_7">
      <!-- 0.2 -->
      <g style="fill: #4d4d4d" transform="translate(22.245938 95.04403) scale(0.088 -0.088)">
       <defs>
        <path id="DejaVuSans-32" d="M 1228 531 
L 3431 531 
L 3431 0 
L 469 0 
L 469 531 
Q 828 903 1448 1529 
Q 2069 2156 2228 2338 
Q 2531 2678 2651 2914 
Q 2772 3150 2772 3378 
Q 2772 3750 2511 3984 
Q 2250 4219 1831 4219 
Q 1534 4219 1204 4116 
Q 875 4013 500 3803 
L 500 4441 
Q 881 4594 1212 4672 
Q 1544 4750 1819 4750 
Q 2544 4750 2975 4387 
Q 3406 4025 3406 3419 
Q 3406 3131 3298 2873 
Q 3191 2616 2906 2266 
Q 2828 2175 2409 1742 
Q 1991 1309 1228 531 
z
" transform="scale(0.015625)"/>
       </defs>
       <use xlink:href="#DejaVuSans-30"/>
       <use xlink:href="#DejaVuSans-2e" x="63.623047"/>
       <use xlink:href="#DejaVuSans-32" x="95.410156"/>
      </g>
     </g>
    </g>
    <g id="ytick_3">
     <g id="line2d_45">
      <path d="M 41.190688 21.629609 
L 398.310688 21.629609 
" clip-path="url(#p01a9a77788)" style="fill: none; stroke: #ffffff"/>
     </g>
     <g id="line2d_46">
      <path d="M 41.190688 21.629609 
" style="fill: none; stroke: #000000; stroke-width: 1.5"/>
      <g>
       <use xlink:href="#mc487f474b4" x="41.190688" y="21.629609" style="stroke: #333333"/>
      </g>
     </g>
     <g id="text_8">
      <!-- 0.3 -->
      <g style="fill: #4d4d4d" transform="translate(22.245938 24.057859) scale(0.088 -0.088)">
       <defs>
        <path id="DejaVuSans-33" d="M 2597 2516 
Q 3050 2419 3304 2112 
Q 3559 1806 3559 1356 
Q 3559 666 3084 287 
Q 2609 -91 1734 -91 
Q 1441 -91 1130 -33 
Q 819 25 488 141 
L 488 750 
Q 750 597 1062 519 
Q 1375 441 1716 441 
Q 2309 441 2620 675 
Q 2931 909 2931 1356 
Q 2931 1769 2642 2001 
Q 2353 2234 1838 2234 
L 1294 2234 
L 1294 2753 
L 1863 2753 
Q 2328 2753 2575 2939 
Q 2822 3125 2822 3475 
Q 2822 3834 2567 4026 
Q 2313 4219 1838 4219 
Q 1578 4219 1281 4162 
Q 984 4106 628 3988 
L 628 4550 
Q 988 4650 1302 4700 
Q 1616 4750 1894 4750 
Q 2613 4750 3031 4423 
Q 3450 4097 3450 3541 
Q 3450 3153 3228 2886 
Q 3006 2619 2597 2516 
z
" transform="scale(0.015625)"/>
       </defs>
       <use xlink:href="#DejaVuSans-30"/>
       <use xlink:href="#DejaVuSans-2e" x="63.623047"/>
       <use xlink:href="#DejaVuSans-33" x="95.410156"/>
      </g>
     </g>
    </g>
    <g id="ytick_4">
     <g id="line2d_47">
      <path d="M 41.190688 270.940262 
L 398.310688 270.940262 
" clip-path="url(#p01a9a77788)" style="fill: none; stroke: #ffffff; stroke-width: 0.5"/>
     </g>
    </g>
    <g id="ytick_5">
     <g id="line2d_48">
      <path d="M 41.190688 257.965924 
L 398.310688 257.965924 
" clip-path="url(#p01a9a77788)" style="fill: none; stroke: #ffffff; stroke-width: 0.5"/>
     </g>
    </g>
    <g id="ytick_6">
     <g id="line2d_49">
      <path d="M 41.190688 245.887105 
L 398.310688 245.887105 
" clip-path="url(#p01a9a77788)" style="fill: none; stroke: #ffffff; stroke-width: 0.5"/>
     </g>
    </g>
    <g id="ytick_7">
     <g id="line2d_50">
      <path d="M 41.190688 234.588124 
L 398.310688 234.588124 
" clip-path="url(#p01a9a77788)" style="fill: none; stroke: #ffffff; stroke-width: 0.5"/>
     </g>
    </g>
    <g id="ytick_8">
     <g id="line2d_51">
      <path d="M 41.190688 223.974362 
L 398.310688 223.974362 
" clip-path="url(#p01a9a77788)" style="fill: none; stroke: #ffffff; stroke-width: 0.5"/>
     </g>
    </g>
    <g id="ytick_9">
     <g id="line2d_52">
      <path d="M 41.190688 195.521614 
L 398.310688 195.521614 
" clip-path="url(#p01a9a77788)" style="fill: none; stroke: #ffffff; stroke-width: 0.5"/>
     </g>
    </g>
    <g id="ytick_10">
     <g id="line2d_53">
      <path d="M 41.190688 178.835333 
L 398.310688 178.835333 
" clip-path="url(#p01a9a77788)" style="fill: none; stroke: #ffffff; stroke-width: 0.5"/>
     </g>
    </g>
    <g id="ytick_11">
     <g id="line2d_54">
      <path d="M 41.190688 163.601952 
L 398.310688 163.601952 
" clip-path="url(#p01a9a77788)" style="fill: none; stroke: #ffffff; stroke-width: 0.5"/>
     </g>
    </g>
    <g id="ytick_12">
     <g id="line2d_55">
      <path d="M 41.190688 149.5886 
L 398.310688 149.5886 
" clip-path="url(#p01a9a77788)" style="fill: none; stroke: #ffffff; stroke-width: 0.5"/>
     </g>
    </g>
    <g id="ytick_13">
     <g id="line2d_56">
      <path d="M 41.190688 136.614262 
L 398.310688 136.614262 
" clip-path="url(#p01a9a77788)" style="fill: none; stroke: #ffffff; stroke-width: 0.5"/>
     </g>
    </g>
    <g id="ytick_14">
     <g id="line2d_57">
      <path d="M 41.190688 124.535443 
L 398.310688 124.535443 
" clip-path="url(#p01a9a77788)" style="fill: none; stroke: #ffffff; stroke-width: 0.5"/>
     </g>
    </g>
    <g id="ytick_15">
     <g id="line2d_58">
      <path d="M 41.190688 113.236462 
L 398.310688 113.236462 
" clip-path="url(#p01a9a77788)" style="fill: none; stroke: #ffffff; stroke-width: 0.5"/>
     </g>
    </g>
    <g id="ytick_16">
     <g id="line2d_59">
      <path d="M 41.190688 102.6227 
L 398.310688 102.6227 
" clip-path="url(#p01a9a77788)" style="fill: none; stroke: #ffffff; stroke-width: 0.5"/>
     </g>
    </g>
    <g id="ytick_17">
     <g id="line2d_60">
      <path d="M 41.190688 83.150046 
L 398.310688 83.150046 
" clip-path="url(#p01a9a77788)" style="fill: none; stroke: #ffffff; stroke-width: 0.5"/>
     </g>
    </g>
    <g id="ytick_18">
     <g id="line2d_61">
      <path d="M 41.190688 74.169952 
L 398.310688 74.169952 
" clip-path="url(#p01a9a77788)" style="fill: none; stroke: #ffffff; stroke-width: 0.5"/>
     </g>
    </g>
    <g id="ytick_19">
     <g id="line2d_62">
      <path d="M 41.190688 65.62809 
L 398.310688 65.62809 
" clip-path="url(#p01a9a77788)" style="fill: none; stroke: #ffffff; stroke-width: 0.5"/>
     </g>
    </g>
    <g id="ytick_20">
     <g id="line2d_63">
      <path d="M 41.190688 57.483671 
L 398.310688 57.483671 
" clip-path="url(#p01a9a77788)" style="fill: none; stroke: #ffffff; stroke-width: 0.5"/>
     </g>
    </g>
    <g id="ytick_21">
     <g id="line2d_64">
      <path d="M 41.190688 49.701348 
L 398.310688 49.701348 
" clip-path="url(#p01a9a77788)" style="fill: none; stroke: #ffffff; stroke-width: 0.5"/>
     </g>
    </g>
    <g id="ytick_22">
     <g id="line2d_65">
      <path d="M 41.190688 42.25029 
L 398.310688 42.25029 
" clip-path="url(#p01a9a77788)" style="fill: none; stroke: #ffffff; stroke-width: 0.5"/>
     </g>
    </g>
    <g id="ytick_23">
     <g id="line2d_66">
      <path d="M 41.190688 35.103443 
L 398.310688 35.103443 
" clip-path="url(#p01a9a77788)" style="fill: none; stroke: #ffffff; stroke-width: 0.5"/>
     </g>
    </g>
    <g id="ytick_24">
     <g id="line2d_67">
      <path d="M 41.190688 28.236938 
L 398.310688 28.236938 
" clip-path="url(#p01a9a77788)" style="fill: none; stroke: #ffffff; stroke-width: 0.5"/>
     </g>
    </g>
    <g id="ytick_25">
     <g id="line2d_68">
      <path d="M 41.190688 9.119042 
L 398.310688 9.119042 
" clip-path="url(#p01a9a77788)" style="fill: none; stroke: #ffffff; stroke-width: 0.5"/>
     </g>
    </g>
    <g id="text_9">
     <!-- time -->
     <g transform="translate(15.558281 150.953703) rotate(-90) scale(0.11 -0.11)">
      <defs>
       <path id="DejaVuSans-74" d="M 1172 4494 
L 1172 3500 
L 2356 3500 
L 2356 3053 
L 1172 3053 
L 1172 1153 
Q 1172 725 1289 603 
Q 1406 481 1766 481 
L 2356 481 
L 2356 0 
L 1766 0 
Q 1100 0 847 248 
Q 594 497 594 1153 
L 594 3053 
L 172 3053 
L 172 3500 
L 594 3500 
L 594 4494 
L 1172 4494 
z
" transform="scale(0.015625)"/>
       <path id="DejaVuSans-69" d="M 603 3500 
L 1178 3500 
L 1178 0 
L 603 0 
L 603 3500 
z
M 603 4863 
L 1178 4863 
L 1178 4134 
L 603 4134 
L 603 4863 
z
" transform="scale(0.015625)"/>
       <path id="DejaVuSans-6d" d="M 3328 2828 
Q 3544 3216 3844 3400 
Q 4144 3584 4550 3584 
Q 5097 3584 5394 3201 
Q 5691 2819 5691 2113 
L 5691 0 
L 5113 0 
L 5113 2094 
Q 5113 2597 4934 2840 
Q 4756 3084 4391 3084 
Q 3944 3084 3684 2787 
Q 3425 2491 3425 1978 
L 3425 0 
L 2847 0 
L 2847 2094 
Q 2847 2600 2669 2842 
Q 2491 3084 2119 3084 
Q 1678 3084 1418 2786 
Q 1159 2488 1159 1978 
L 1159 0 
L 581 0 
L 581 3500 
L 1159 3500 
L 1159 2956 
Q 1356 3278 1631 3431 
Q 1906 3584 2284 3584 
Q 2666 3584 2933 3390 
Q 3200 3197 3328 2828 
z
" transform="scale(0.015625)"/>
       <path id="DejaVuSans-65" d="M 3597 1894 
L 3597 1613 
L 953 1613 
Q 991 1019 1311 708 
Q 1631 397 2203 397 
Q 2534 397 2845 478 
Q 3156 559 3463 722 
L 3463 178 
Q 3153 47 2828 -22 
Q 2503 -91 2169 -91 
Q 1331 -91 842 396 
Q 353 884 353 1716 
Q 353 2575 817 3079 
Q 1281 3584 2069 3584 
Q 2775 3584 3186 3129 
Q 3597 2675 3597 1894 
z
M 3022 2063 
Q 3016 2534 2758 2815 
Q 2500 3097 2075 3097 
Q 1594 3097 1305 2825 
Q 1016 2553 972 2059 
L 3022 2063 
z
" transform="scale(0.015625)"/>
      </defs>
      <use xlink:href="#DejaVuSans-74"/>
      <use xlink:href="#DejaVuSans-69" x="39.208984"/>
      <use xlink:href="#DejaVuSans-6d" x="66.992188"/>
      <use xlink:href="#DejaVuSans-65" x="164.404297"/>
     </g>
    </g>
   </g>
   <g id="line2d_69">
    <path d="M 57.423415 33.910957 
L 84.47796 148.634365 
L 111.532506 192.235212 
L 138.587051 261.216 
L 165.641597 251.638965 
L 192.696142 259.62501 
L 219.750688 247.326261 
L 246.805233 245.523522 
L 273.859778 226.219494 
L 300.914324 213.131785 
L 327.968869 114.71937 
L 355.023415 77.925869 
L 382.07796 19.296 
" clip-path="url(#p01a9a77788)" style="fill: none; stroke: #000000; stroke-width: 0.886227"/>
   </g>
   <g id="PathCollection_1">
    <path d="M 57.423415 35.683411 
C 57.893475 35.683411 58.344346 35.496654 58.676729 35.164271 
C 59.009112 34.831888 59.195869 34.381017 59.195869 33.910957 
C 59.195869 33.440897 59.009112 32.990026 58.676729 32.657643 
C 58.344346 32.32526 57.893475 32.138503 57.423415 32.138503 
C 56.953355 32.138503 56.502483 32.32526 56.170101 32.657643 
C 55.837718 32.990026 55.650961 33.440897 55.650961 33.910957 
C 55.650961 34.381017 55.837718 34.831888 56.170101 35.164271 
C 56.502483 35.496654 56.953355 35.683411 57.423415 35.683411 
z
" clip-path="url(#p01a9a77788)" style="stroke: #000000; stroke-width: 0.886227"/>
    <path d="M 84.47796 150.406819 
C 84.94802 150.406819 85.398892 150.220062 85.731274 149.887679 
C 86.063657 149.555296 86.250414 149.104425 86.250414 148.634365 
C 86.250414 148.164304 86.063657 147.713433 85.731274 147.381051 
C 85.398892 147.048668 84.94802 146.861911 84.47796 146.861911 
C 84.0079 146.861911 83.557029 147.048668 83.224646 147.381051 
C 82.892263 147.713433 82.705506 148.164304 82.705506 148.634365 
C 82.705506 149.104425 82.892263 149.555296 83.224646 149.887679 
C 83.557029 150.220062 84.0079 150.406819 84.47796 150.406819 
z
" clip-path="url(#p01a9a77788)" style="stroke: #000000; stroke-width: 0.886227"/>
    <path d="M 111.532506 194.007665 
C 112.002566 194.007665 112.453437 193.820908 112.78582 193.488526 
C 113.118203 193.156143 113.30496 192.705272 113.30496 192.235212 
C 113.30496 191.765151 113.118203 191.31428 112.78582 190.981897 
C 112.453437 190.649515 112.002566 190.462758 111.532506 190.462758 
C 111.062445 190.462758 110.611574 190.649515 110.279192 190.981897 
C 109.946809 191.31428 109.760052 191.765151 109.760052 192.235212 
C 109.760052 192.705272 109.946809 193.156143 110.279192 193.488526 
C 110.611574 193.820908 111.062445 194.007665 111.532506 194.007665 
z
" clip-path="url(#p01a9a77788)" style="stroke: #000000; stroke-width: 0.886227"/>
    <path d="M 138.587051 262.988454 
C 139.057111 262.988454 139.507982 262.801697 139.840365 262.469314 
C 140.172748 262.136931 140.359505 261.68606 140.359505 261.216 
C 140.359505 260.74594 140.172748 260.295069 139.840365 259.962686 
C 139.507982 259.630303 139.057111 259.443546 138.587051 259.443546 
C 138.116991 259.443546 137.66612 259.630303 137.333737 259.962686 
C 137.001354 260.295069 136.814597 260.74594 136.814597 261.216 
C 136.814597 261.68606 137.001354 262.136931 137.333737 262.469314 
C 137.66612 262.801697 138.116991 262.988454 138.587051 262.988454 
z
" clip-path="url(#p01a9a77788)" style="stroke: #000000; stroke-width: 0.886227"/>
    <path d="M 165.641597 253.411419 
C 166.111657 253.411419 166.562528 253.224662 166.894911 252.892279 
C 167.227294 252.559896 167.41405 252.109025 167.41405 251.638965 
C 167.41405 251.168905 167.227294 250.718034 166.894911 250.385651 
C 166.562528 250.053268 166.111657 249.866511 165.641597 249.866511 
C 165.171536 249.866511 164.720665 250.053268 164.388282 250.385651 
C 164.0559 250.718034 163.869143 251.168905 163.869143 251.638965 
C 163.869143 252.109025 164.0559 252.559896 164.388282 252.892279 
C 164.720665 253.224662 165.171536 253.411419 165.641597 253.411419 
z
" clip-path="url(#p01a9a77788)" style="stroke: #000000; stroke-width: 0.886227"/>
    <path d="M 192.696142 261.397464 
C 193.166202 261.397464 193.617073 261.210707 193.949456 260.878324 
C 194.281839 260.545941 194.468596 260.09507 194.468596 259.62501 
C 194.468596 259.154949 194.281839 258.704078 193.949456 258.371696 
C 193.617073 258.039313 193.166202 257.852556 192.696142 257.852556 
C 192.226082 257.852556 191.775211 258.039313 191.442828 258.371696 
C 191.110445 258.704078 190.923688 259.154949 190.923688 259.62501 
C 190.923688 260.09507 191.110445 260.545941 191.442828 260.878324 
C 191.775211 261.210707 192.226082 261.397464 192.696142 261.397464 
z
" clip-path="url(#p01a9a77788)" style="stroke: #000000; stroke-width: 0.886227"/>
    <path d="M 219.750688 249.098715 
C 220.220748 249.098715 220.671619 248.911958 221.004002 248.579575 
C 221.336384 248.247193 221.523141 247.796321 221.523141 247.326261 
C 221.523141 246.856201 221.336384 246.40533 221.004002 246.072947 
C 220.671619 245.740564 220.220748 245.553807 219.750688 245.553807 
C 219.280627 245.553807 218.829756 245.740564 218.497373 246.072947 
C 218.164991 246.40533 217.978234 246.856201 217.978234 247.326261 
C 217.978234 247.796321 218.164991 248.247193 218.497373 248.579575 
C 218.829756 248.911958 219.280627 249.098715 219.750688 249.098715 
z
" clip-path="url(#p01a9a77788)" style="stroke: #000000; stroke-width: 0.886227"/>
    <path d="M 246.805233 247.295976 
C 247.275293 247.295976 247.726164 247.109219 248.058547 246.776836 
C 248.39093 246.444453 248.577687 245.993582 248.577687 245.523522 
C 248.577687 245.053462 248.39093 244.602591 248.058547 244.270208 
C 247.726164 243.937825 247.275293 243.751068 246.805233 243.751068 
C 246.335173 243.751068 245.884302 243.937825 245.551919 244.270208 
C 245.219536 244.602591 245.032779 245.053462 245.032779 245.523522 
C 245.032779 245.993582 245.219536 246.444453 245.551919 246.776836 
C 245.884302 247.109219 246.335173 247.295976 246.805233 247.295976 
z
" clip-path="url(#p01a9a77788)" style="stroke: #000000; stroke-width: 0.886227"/>
    <path d="M 273.859778 227.991948 
C 274.329839 227.991948 274.78071 227.805191 275.113093 227.472808 
C 275.445475 227.140426 275.632232 226.689555 275.632232 226.219494 
C 275.632232 225.749434 275.445475 225.298563 275.113093 224.96618 
C 274.78071 224.633797 274.329839 224.44704 273.859778 224.44704 
C 273.389718 224.44704 272.938847 224.633797 272.606464 224.96618 
C 272.274081 225.298563 272.087325 225.749434 272.087325 226.219494 
C 272.087325 226.689555 272.274081 227.140426 272.606464 227.472808 
C 272.938847 227.805191 273.389718 227.991948 273.859778 227.991948 
z
" clip-path="url(#p01a9a77788)" style="stroke: #000000; stroke-width: 0.886227"/>
    <path d="M 300.914324 214.904239 
C 301.384384 214.904239 301.835255 214.717482 302.167638 214.385099 
C 302.500021 214.052717 302.686778 213.601845 302.686778 213.131785 
C 302.686778 212.661725 302.500021 212.210854 302.167638 211.878471 
C 301.835255 211.546088 301.384384 211.359331 300.914324 211.359331 
C 300.444264 211.359331 299.993393 211.546088 299.66101 211.878471 
C 299.328627 212.210854 299.14187 212.661725 299.14187 213.131785 
C 299.14187 213.601845 299.328627 214.052717 299.66101 214.385099 
C 299.993393 214.717482 300.444264 214.904239 300.914324 214.904239 
z
" clip-path="url(#p01a9a77788)" style="stroke: #000000; stroke-width: 0.886227"/>
    <path d="M 327.968869 116.491824 
C 328.43893 116.491824 328.889801 116.305067 329.222183 115.972684 
C 329.554566 115.640302 329.741323 115.189431 329.741323 114.71937 
C 329.741323 114.24931 329.554566 113.798439 329.222183 113.466056 
C 328.889801 113.133673 328.43893 112.946916 327.968869 112.946916 
C 327.498809 112.946916 327.047938 113.133673 326.715555 113.466056 
C 326.383172 113.798439 326.196415 114.24931 326.196415 114.71937 
C 326.196415 115.189431 326.383172 115.640302 326.715555 115.972684 
C 327.047938 116.305067 327.498809 116.491824 327.968869 116.491824 
z
" clip-path="url(#p01a9a77788)" style="stroke: #000000; stroke-width: 0.886227"/>
    <path d="M 355.023415 79.698323 
C 355.493475 79.698323 355.944346 79.511566 356.276729 79.179184 
C 356.609112 78.846801 356.795869 78.39593 356.795869 77.925869 
C 356.795869 77.455809 356.609112 77.004938 356.276729 76.672555 
C 355.944346 76.340173 355.493475 76.153416 355.023415 76.153416 
C 354.553355 76.153416 354.102483 76.340173 353.770101 76.672555 
C 353.437718 77.004938 353.250961 77.455809 353.250961 77.925869 
C 353.250961 78.39593 353.437718 78.846801 353.770101 79.179184 
C 354.102483 79.511566 354.553355 79.698323 355.023415 79.698323 
z
" clip-path="url(#p01a9a77788)" style="stroke: #000000; stroke-width: 0.886227"/>
    <path d="M 382.07796 21.068454 
C 382.54802 21.068454 382.998892 20.881697 383.331274 20.549314 
C 383.663657 20.216931 383.850414 19.76606 383.850414 19.296 
C 383.850414 18.82594 383.663657 18.375069 383.331274 18.042686 
C 382.998892 17.710303 382.54802 17.523546 382.07796 17.523546 
C 381.6079 17.523546 381.157029 17.710303 380.824646 18.042686 
C 380.492263 18.375069 380.305506 18.82594 380.305506 19.296 
C 380.305506 19.76606 380.492263 20.216931 380.824646 20.549314 
C 381.157029 20.881697 381.6079 21.068454 382.07796 21.068454 
z
" clip-path="url(#p01a9a77788)" style="stroke: #000000; stroke-width: 0.886227"/>
   </g>
  </g>
 </g>
 <defs>
  <clipPath id="p01a9a77788">
   <rect x="41.190688" y="7.2" width="357.12" height="266.112"/>
  </clipPath>
 </defs>
</svg>
