<?xml version="1.0" encoding="UTF-8" standalone="no"?>
<!DOCTYPE svg PUBLIC "-//W3C//DTD SVG 1.1//EN"
 "http://www.w3.org/Graphics/SVG/1.1/DTD/svg11.dtd">
<!-- Generated by graphviz version 2.42.4 (0)
 -->
<!-- Pages: 1 -->
<svg width="518pt" height="92pt"
 viewBox="0.00 0.00 517.69 91.90" xmlns="http://www.w3.org/2000/svg" xmlns:xlink="http://www.w3.org/1999/xlink">
<g id="graph0" class="graph" transform="scale(1 1) rotate(0) translate(4 87.9)">
<polygon fill="white" stroke="transparent" points="-4,4 -4,-87.9 513.69,-87.9 513.69,4 -4,4"/>
<!-- 1861836099063998848 -->
<g id="node1" class="node">
<title>1861836099063998848</title>
<ellipse fill="none" stroke="black" cx="391.74" cy="-55.95" rx="27.9" ry="27.9"/>
<text text-anchor="middle" x="391.74" y="-52.25" font-family="Times,serif" font-size="14.00">add</text>
</g>
<!-- &#45;8390276632521460821 -->
<g id="node2" class="node">
<title>&#45;8390276632521460821</title>
<polygon fill="none" stroke="black" points="509.69,-73.95 455.69,-73.95 455.69,-37.95 509.69,-37.95 509.69,-73.95"/>
</g>
<!-- 1861836099063998848&#45;&gt;&#45;8390276632521460821 -->
<g id="edge1" class="edge">
<title>1861836099063998848&#45;&gt;&#45;8390276632521460821</title>
<path fill="none" stroke="black" d="M419.91,-55.95C427.97,-55.95 436.93,-55.95 445.47,-55.95"/>
<polygon fill="black" stroke="black" points="445.6,-59.45 455.6,-55.95 445.6,-52.45 445.6,-59.45"/>
</g>
<!-- &#45;4464060796918419031 -->
<g id="node3" class="node">
<title>&#45;4464060796918419031</title>
<polygon fill="none" stroke="black" points="327.79,-50.95 273.79,-50.95 273.79,-14.95 327.79,-14.95 327.79,-50.95"/>
</g>
<!-- &#45;4464060796918419031&#45;&gt;1861836099063998848 -->
<g id="edge2" class="edge">
<title>&#45;4464060796918419031&#45;&gt;1861836099063998848</title>
<path fill="none" stroke="black" d="M328,-39.72C336.34,-41.88 345.71,-44.31 354.63,-46.61"/>
<polygon fill="black" stroke="black" points="353.85,-50.03 364.41,-49.14 355.61,-43.25 353.85,-50.03"/>
</g>
<!-- 8113758953394566541 -->
<g id="node4" class="node">
<title>8113758953394566541</title>
<polygon fill="none" stroke="black" points="145.9,-73.95 91.9,-73.95 91.9,-37.95 145.9,-37.95 145.9,-73.95"/>
</g>
<!-- 8113758953394566541&#45;&gt;1861836099063998848 -->
<g id="edge3" class="edge">
<title>8113758953394566541&#45;&gt;1861836099063998848</title>
<path fill="none" stroke="black" d="M146.05,-60.6C157.08,-62.34 170.07,-64.09 181.9,-64.95 241.96,-69.28 311.9,-64.22 353.68,-60.12"/>
<polygon fill="black" stroke="black" points="354.08,-63.59 363.67,-59.1 353.37,-56.63 354.08,-63.59"/>
</g>
<!-- 614100119710952657 -->
<g id="node6" class="node">
<title>614100119710952657</title>
<ellipse fill="none" stroke="black" cx="209.84" cy="-27.95" rx="27.9" ry="27.9"/>
<text text-anchor="middle" x="209.84" y="-24.25" font-family="Times,serif" font-size="14.00">add</text>
</g>
<!-- 8113758953394566541&#45;&gt;614100119710952657 -->
<g id="edge6" class="edge">
<title>8113758953394566541&#45;&gt;614100119710952657</title>
<path fill="none" stroke="black" d="M146.1,-47.7C154.61,-45.02 164.19,-42 173.26,-39.15"/>
<polygon fill="black" stroke="black" points="174.34,-42.48 182.82,-36.14 172.23,-35.8 174.34,-42.48"/>
</g>
<!-- 7625105319396569174 -->
<g id="node5" class="node">
<title>7625105319396569174</title>
<ellipse fill="none" stroke="black" cx="27.95" cy="-55.95" rx="27.9" ry="27.9"/>
<text text-anchor="middle" x="27.95" y="-52.25" font-family="Times,serif" font-size="14.00">add</text>
</g>
<!-- 7625105319396569174&#45;&gt;8113758953394566541 -->
<g id="edge4" class="edge">
<title>7625105319396569174&#45;&gt;8113758953394566541</title>
<path fill="none" stroke="black" d="M56.12,-55.95C64.18,-55.95 73.14,-55.95 81.68,-55.95"/>
<polygon fill="black" stroke="black" points="81.81,-59.45 91.81,-55.95 81.81,-52.45 81.81,-59.45"/>
</g>
<!-- 614100119710952657&#45;&gt;&#45;4464060796918419031 -->
<g id="edge5" class="edge">
<title>614100119710952657&#45;&gt;&#45;4464060796918419031</title>
<path fill="none" stroke="black" d="M238.01,-29.47C246.08,-29.93 255.04,-30.43 263.58,-30.91"/>
<polygon fill="black" stroke="black" points="263.52,-34.41 273.7,-31.48 263.91,-27.43 263.52,-34.41"/>
</g>
</g>
</svg>
