<?xml version="1.0" encoding="UTF-8" standalone="no"?>
<!DOCTYPE svg PUBLIC "-//W3C//DTD SVG 1.1//EN"
 "http://www.w3.org/Graphics/SVG/1.1/DTD/svg11.dtd">
<!-- Generated by graphviz version 2.42.4 (0)
 -->
<!-- Pages: 1 -->
<svg width="422pt" height="188pt"
 viewBox="0.00 0.00 422.00 188.00" xmlns="http://www.w3.org/2000/svg" xmlns:xlink="http://www.w3.org/1999/xlink">
<g id="graph0" class="graph" transform="scale(1 1) rotate(0) translate(4 184)">
<polygon fill="white" stroke="transparent" points="-4,4 -4,-184 418,-184 418,4 -4,4"/>
<!-- &#45;2907613687204903219 -->
<g id="node1" class="node">
<title>&#45;2907613687204903219</title>
<polygon fill="none" stroke="black" points="54,-36 0,-36 0,0 54,0 54,-36"/>
<text text-anchor="middle" x="27" y="-14.3" font-family="Times,serif" font-size="14.00">0</text>
</g>
<!-- 6298545801317273416 -->
<g id="node7" class="node">
<title>6298545801317273416</title>
<ellipse fill="none" stroke="black" cx="27" cy="-90" rx="18" ry="18"/>
<text text-anchor="middle" x="27" y="-86.3" font-family="Times,serif" font-size="14.00">f</text>
</g>
<!-- &#45;2907613687204903219&#45;&gt;6298545801317273416 -->
<g id="edge2" class="edge">
<title>&#45;2907613687204903219&#45;&gt;6298545801317273416</title>
<path fill="none" stroke="black" d="M27,-36.3C27,-44.02 27,-53.29 27,-61.89"/>
<polygon fill="black" stroke="black" points="23.5,-61.9 27,-71.9 30.5,-61.9 23.5,-61.9"/>
</g>
<!-- 3600027068897095206 -->
<g id="node2" class="node">
<title>3600027068897095206</title>
<polygon fill="none" stroke="black" points="126,-36 72,-36 72,0 126,0 126,-36"/>
<text text-anchor="middle" x="99" y="-14.3" font-family="Times,serif" font-size="14.00">1</text>
</g>
<!-- &#45;5063476061820585625 -->
<g id="node9" class="node">
<title>&#45;5063476061820585625</title>
<ellipse fill="none" stroke="black" cx="99" cy="-90" rx="18" ry="18"/>
<text text-anchor="middle" x="99" y="-86.3" font-family="Times,serif" font-size="14.00">f</text>
</g>
<!-- 3600027068897095206&#45;&gt;&#45;5063476061820585625 -->
<g id="edge4" class="edge">
<title>3600027068897095206&#45;&gt;&#45;5063476061820585625</title>
<path fill="none" stroke="black" d="M99,-36.3C99,-44.02 99,-53.29 99,-61.89"/>
<polygon fill="black" stroke="black" points="95.5,-61.9 99,-71.9 102.5,-61.9 95.5,-61.9"/>
</g>
<!-- &#45;1293046960075601160 -->
<g id="node3" class="node">
<title>&#45;1293046960075601160</title>
<polygon fill="none" stroke="black" points="198,-36 144,-36 144,0 198,0 198,-36"/>
<text text-anchor="middle" x="171" y="-14.3" font-family="Times,serif" font-size="14.00">2</text>
</g>
<!-- &#45;4535385152145704093 -->
<g id="node11" class="node">
<title>&#45;4535385152145704093</title>
<ellipse fill="none" stroke="black" cx="171" cy="-90" rx="18" ry="18"/>
<text text-anchor="middle" x="171" y="-86.3" font-family="Times,serif" font-size="14.00">f</text>
</g>
<!-- &#45;1293046960075601160&#45;&gt;&#45;4535385152145704093 -->
<g id="edge6" class="edge">
<title>&#45;1293046960075601160&#45;&gt;&#45;4535385152145704093</title>
<path fill="none" stroke="black" d="M171,-36.3C171,-44.02 171,-53.29 171,-61.89"/>
<polygon fill="black" stroke="black" points="167.5,-61.9 171,-71.9 174.5,-61.9 167.5,-61.9"/>
</g>
<!-- 816236413042029137 -->
<g id="node4" class="node">
<title>816236413042029137</title>
<polygon fill="none" stroke="black" points="270,-36 216,-36 216,0 270,0 270,-36"/>
<text text-anchor="middle" x="243" y="-14.3" font-family="Times,serif" font-size="14.00">3</text>
</g>
<!-- &#45;6904442379241479310 -->
<g id="node13" class="node">
<title>&#45;6904442379241479310</title>
<ellipse fill="none" stroke="black" cx="243" cy="-90" rx="18" ry="18"/>
<text text-anchor="middle" x="243" y="-86.3" font-family="Times,serif" font-size="14.00">f</text>
</g>
<!-- 816236413042029137&#45;&gt;&#45;6904442379241479310 -->
<g id="edge8" class="edge">
<title>816236413042029137&#45;&gt;&#45;6904442379241479310</title>
<path fill="none" stroke="black" d="M243,-36.3C243,-44.02 243,-53.29 243,-61.89"/>
<polygon fill="black" stroke="black" points="239.5,-61.9 243,-71.9 246.5,-61.9 239.5,-61.9"/>
</g>
<!-- &#45;4076837615930667229 -->
<g id="node5" class="node">
<title>&#45;4076837615930667229</title>
<polygon fill="none" stroke="black" points="342,-36 288,-36 288,0 342,0 342,-36"/>
<text text-anchor="middle" x="315" y="-14.3" font-family="Times,serif" font-size="14.00">4</text>
</g>
<!-- 5910855029138035967 -->
<g id="node15" class="node">
<title>5910855029138035967</title>
<ellipse fill="none" stroke="black" cx="315" cy="-90" rx="18" ry="18"/>
<text text-anchor="middle" x="315" y="-86.3" font-family="Times,serif" font-size="14.00">f</text>
</g>
<!-- &#45;4076837615930667229&#45;&gt;5910855029138035967 -->
<g id="edge10" class="edge">
<title>&#45;4076837615930667229&#45;&gt;5910855029138035967</title>
<path fill="none" stroke="black" d="M315,-36.3C315,-44.02 315,-53.29 315,-61.89"/>
<polygon fill="black" stroke="black" points="311.5,-61.9 315,-71.9 318.5,-61.9 311.5,-61.9"/>
</g>
<!-- 2430803140171331196 -->
<g id="node6" class="node">
<title>2430803140171331196</title>
<polygon fill="none" stroke="black" points="414,-36 360,-36 360,0 414,0 414,-36"/>
<text text-anchor="middle" x="387" y="-14.3" font-family="Times,serif" font-size="14.00">5</text>
</g>
<!-- 5751816818592560447 -->
<g id="node17" class="node">
<title>5751816818592560447</title>
<ellipse fill="none" stroke="black" cx="387" cy="-90" rx="18" ry="18"/>
<text text-anchor="middle" x="387" y="-86.3" font-family="Times,serif" font-size="14.00">f</text>
</g>
<!-- 2430803140171331196&#45;&gt;5751816818592560447 -->
<g id="edge12" class="edge">
<title>2430803140171331196&#45;&gt;5751816818592560447</title>
<path fill="none" stroke="black" d="M387,-36.3C387,-44.02 387,-53.29 387,-61.89"/>
<polygon fill="black" stroke="black" points="383.5,-61.9 387,-71.9 390.5,-61.9 383.5,-61.9"/>
</g>
<!-- &#45;7948200498908413961 -->
<g id="node8" class="node">
<title>&#45;7948200498908413961</title>
<polygon fill="none" stroke="black" points="54,-180 0,-180 0,-144 54,-144 54,-180"/>
<text text-anchor="middle" x="27" y="-158.3" font-family="Times,serif" font-size="14.00">0</text>
</g>
<!-- 6298545801317273416&#45;&gt;&#45;7948200498908413961 -->
<g id="edge1" class="edge">
<title>6298545801317273416&#45;&gt;&#45;7948200498908413961</title>
<path fill="none" stroke="black" d="M27,-108.3C27,-116.02 27,-125.29 27,-133.89"/>
<polygon fill="black" stroke="black" points="23.5,-133.9 27,-143.9 30.5,-133.9 23.5,-133.9"/>
</g>
<!-- &#45;1440559742806415536 -->
<g id="node10" class="node">
<title>&#45;1440559742806415536</title>
<polygon fill="none" stroke="black" points="126,-180 72,-180 72,-144 126,-144 126,-180"/>
<text text-anchor="middle" x="99" y="-158.3" font-family="Times,serif" font-size="14.00">1</text>
</g>
<!-- &#45;5063476061820585625&#45;&gt;&#45;1440559742806415536 -->
<g id="edge3" class="edge">
<title>&#45;5063476061820585625&#45;&gt;&#45;1440559742806415536</title>
<path fill="none" stroke="black" d="M99,-108.3C99,-116.02 99,-125.29 99,-133.89"/>
<polygon fill="black" stroke="black" points="95.5,-133.9 99,-143.9 102.5,-133.9 95.5,-133.9"/>
</g>
<!-- 5067081013295582889 -->
<g id="node12" class="node">
<title>5067081013295582889</title>
<polygon fill="none" stroke="black" points="198,-180 144,-180 144,-144 198,-144 198,-180"/>
<text text-anchor="middle" x="171" y="-158.3" font-family="Times,serif" font-size="14.00">2</text>
</g>
<!-- &#45;4535385152145704093&#45;&gt;5067081013295582889 -->
<g id="edge5" class="edge">
<title>&#45;4535385152145704093&#45;&gt;5067081013295582889</title>
<path fill="none" stroke="black" d="M171,-108.3C171,-116.02 171,-125.29 171,-133.89"/>
<polygon fill="black" stroke="black" points="167.5,-133.9 171,-143.9 174.5,-133.9 167.5,-133.9"/>
</g>
<!-- &#45;4224350398661481605 -->
<g id="node14" class="node">
<title>&#45;4224350398661481605</title>
<polygon fill="none" stroke="black" points="270,-180 216,-180 216,-144 270,-144 270,-180"/>
<text text-anchor="middle" x="243" y="-158.3" font-family="Times,serif" font-size="14.00">3</text>
</g>
<!-- &#45;6904442379241479310&#45;&gt;&#45;4224350398661481605 -->
<g id="edge7" class="edge">
<title>&#45;6904442379241479310&#45;&gt;&#45;4224350398661481605</title>
<path fill="none" stroke="black" d="M243,-108.3C243,-116.02 243,-125.29 243,-133.89"/>
<polygon fill="black" stroke="black" points="239.5,-133.9 243,-143.9 246.5,-133.9 239.5,-133.9"/>
</g>
<!-- 2283290357440516820 -->
<g id="node16" class="node">
<title>2283290357440516820</title>
<polygon fill="none" stroke="black" points="342,-180 288,-180 288,-144 342,-144 342,-180"/>
<text text-anchor="middle" x="315" y="-158.3" font-family="Times,serif" font-size="14.00">4</text>
</g>
<!-- 5910855029138035967&#45;&gt;2283290357440516820 -->
<g id="edge9" class="edge">
<title>5910855029138035967&#45;&gt;2283290357440516820</title>
<path fill="none" stroke="black" d="M315,-108.3C315,-116.02 315,-125.29 315,-133.89"/>
<polygon fill="black" stroke="black" points="311.5,-133.9 315,-143.9 318.5,-133.9 311.5,-133.9"/>
</g>
<!-- &#45;2609783671532179546 -->
<g id="node18" class="node">
<title>&#45;2609783671532179546</title>
<polygon fill="none" stroke="black" points="414,-180 360,-180 360,-144 414,-144 414,-180"/>
<text text-anchor="middle" x="387" y="-158.3" font-family="Times,serif" font-size="14.00">5</text>
</g>
<!-- 5751816818592560447&#45;&gt;&#45;2609783671532179546 -->
<g id="edge11" class="edge">
<title>5751816818592560447&#45;&gt;&#45;2609783671532179546</title>
<path fill="none" stroke="black" d="M387,-108.3C387,-116.02 387,-125.29 387,-133.89"/>
<polygon fill="black" stroke="black" points="383.5,-133.9 387,-143.9 390.5,-133.9 383.5,-133.9"/>
</g>
</g>
</svg>
