<?xml version="1.0" encoding="utf-8" standalone="no"?>
<!DOCTYPE svg PUBLIC "-//W3C//DTD SVG 1.1//EN"
  "http://www.w3.org/Graphics/SVG/1.1/DTD/svg11.dtd">
<!-- Created with matplotlib (https://matplotlib.org/) -->
<svg height="309.024687pt" version="1.1" viewBox="0 0 397.114937 309.024687" width="397.114937pt" xmlns="http://www.w3.org/2000/svg" xmlns:xlink="http://www.w3.org/1999/xlink">
 <metadata>
  <rdf:RDF xmlns:cc="http://creativecommons.org/ns#" xmlns:dc="http://purl.org/dc/elements/1.1/" xmlns:rdf="http://www.w3.org/1999/02/22-rdf-syntax-ns#">
   <cc:Work>
    <dc:type rdf:resource="http://purl.org/dc/dcmitype/StillImage"/>
    <dc:date>2020-07-31T16:54:39.614066</dc:date>
    <dc:format>image/svg+xml</dc:format>
    <dc:creator>
     <cc:Agent>
      <dc:title>Matplotlib v3.3.0, https://matplotlib.org/</dc:title>
     </cc:Agent>
    </dc:creator>
   </cc:Work>
  </rdf:RDF>
 </metadata>
 <defs>
  <style type="text/css">*{stroke-linecap:butt;stroke-linejoin:round;}</style>
 </defs>
 <g id="figure_1">
  <g id="patch_1">
   <path d="M 0 309.024687 
L 397.114937 309.024687 
L 397.114937 0 
L 0 0 
z
" style="fill:#ffffff;stroke:#ffffff;stroke-linejoin:miter;"/>
  </g>
  <g id="axes_1">
   <g id="patch_2">
    <path d="M 32.794938 273.312 
L 389.914938 273.312 
L 389.914938 7.2 
L 32.794938 7.2 
z
" style="fill:#ebebeb;"/>
   </g>
   <g id="matplotlib.axis_1">
    <g id="xtick_1">
     <g id="line2d_1">
      <path clip-path="url(#p259d96f9d8)" d="M 95.406886 273.312 
L 95.406886 7.2 
" style="fill:none;stroke:#ffffff;"/>
     </g>
     <g id="line2d_2">
      <path d="M 95.406886 273.312 
" style="fill:none;stroke:#333333;stroke-width:1.5;"/>
      <defs>
       <path d="M 0 0 
L 0 2.75 
" id="mf16c9b4806" style="stroke:#000000;"/>
      </defs>
      <g>
       <use style="fill:#333333;stroke:#000000;" x="95.406886" xlink:href="#mf16c9b4806" y="273.312"/>
      </g>
     </g>
     <g id="text_1">
      <!-- 2 -->
      <g style="fill:#4d4d4d;" transform="translate(92.607386 284.948625)scale(0.088 -0.088)">
       <defs>
        <path d="M 19.1875 8.296875 
L 53.609375 8.296875 
L 53.609375 0 
L 7.328125 0 
L 7.328125 8.296875 
Q 12.9375 14.109375 22.625 23.890625 
Q 32.328125 33.6875 34.8125 36.53125 
Q 39.546875 41.84375 41.421875 45.53125 
Q 43.3125 49.21875 43.3125 52.78125 
Q 43.3125 58.59375 39.234375 62.25 
Q 35.15625 65.921875 28.609375 65.921875 
Q 23.96875 65.921875 18.8125 64.3125 
Q 13.671875 62.703125 7.8125 59.421875 
L 7.8125 69.390625 
Q 13.765625 71.78125 18.9375 73 
Q 24.125 74.21875 28.421875 74.21875 
Q 39.75 74.21875 46.484375 68.546875 
Q 53.21875 62.890625 53.21875 53.421875 
Q 53.21875 48.921875 51.53125 44.890625 
Q 49.859375 40.875 45.40625 35.40625 
Q 44.1875 33.984375 37.640625 27.21875 
Q 31.109375 20.453125 19.1875 8.296875 
z
" id="DejaVuSans-50"/>
       </defs>
       <use xlink:href="#DejaVuSans-50"/>
      </g>
     </g>
    </g>
    <g id="xtick_2">
     <g id="line2d_3">
      <path clip-path="url(#p259d96f9d8)" d="M 188.165327 273.312 
L 188.165327 7.2 
" style="fill:none;stroke:#ffffff;"/>
     </g>
     <g id="line2d_4">
      <path d="M 188.165327 273.312 
" style="fill:none;stroke:#333333;stroke-width:1.5;"/>
      <g>
       <use style="fill:#333333;stroke:#000000;" x="188.165327" xlink:href="#mf16c9b4806" y="273.312"/>
      </g>
     </g>
     <g id="text_2">
      <!-- 4 -->
      <g style="fill:#4d4d4d;" transform="translate(185.365827 284.948625)scale(0.088 -0.088)">
       <defs>
        <path d="M 37.796875 64.3125 
L 12.890625 25.390625 
L 37.796875 25.390625 
z
M 35.203125 72.90625 
L 47.609375 72.90625 
L 47.609375 25.390625 
L 58.015625 25.390625 
L 58.015625 17.1875 
L 47.609375 17.1875 
L 47.609375 0 
L 37.796875 0 
L 37.796875 17.1875 
L 4.890625 17.1875 
L 4.890625 26.703125 
z
" id="DejaVuSans-52"/>
       </defs>
       <use xlink:href="#DejaVuSans-52"/>
      </g>
     </g>
    </g>
    <g id="xtick_3">
     <g id="line2d_5">
      <path clip-path="url(#p259d96f9d8)" d="M 280.923769 273.312 
L 280.923769 7.2 
" style="fill:none;stroke:#ffffff;"/>
     </g>
     <g id="line2d_6">
      <path d="M 280.923769 273.312 
" style="fill:none;stroke:#333333;stroke-width:1.5;"/>
      <g>
       <use style="fill:#333333;stroke:#000000;" x="280.923769" xlink:href="#mf16c9b4806" y="273.312"/>
      </g>
     </g>
     <g id="text_3">
      <!-- 6 -->
      <g style="fill:#4d4d4d;" transform="translate(278.124269 284.948625)scale(0.088 -0.088)">
       <defs>
        <path d="M 33.015625 40.375 
Q 26.375 40.375 22.484375 35.828125 
Q 18.609375 31.296875 18.609375 23.390625 
Q 18.609375 15.53125 22.484375 10.953125 
Q 26.375 6.390625 33.015625 6.390625 
Q 39.65625 6.390625 43.53125 10.953125 
Q 47.40625 15.53125 47.40625 23.390625 
Q 47.40625 31.296875 43.53125 35.828125 
Q 39.65625 40.375 33.015625 40.375 
z
M 52.59375 71.296875 
L 52.59375 62.3125 
Q 48.875 64.0625 45.09375 64.984375 
Q 41.3125 65.921875 37.59375 65.921875 
Q 27.828125 65.921875 22.671875 59.328125 
Q 17.53125 52.734375 16.796875 39.40625 
Q 19.671875 43.65625 24.015625 45.921875 
Q 28.375 48.1875 33.59375 48.1875 
Q 44.578125 48.1875 50.953125 41.515625 
Q 57.328125 34.859375 57.328125 23.390625 
Q 57.328125 12.15625 50.6875 5.359375 
Q 44.046875 -1.421875 33.015625 -1.421875 
Q 20.359375 -1.421875 13.671875 8.265625 
Q 6.984375 17.96875 6.984375 36.375 
Q 6.984375 53.65625 15.1875 63.9375 
Q 23.390625 74.21875 37.203125 74.21875 
Q 40.921875 74.21875 44.703125 73.484375 
Q 48.484375 72.75 52.59375 71.296875 
z
" id="DejaVuSans-54"/>
       </defs>
       <use xlink:href="#DejaVuSans-54"/>
      </g>
     </g>
    </g>
    <g id="xtick_4">
     <g id="line2d_7">
      <path clip-path="url(#p259d96f9d8)" d="M 373.68221 273.312 
L 373.68221 7.2 
" style="fill:none;stroke:#ffffff;"/>
     </g>
     <g id="line2d_8">
      <path d="M 373.68221 273.312 
" style="fill:none;stroke:#333333;stroke-width:1.5;"/>
      <g>
       <use style="fill:#333333;stroke:#000000;" x="373.68221" xlink:href="#mf16c9b4806" y="273.312"/>
      </g>
     </g>
     <g id="text_4">
      <!-- 8 -->
      <g style="fill:#4d4d4d;" transform="translate(370.88271 284.948625)scale(0.088 -0.088)">
       <defs>
        <path d="M 31.78125 34.625 
Q 24.75 34.625 20.71875 30.859375 
Q 16.703125 27.09375 16.703125 20.515625 
Q 16.703125 13.921875 20.71875 10.15625 
Q 24.75 6.390625 31.78125 6.390625 
Q 38.8125 6.390625 42.859375 10.171875 
Q 46.921875 13.96875 46.921875 20.515625 
Q 46.921875 27.09375 42.890625 30.859375 
Q 38.875 34.625 31.78125 34.625 
z
M 21.921875 38.8125 
Q 15.578125 40.375 12.03125 44.71875 
Q 8.5 49.078125 8.5 55.328125 
Q 8.5 64.0625 14.71875 69.140625 
Q 20.953125 74.21875 31.78125 74.21875 
Q 42.671875 74.21875 48.875 69.140625 
Q 55.078125 64.0625 55.078125 55.328125 
Q 55.078125 49.078125 51.53125 44.71875 
Q 48 40.375 41.703125 38.8125 
Q 48.828125 37.15625 52.796875 32.3125 
Q 56.78125 27.484375 56.78125 20.515625 
Q 56.78125 9.90625 50.3125 4.234375 
Q 43.84375 -1.421875 31.78125 -1.421875 
Q 19.734375 -1.421875 13.25 4.234375 
Q 6.78125 9.90625 6.78125 20.515625 
Q 6.78125 27.484375 10.78125 32.3125 
Q 14.796875 37.15625 21.921875 38.8125 
z
M 18.3125 54.390625 
Q 18.3125 48.734375 21.84375 45.5625 
Q 25.390625 42.390625 31.78125 42.390625 
Q 38.140625 42.390625 41.71875 45.5625 
Q 45.3125 48.734375 45.3125 54.390625 
Q 45.3125 60.0625 41.71875 63.234375 
Q 38.140625 66.40625 31.78125 66.40625 
Q 25.390625 66.40625 21.84375 63.234375 
Q 18.3125 60.0625 18.3125 54.390625 
z
" id="DejaVuSans-56"/>
       </defs>
       <use xlink:href="#DejaVuSans-56"/>
      </g>
     </g>
    </g>
    <g id="xtick_5">
     <g id="line2d_9">
      <path clip-path="url(#p259d96f9d8)" d="M 49.027665 273.312 
L 49.027665 7.2 
" style="fill:none;stroke:#ffffff;stroke-width:0.5;"/>
     </g>
    </g>
    <g id="xtick_6">
     <g id="line2d_10">
      <path clip-path="url(#p259d96f9d8)" d="M 141.786106 273.312 
L 141.786106 7.2 
" style="fill:none;stroke:#ffffff;stroke-width:0.5;"/>
     </g>
    </g>
    <g id="xtick_7">
     <g id="line2d_11">
      <path clip-path="url(#p259d96f9d8)" d="M 234.544548 273.312 
L 234.544548 7.2 
" style="fill:none;stroke:#ffffff;stroke-width:0.5;"/>
     </g>
    </g>
    <g id="xtick_8">
     <g id="line2d_12">
      <path clip-path="url(#p259d96f9d8)" d="M 327.302989 273.312 
L 327.302989 7.2 
" style="fill:none;stroke:#ffffff;stroke-width:0.5;"/>
     </g>
    </g>
    <g id="text_5">
     <!-- n -->
     <g transform="translate(202.109313 299.537031)scale(0.11 -0.11)">
      <defs>
       <path d="M 54.890625 33.015625 
L 54.890625 0 
L 45.90625 0 
L 45.90625 32.71875 
Q 45.90625 40.484375 42.875 44.328125 
Q 39.84375 48.1875 33.796875 48.1875 
Q 26.515625 48.1875 22.3125 43.546875 
Q 18.109375 38.921875 18.109375 30.90625 
L 18.109375 0 
L 9.078125 0 
L 9.078125 54.6875 
L 18.109375 54.6875 
L 18.109375 46.1875 
Q 21.34375 51.125 25.703125 53.5625 
Q 30.078125 56 35.796875 56 
Q 45.21875 56 50.046875 50.171875 
Q 54.890625 44.34375 54.890625 33.015625 
z
" id="DejaVuSans-110"/>
      </defs>
      <use xlink:href="#DejaVuSans-110"/>
     </g>
    </g>
   </g>
   <g id="matplotlib.axis_2">
    <g id="ytick_1">
     <g id="line2d_13">
      <path clip-path="url(#p259d96f9d8)" d="M 32.794938 240.733937 
L 389.914938 240.733937 
" style="fill:none;stroke:#ffffff;"/>
     </g>
     <g id="line2d_14">
      <path d="M 32.794938 240.733937 
" style="fill:none;stroke:#333333;stroke-width:1.5;"/>
      <defs>
       <path d="M 0 0 
L -2.75 0 
" id="mac9eb5b48c" style="stroke:#000000;"/>
      </defs>
      <g>
       <use style="fill:#333333;stroke:#000000;" x="32.794938" xlink:href="#mac9eb5b48c" y="240.733937"/>
      </g>
     </g>
     <g id="text_6">
      <!-- 5 -->
      <g style="fill:#4d4d4d;" transform="translate(22.245938 243.162187)scale(0.088 -0.088)">
       <defs>
        <path d="M 10.796875 72.90625 
L 49.515625 72.90625 
L 49.515625 64.59375 
L 19.828125 64.59375 
L 19.828125 46.734375 
Q 21.96875 47.46875 24.109375 47.828125 
Q 26.265625 48.1875 28.421875 48.1875 
Q 40.625 48.1875 47.75 41.5 
Q 54.890625 34.8125 54.890625 23.390625 
Q 54.890625 11.625 47.5625 5.09375 
Q 40.234375 -1.421875 26.90625 -1.421875 
Q 22.3125 -1.421875 17.546875 -0.640625 
Q 12.796875 0.140625 7.71875 1.703125 
L 7.71875 11.625 
Q 12.109375 9.234375 16.796875 8.0625 
Q 21.484375 6.890625 26.703125 6.890625 
Q 35.15625 6.890625 40.078125 11.328125 
Q 45.015625 15.765625 45.015625 23.390625 
Q 45.015625 31 40.078125 35.4375 
Q 35.15625 39.890625 26.703125 39.890625 
Q 22.75 39.890625 18.8125 39.015625 
Q 14.890625 38.140625 10.796875 36.28125 
z
" id="DejaVuSans-53"/>
       </defs>
       <use xlink:href="#DejaVuSans-53"/>
      </g>
     </g>
    </g>
    <g id="ytick_2">
     <g id="line2d_15">
      <path clip-path="url(#p259d96f9d8)" d="M 32.794938 193.994442 
L 389.914938 193.994442 
" style="fill:none;stroke:#ffffff;"/>
     </g>
     <g id="line2d_16">
      <path d="M 32.794938 193.994442 
" style="fill:none;stroke:#333333;stroke-width:1.5;"/>
      <g>
       <use style="fill:#333333;stroke:#000000;" x="32.794938" xlink:href="#mac9eb5b48c" y="193.994442"/>
      </g>
     </g>
     <g id="text_7">
      <!-- 6 -->
      <g style="fill:#4d4d4d;" transform="translate(22.245938 196.422692)scale(0.088 -0.088)">
       <use xlink:href="#DejaVuSans-54"/>
      </g>
     </g>
    </g>
    <g id="ytick_3">
     <g id="line2d_17">
      <path clip-path="url(#p259d96f9d8)" d="M 32.794938 147.254948 
L 389.914938 147.254948 
" style="fill:none;stroke:#ffffff;"/>
     </g>
     <g id="line2d_18">
      <path d="M 32.794938 147.254948 
" style="fill:none;stroke:#333333;stroke-width:1.5;"/>
      <g>
       <use style="fill:#333333;stroke:#000000;" x="32.794938" xlink:href="#mac9eb5b48c" y="147.254948"/>
      </g>
     </g>
     <g id="text_8">
      <!-- 7 -->
      <g style="fill:#4d4d4d;" transform="translate(22.245938 149.683198)scale(0.088 -0.088)">
       <defs>
        <path d="M 8.203125 72.90625 
L 55.078125 72.90625 
L 55.078125 68.703125 
L 28.609375 0 
L 18.3125 0 
L 43.21875 64.59375 
L 8.203125 64.59375 
z
" id="DejaVuSans-55"/>
       </defs>
       <use xlink:href="#DejaVuSans-55"/>
      </g>
     </g>
    </g>
    <g id="ytick_4">
     <g id="line2d_19">
      <path clip-path="url(#p259d96f9d8)" d="M 32.794938 100.515454 
L 389.914938 100.515454 
" style="fill:none;stroke:#ffffff;"/>
     </g>
     <g id="line2d_20">
      <path d="M 32.794938 100.515454 
" style="fill:none;stroke:#333333;stroke-width:1.5;"/>
      <g>
       <use style="fill:#333333;stroke:#000000;" x="32.794938" xlink:href="#mac9eb5b48c" y="100.515454"/>
      </g>
     </g>
     <g id="text_9">
      <!-- 8 -->
      <g style="fill:#4d4d4d;" transform="translate(22.245938 102.943704)scale(0.088 -0.088)">
       <use xlink:href="#DejaVuSans-56"/>
      </g>
     </g>
    </g>
    <g id="ytick_5">
     <g id="line2d_21">
      <path clip-path="url(#p259d96f9d8)" d="M 32.794938 53.775959 
L 389.914938 53.775959 
" style="fill:none;stroke:#ffffff;"/>
     </g>
     <g id="line2d_22">
      <path d="M 32.794938 53.775959 
" style="fill:none;stroke:#333333;stroke-width:1.5;"/>
      <g>
       <use style="fill:#333333;stroke:#000000;" x="32.794938" xlink:href="#mac9eb5b48c" y="53.775959"/>
      </g>
     </g>
     <g id="text_10">
      <!-- 9 -->
      <g style="fill:#4d4d4d;" transform="translate(22.245938 56.204209)scale(0.088 -0.088)">
       <defs>
        <path d="M 10.984375 1.515625 
L 10.984375 10.5 
Q 14.703125 8.734375 18.5 7.8125 
Q 22.3125 6.890625 25.984375 6.890625 
Q 35.75 6.890625 40.890625 13.453125 
Q 46.046875 20.015625 46.78125 33.40625 
Q 43.953125 29.203125 39.59375 26.953125 
Q 35.25 24.703125 29.984375 24.703125 
Q 19.046875 24.703125 12.671875 31.3125 
Q 6.296875 37.9375 6.296875 49.421875 
Q 6.296875 60.640625 12.9375 67.421875 
Q 19.578125 74.21875 30.609375 74.21875 
Q 43.265625 74.21875 49.921875 64.515625 
Q 56.59375 54.828125 56.59375 36.375 
Q 56.59375 19.140625 48.40625 8.859375 
Q 40.234375 -1.421875 26.421875 -1.421875 
Q 22.703125 -1.421875 18.890625 -0.6875 
Q 15.09375 0.046875 10.984375 1.515625 
z
M 30.609375 32.421875 
Q 37.25 32.421875 41.125 36.953125 
Q 45.015625 41.5 45.015625 49.421875 
Q 45.015625 57.28125 41.125 61.84375 
Q 37.25 66.40625 30.609375 66.40625 
Q 23.96875 66.40625 20.09375 61.84375 
Q 16.21875 57.28125 16.21875 49.421875 
Q 16.21875 41.5 20.09375 36.953125 
Q 23.96875 32.421875 30.609375 32.421875 
z
" id="DejaVuSans-57"/>
       </defs>
       <use xlink:href="#DejaVuSans-57"/>
      </g>
     </g>
    </g>
    <g id="ytick_6">
     <g id="line2d_23">
      <path clip-path="url(#p259d96f9d8)" d="M 32.794938 264.103684 
L 389.914938 264.103684 
" style="fill:none;stroke:#ffffff;stroke-width:0.5;"/>
     </g>
    </g>
    <g id="ytick_7">
     <g id="line2d_24">
      <path clip-path="url(#p259d96f9d8)" d="M 32.794938 217.364189 
L 389.914938 217.364189 
" style="fill:none;stroke:#ffffff;stroke-width:0.5;"/>
     </g>
    </g>
    <g id="ytick_8">
     <g id="line2d_25">
      <path clip-path="url(#p259d96f9d8)" d="M 32.794938 170.624695 
L 389.914938 170.624695 
" style="fill:none;stroke:#ffffff;stroke-width:0.5;"/>
     </g>
    </g>
    <g id="ytick_9">
     <g id="line2d_26">
      <path clip-path="url(#p259d96f9d8)" d="M 32.794938 123.885201 
L 389.914938 123.885201 
" style="fill:none;stroke:#ffffff;stroke-width:0.5;"/>
     </g>
    </g>
    <g id="ytick_10">
     <g id="line2d_27">
      <path clip-path="url(#p259d96f9d8)" d="M 32.794938 77.145706 
L 389.914938 77.145706 
" style="fill:none;stroke:#ffffff;stroke-width:0.5;"/>
     </g>
    </g>
    <g id="ytick_11">
     <g id="line2d_28">
      <path clip-path="url(#p259d96f9d8)" d="M 32.794938 30.406212 
L 389.914938 30.406212 
" style="fill:none;stroke:#ffffff;stroke-width:0.5;"/>
     </g>
    </g>
    <g id="text_11">
     <!-- t -->
     <g transform="translate(15.558281 140.684172)rotate(-90)scale(0.11 -0.11)">
      <defs>
       <path d="M 18.3125 70.21875 
L 18.3125 54.6875 
L 36.8125 54.6875 
L 36.8125 47.703125 
L 18.3125 47.703125 
L 18.3125 18.015625 
Q 18.3125 11.328125 20.140625 9.421875 
Q 21.96875 7.515625 27.59375 7.515625 
L 36.8125 7.515625 
L 36.8125 0 
L 27.59375 0 
Q 17.1875 0 13.234375 3.875 
Q 9.28125 7.765625 9.28125 18.015625 
L 9.28125 47.703125 
L 2.6875 47.703125 
L 2.6875 54.6875 
L 9.28125 54.6875 
L 9.28125 70.21875 
z
" id="DejaVuSans-116"/>
      </defs>
      <use xlink:href="#DejaVuSans-116"/>
     </g>
    </g>
   </g>
   <g id="PathCollection_1">
    <path clip-path="url(#p259d96f9d8)" d="M 49.027665 21.068454 
C 49.497725 21.068454 49.948596 20.881697 50.280979 20.549314 
C 50.613362 20.216931 50.800119 19.76606 50.800119 19.296 
C 50.800119 18.82594 50.613362 18.375069 50.280979 18.042686 
C 49.948596 17.710303 49.497725 17.523546 49.027665 17.523546 
C 48.557605 17.523546 48.106733 17.710303 47.774351 18.042686 
C 47.441968 18.375069 47.255211 18.82594 47.255211 19.296 
C 47.255211 19.76606 47.441968 20.216931 47.774351 20.549314 
C 48.106733 20.881697 48.557605 21.068454 49.027665 21.068454 
z
" style="stroke:#000000;stroke-width:0.886227;"/>
    <path clip-path="url(#p259d96f9d8)" d="M 95.406886 212.037297 
C 95.876946 212.037297 96.327817 211.85054 96.6602 211.518157 
C 96.992582 211.185774 97.179339 210.734903 97.179339 210.264843 
C 97.179339 209.794783 96.992582 209.343912 96.6602 209.011529 
C 96.327817 208.679146 95.876946 208.492389 95.406886 208.492389 
C 94.936825 208.492389 94.485954 208.679146 94.153571 209.011529 
C 93.821189 209.343912 93.634432 209.794783 93.634432 210.264843 
C 93.634432 210.734903 93.821189 211.185774 94.153571 211.518157 
C 94.485954 211.85054 94.936825 212.037297 95.406886 212.037297 
z
" style="stroke:#000000;stroke-width:0.886227;"/>
    <path clip-path="url(#p259d96f9d8)" d="M 141.786106 250.631874 
C 142.256167 250.631874 142.707038 250.445117 143.03942 250.112735 
C 143.371803 249.780352 143.55856 249.329481 143.55856 248.85942 
C 143.55856 248.38936 143.371803 247.938489 143.03942 247.606106 
C 142.707038 247.273724 142.256167 247.086967 141.786106 247.086967 
C 141.316046 247.086967 140.865175 247.273724 140.532792 247.606106 
C 140.200409 247.938489 140.013652 248.38936 140.013652 248.85942 
C 140.013652 249.329481 140.200409 249.780352 140.532792 250.112735 
C 140.865175 250.445117 141.316046 250.631874 141.786106 250.631874 
z
" style="stroke:#000000;stroke-width:0.886227;"/>
    <path clip-path="url(#p259d96f9d8)" d="M 188.165327 262.988454 
C 188.635387 262.988454 189.086258 262.801697 189.418641 262.469314 
C 189.751024 262.136931 189.937781 261.68606 189.937781 261.216 
C 189.937781 260.74594 189.751024 260.295069 189.418641 259.962686 
C 189.086258 259.630303 188.635387 259.443546 188.165327 259.443546 
C 187.695267 259.443546 187.244396 259.630303 186.912013 259.962686 
C 186.57963 260.295069 186.392873 260.74594 186.392873 261.216 
C 186.392873 261.68606 186.57963 262.136931 186.912013 262.469314 
C 187.244396 262.801697 187.695267 262.988454 188.165327 262.988454 
z
" style="stroke:#000000;stroke-width:0.886227;"/>
    <path clip-path="url(#p259d96f9d8)" d="M 234.544548 249.11418 
C 235.014608 249.11418 235.465479 248.927423 235.797862 248.59504 
C 236.130245 248.262658 236.317002 247.811786 236.317002 247.341726 
C 236.317002 246.871666 236.130245 246.420795 235.797862 246.088412 
C 235.465479 245.756029 235.014608 245.569272 234.544548 245.569272 
C 234.074488 245.569272 233.623617 245.756029 233.291234 246.088412 
C 232.958851 246.420795 232.772094 246.871666 232.772094 247.341726 
C 232.772094 247.811786 232.958851 248.262658 233.291234 248.59504 
C 233.623617 248.927423 234.074488 249.11418 234.544548 249.11418 
z
" style="stroke:#000000;stroke-width:0.886227;"/>
    <path clip-path="url(#p259d96f9d8)" d="M 280.923769 237.139494 
C 281.393829 237.139494 281.8447 236.952737 282.177083 236.620354 
C 282.509466 236.287971 282.696223 235.8371 282.696223 235.36704 
C 282.696223 234.89698 282.509466 234.446109 282.177083 234.113726 
C 281.8447 233.781343 281.393829 233.594586 280.923769 233.594586 
C 280.453708 233.594586 280.002837 233.781343 279.670455 234.113726 
C 279.338072 234.446109 279.151315 234.89698 279.151315 235.36704 
C 279.151315 235.8371 279.338072 236.287971 279.670455 236.620354 
C 280.002837 236.952737 280.453708 237.139494 280.923769 237.139494 
z
" style="stroke:#000000;stroke-width:0.886227;"/>
    <path clip-path="url(#p259d96f9d8)" d="M 327.302989 235.736975 
C 327.77305 235.736975 328.223921 235.550218 328.556304 235.217835 
C 328.888686 234.885453 329.075443 234.434581 329.075443 233.964521 
C 329.075443 233.494461 328.888686 233.04359 328.556304 232.711207 
C 328.223921 232.378824 327.77305 232.192067 327.302989 232.192067 
C 326.832929 232.192067 326.382058 232.378824 326.049675 232.711207 
C 325.717293 233.04359 325.530536 233.494461 325.530536 233.964521 
C 325.530536 234.434581 325.717293 234.885453 326.049675 235.217835 
C 326.382058 235.550218 326.832929 235.736975 327.302989 235.736975 
z
" style="stroke:#000000;stroke-width:0.886227;"/>
    <path clip-path="url(#p259d96f9d8)" d="M 373.68221 220.960963 
C 374.15227 220.960963 374.603142 220.774206 374.935524 220.441823 
C 375.267907 220.109441 375.454664 219.65857 375.454664 219.188509 
C 375.454664 218.718449 375.267907 218.267578 374.935524 217.935195 
C 374.603142 217.602812 374.15227 217.416055 373.68221 217.416055 
C 373.21215 217.416055 372.761279 217.602812 372.428896 217.935195 
C 372.096513 218.267578 371.909756 218.718449 371.909756 219.188509 
C 371.909756 219.65857 372.096513 220.109441 372.428896 220.441823 
C 372.761279 220.774206 373.21215 220.960963 373.68221 220.960963 
z
" style="stroke:#000000;stroke-width:0.886227;"/>
   </g>
   <g id="line2d_29">
    <path clip-path="url(#p259d96f9d8)" d="M 49.027665 19.296 
L 95.406886 210.264843 
L 141.786106 248.85942 
L 188.165327 261.216 
L 234.544548 247.341726 
L 280.923769 235.36704 
L 327.302989 233.964521 
L 373.68221 219.188509 
" style="fill:none;stroke:#000000;stroke-width:0.886227;"/>
   </g>
  </g>
 </g>
 <defs>
  <clipPath id="p259d96f9d8">
   <rect height="266.112" width="357.12" x="32.794938" y="7.2"/>
  </clipPath>
 </defs>
</svg>
