<?xml version="1.0" encoding="UTF-8" standalone="no"?>
<!DOCTYPE svg PUBLIC "-//W3C//DTD SVG 1.1//EN"
 "http://www.w3.org/Graphics/SVG/1.1/DTD/svg11.dtd">
<!-- Generated by graphviz version 2.42.4 (0)
 -->
<!-- Pages: 1 -->
<svg width="728pt" height="526pt"
 viewBox="0.00 0.00 728.29 526.48" xmlns="http://www.w3.org/2000/svg" xmlns:xlink="http://www.w3.org/1999/xlink">
<g id="graph0" class="graph" transform="scale(1 1) rotate(0) translate(4 522.48)">
<polygon fill="white" stroke="transparent" points="-4,4 -4,-522.48 724.29,-522.48 724.29,4 -4,4"/>
<!-- &#45;2907613687204903219 -->
<g id="node1" class="node">
<title>&#45;2907613687204903219</title>
<polygon fill="none" stroke="black" points="79.65,-36 25.65,-36 25.65,0 79.65,0 79.65,-36"/>
<text text-anchor="middle" x="52.65" y="-14.3" font-family="Times,serif" font-size="14.00">0</text>
</g>
<!-- 374018441088934203 -->
<g id="node7" class="node">
<title>374018441088934203</title>
<ellipse fill="none" stroke="black" cx="52.65" cy="-124.65" rx="52.79" ry="52.79"/>
<text text-anchor="middle" x="52.65" y="-120.95" font-family="Times,serif" font-size="14.00">sum&#45;part</text>
</g>
<!-- &#45;2907613687204903219&#45;&gt;374018441088934203 -->
<g id="edge2" class="edge">
<title>&#45;2907613687204903219&#45;&gt;374018441088934203</title>
<path fill="none" stroke="black" d="M52.65,-36.28C52.65,-43.53 52.65,-52.43 52.65,-61.76"/>
<polygon fill="black" stroke="black" points="49.15,-61.99 52.65,-71.99 56.15,-61.99 49.15,-61.99"/>
</g>
<!-- 3600027068897095206 -->
<g id="node2" class="node">
<title>3600027068897095206</title>
<polygon fill="none" stroke="black" points="202.65,-36 148.65,-36 148.65,0 202.65,0 202.65,-36"/>
<text text-anchor="middle" x="175.65" y="-14.3" font-family="Times,serif" font-size="14.00">1</text>
</g>
<!-- &#45;5706267048770852090 -->
<g id="node9" class="node">
<title>&#45;5706267048770852090</title>
<ellipse fill="none" stroke="black" cx="175.65" cy="-124.65" rx="52.79" ry="52.79"/>
<text text-anchor="middle" x="175.65" y="-120.95" font-family="Times,serif" font-size="14.00">sum&#45;part</text>
</g>
<!-- 3600027068897095206&#45;&gt;&#45;5706267048770852090 -->
<g id="edge4" class="edge">
<title>3600027068897095206&#45;&gt;&#45;5706267048770852090</title>
<path fill="none" stroke="black" d="M175.65,-36.28C175.65,-43.53 175.65,-52.43 175.65,-61.76"/>
<polygon fill="black" stroke="black" points="172.15,-61.99 175.65,-71.99 179.15,-61.99 172.15,-61.99"/>
</g>
<!-- &#45;1293046960075601160 -->
<g id="node3" class="node">
<title>&#45;1293046960075601160</title>
<polygon fill="none" stroke="black" points="325.65,-36 271.65,-36 271.65,0 325.65,0 325.65,-36"/>
<text text-anchor="middle" x="298.65" y="-14.3" font-family="Times,serif" font-size="14.00">2</text>
</g>
<!-- &#45;1466947876331959482 -->
<g id="node11" class="node">
<title>&#45;1466947876331959482</title>
<ellipse fill="none" stroke="black" cx="298.65" cy="-124.65" rx="52.79" ry="52.79"/>
<text text-anchor="middle" x="298.65" y="-120.95" font-family="Times,serif" font-size="14.00">sum&#45;part</text>
</g>
<!-- &#45;1293046960075601160&#45;&gt;&#45;1466947876331959482 -->
<g id="edge6" class="edge">
<title>&#45;1293046960075601160&#45;&gt;&#45;1466947876331959482</title>
<path fill="none" stroke="black" d="M298.65,-36.28C298.65,-43.53 298.65,-52.43 298.65,-61.76"/>
<polygon fill="black" stroke="black" points="295.15,-61.99 298.65,-71.99 302.15,-61.99 295.15,-61.99"/>
</g>
<!-- 816236413042029137 -->
<g id="node4" class="node">
<title>816236413042029137</title>
<polygon fill="none" stroke="black" points="448.65,-36 394.65,-36 394.65,0 448.65,0 448.65,-36"/>
<text text-anchor="middle" x="421.65" y="-14.3" font-family="Times,serif" font-size="14.00">3</text>
</g>
<!-- 5617774334239733093 -->
<g id="node13" class="node">
<title>5617774334239733093</title>
<ellipse fill="none" stroke="black" cx="421.65" cy="-124.65" rx="52.79" ry="52.79"/>
<text text-anchor="middle" x="421.65" y="-120.95" font-family="Times,serif" font-size="14.00">sum&#45;part</text>
</g>
<!-- 816236413042029137&#45;&gt;5617774334239733093 -->
<g id="edge8" class="edge">
<title>816236413042029137&#45;&gt;5617774334239733093</title>
<path fill="none" stroke="black" d="M421.65,-36.28C421.65,-43.53 421.65,-52.43 421.65,-61.76"/>
<polygon fill="black" stroke="black" points="418.15,-61.99 421.65,-71.99 425.15,-61.99 418.15,-61.99"/>
</g>
<!-- &#45;4076837615930667229 -->
<g id="node5" class="node">
<title>&#45;4076837615930667229</title>
<polygon fill="none" stroke="black" points="571.65,-36 517.65,-36 517.65,0 571.65,0 571.65,-36"/>
<text text-anchor="middle" x="544.65" y="-14.3" font-family="Times,serif" font-size="14.00">4</text>
</g>
<!-- &#45;7257432752207471341 -->
<g id="node15" class="node">
<title>&#45;7257432752207471341</title>
<ellipse fill="none" stroke="black" cx="544.65" cy="-124.65" rx="52.79" ry="52.79"/>
<text text-anchor="middle" x="544.65" y="-120.95" font-family="Times,serif" font-size="14.00">sum&#45;part</text>
</g>
<!-- &#45;4076837615930667229&#45;&gt;&#45;7257432752207471341 -->
<g id="edge10" class="edge">
<title>&#45;4076837615930667229&#45;&gt;&#45;7257432752207471341</title>
<path fill="none" stroke="black" d="M544.65,-36.28C544.65,-43.53 544.65,-52.43 544.65,-61.76"/>
<polygon fill="black" stroke="black" points="541.15,-61.99 544.65,-71.99 548.15,-61.99 541.15,-61.99"/>
</g>
<!-- 2430803140171331196 -->
<g id="node6" class="node">
<title>2430803140171331196</title>
<polygon fill="none" stroke="black" points="694.65,-36 640.65,-36 640.65,0 694.65,0 694.65,-36"/>
<text text-anchor="middle" x="667.65" y="-14.3" font-family="Times,serif" font-size="14.00">5</text>
</g>
<!-- 3776808016818839408 -->
<g id="node17" class="node">
<title>3776808016818839408</title>
<ellipse fill="none" stroke="black" cx="667.65" cy="-124.65" rx="52.79" ry="52.79"/>
<text text-anchor="middle" x="667.65" y="-120.95" font-family="Times,serif" font-size="14.00">sum&#45;part</text>
</g>
<!-- 2430803140171331196&#45;&gt;3776808016818839408 -->
<g id="edge12" class="edge">
<title>2430803140171331196&#45;&gt;3776808016818839408</title>
<path fill="none" stroke="black" d="M667.65,-36.28C667.65,-43.53 667.65,-52.43 667.65,-61.76"/>
<polygon fill="black" stroke="black" points="664.15,-61.99 667.65,-71.99 671.15,-61.99 664.15,-61.99"/>
</g>
<!-- &#45;121557675554628928 -->
<g id="node8" class="node">
<title>&#45;121557675554628928</title>
<polygon fill="none" stroke="black" points="130.65,-249.29 76.65,-249.29 76.65,-213.29 130.65,-213.29 130.65,-249.29"/>
<text text-anchor="middle" x="103.65" y="-227.59" font-family="Times,serif" font-size="14.00">0</text>
</g>
<!-- 374018441088934203&#45;&gt;&#45;121557675554628928 -->
<g id="edge1" class="edge">
<title>374018441088934203&#45;&gt;&#45;121557675554628928</title>
<path fill="none" stroke="black" d="M75.46,-172.46C80.75,-183.32 86.2,-194.49 90.88,-204.09"/>
<polygon fill="black" stroke="black" points="87.74,-205.64 95.26,-213.09 94.03,-202.57 87.74,-205.64"/>
</g>
<!-- &#45;1252734993571050614 -->
<g id="node19" class="node">
<title>&#45;1252734993571050614</title>
<ellipse fill="none" stroke="black" cx="359.65" cy="-365.88" rx="80.69" ry="80.69"/>
<text text-anchor="middle" x="359.65" y="-362.18" font-family="Times,serif" font-size="14.00">sum&#45;aggregate</text>
</g>
<!-- &#45;121557675554628928&#45;&gt;&#45;1252734993571050614 -->
<g id="edge14" class="edge">
<title>&#45;121557675554628928&#45;&gt;&#45;1252734993571050614</title>
<path fill="none" stroke="black" d="M131.04,-246.48C166.15,-264.66 228.52,-296.97 279.26,-323.25"/>
<polygon fill="black" stroke="black" points="277.78,-326.42 288.27,-327.91 281,-320.21 277.78,-326.42"/>
</g>
<!-- 1987725697563001369 -->
<g id="node10" class="node">
<title>1987725697563001369</title>
<polygon fill="none" stroke="black" points="253.65,-249.29 199.65,-249.29 199.65,-213.29 253.65,-213.29 253.65,-249.29"/>
<text text-anchor="middle" x="226.65" y="-227.59" font-family="Times,serif" font-size="14.00">1</text>
</g>
<!-- &#45;5706267048770852090&#45;&gt;1987725697563001369 -->
<g id="edge3" class="edge">
<title>&#45;5706267048770852090&#45;&gt;1987725697563001369</title>
<path fill="none" stroke="black" d="M198.46,-172.46C203.75,-183.32 209.2,-194.49 213.88,-204.09"/>
<polygon fill="black" stroke="black" points="210.74,-205.64 218.26,-213.09 217.03,-202.57 210.74,-205.64"/>
</g>
<!-- 1987725697563001369&#45;&gt;&#45;1252734993571050614 -->
<g id="edge19" class="edge">
<title>1987725697563001369&#45;&gt;&#45;1252734993571050614</title>
<path fill="none" stroke="black" d="M243.76,-249.35C257.07,-262.63 276.44,-281.93 295.54,-300.97"/>
<polygon fill="black" stroke="black" points="293.28,-303.66 302.83,-308.24 298.22,-298.7 293.28,-303.66"/>
</g>
<!-- &#45;2905348331409694997 -->
<g id="node12" class="node">
<title>&#45;2905348331409694997</title>
<polygon fill="none" stroke="black" points="350.65,-249.29 296.65,-249.29 296.65,-213.29 350.65,-213.29 350.65,-249.29"/>
<text text-anchor="middle" x="323.65" y="-227.59" font-family="Times,serif" font-size="14.00">2</text>
</g>
<!-- &#45;1466947876331959482&#45;&gt;&#45;2905348331409694997 -->
<g id="edge5" class="edge">
<title>&#45;1466947876331959482&#45;&gt;&#45;2905348331409694997</title>
<path fill="none" stroke="black" d="M310.71,-176.13C312.95,-185.54 315.22,-195.02 317.21,-203.37"/>
<polygon fill="black" stroke="black" points="313.85,-204.33 319.57,-213.24 320.65,-202.71 313.85,-204.33"/>
</g>
<!-- &#45;2905348331409694997&#45;&gt;&#45;1252734993571050614 -->
<g id="edge16" class="edge">
<title>&#45;2905348331409694997&#45;&gt;&#45;1252734993571050614</title>
<path fill="none" stroke="black" d="M328.28,-249.35C330.42,-257.25 333.15,-267.29 336.09,-278.13"/>
<polygon fill="black" stroke="black" points="332.73,-279.1 338.73,-287.83 339.48,-277.27 332.73,-279.1"/>
</g>
<!-- 3602292424692303428 -->
<g id="node14" class="node">
<title>3602292424692303428</title>
<polygon fill="none" stroke="black" points="435.65,-249.29 381.65,-249.29 381.65,-213.29 435.65,-213.29 435.65,-249.29"/>
<text text-anchor="middle" x="408.65" y="-227.59" font-family="Times,serif" font-size="14.00">3</text>
</g>
<!-- 5617774334239733093&#45;&gt;3602292424692303428 -->
<g id="edge7" class="edge">
<title>5617774334239733093&#45;&gt;3602292424692303428</title>
<path fill="none" stroke="black" d="M415.26,-177.05C414.15,-186 413.03,-194.99 412.04,-202.97"/>
<polygon fill="black" stroke="black" points="408.54,-202.77 410.78,-213.12 415.48,-203.63 408.54,-202.77"/>
</g>
<!-- 3602292424692303428&#45;&gt;&#45;1252734993571050614 -->
<g id="edge15" class="edge">
<title>3602292424692303428&#45;&gt;&#45;1252734993571050614</title>
<path fill="none" stroke="black" d="M402.34,-249.35C399.22,-257.8 395.2,-268.68 390.87,-280.39"/>
<polygon fill="black" stroke="black" points="387.53,-279.33 387.35,-289.92 394.1,-281.75 387.53,-279.33"/>
</g>
<!-- &#45;1290781604280392938 -->
<g id="node16" class="node">
<title>&#45;1290781604280392938</title>
<polygon fill="none" stroke="black" points="539.65,-249.29 485.65,-249.29 485.65,-213.29 539.65,-213.29 539.65,-249.29"/>
<text text-anchor="middle" x="512.65" y="-227.59" font-family="Times,serif" font-size="14.00">4</text>
</g>
<!-- &#45;7257432752207471341&#45;&gt;&#45;1290781604280392938 -->
<g id="edge9" class="edge">
<title>&#45;7257432752207471341&#45;&gt;&#45;1290781604280392938</title>
<path fill="none" stroke="black" d="M529.49,-175.21C526.55,-184.82 523.57,-194.56 520.95,-203.12"/>
<polygon fill="black" stroke="black" points="517.54,-202.31 517.97,-212.89 524.24,-204.35 517.54,-202.31"/>
</g>
<!-- &#45;1290781604280392938&#45;&gt;&#45;1252734993571050614 -->
<g id="edge18" class="edge">
<title>&#45;1290781604280392938&#45;&gt;&#45;1252734993571050614</title>
<path fill="none" stroke="black" d="M492.96,-249.35C476.35,-263.74 451.57,-285.22 427.86,-305.77"/>
<polygon fill="black" stroke="black" points="425.47,-303.2 420.21,-312.4 430.06,-308.49 425.47,-303.2"/>
</g>
<!-- 818501768837237359 -->
<g id="node18" class="node">
<title>818501768837237359</title>
<polygon fill="none" stroke="black" points="652.65,-249.29 598.65,-249.29 598.65,-213.29 652.65,-213.29 652.65,-249.29"/>
<text text-anchor="middle" x="625.65" y="-227.59" font-family="Times,serif" font-size="14.00">5</text>
</g>
<!-- 3776808016818839408&#45;&gt;818501768837237359 -->
<g id="edge11" class="edge">
<title>3776808016818839408&#45;&gt;818501768837237359</title>
<path fill="none" stroke="black" d="M648.37,-173.68C644.29,-183.83 640.13,-194.2 636.5,-203.24"/>
<polygon fill="black" stroke="black" points="633.14,-202.22 632.66,-212.8 639.64,-204.82 633.14,-202.22"/>
</g>
<!-- 818501768837237359&#45;&gt;&#45;1252734993571050614 -->
<g id="edge17" class="edge">
<title>818501768837237359&#45;&gt;&#45;1252734993571050614</title>
<path fill="none" stroke="black" d="M598.18,-245.98C561.35,-264.34 494.39,-297.72 440.77,-324.44"/>
<polygon fill="black" stroke="black" points="439,-321.42 431.61,-329.01 442.12,-327.68 439,-321.42"/>
</g>
<!-- &#45;136069482992778407 -->
<g id="node20" class="node">
<title>&#45;136069482992778407</title>
<polygon fill="none" stroke="black" points="386.65,-518.48 332.65,-518.48 332.65,-482.48 386.65,-482.48 386.65,-518.48"/>
</g>
<!-- &#45;1252734993571050614&#45;&gt;&#45;136069482992778407 -->
<g id="edge13" class="edge">
<title>&#45;1252734993571050614&#45;&gt;&#45;136069482992778407</title>
<path fill="none" stroke="black" d="M359.65,-446.69C359.65,-455.79 359.65,-464.53 359.65,-472.19"/>
<polygon fill="black" stroke="black" points="356.15,-472.23 359.65,-482.23 363.15,-472.23 356.15,-472.23"/>
</g>
</g>
</svg>
