<?xml version="1.0" encoding="UTF-8" standalone="no"?>
<!DOCTYPE svg PUBLIC "-//W3C//DTD SVG 1.1//EN"
 "http://www.w3.org/Graphics/SVG/1.1/DTD/svg11.dtd">
<!-- Generated by graphviz version 2.42.4 (0)
 -->
<!-- Pages: 1 -->
<svg width="1070pt" height="361pt"
 viewBox="0.00 0.00 1069.69 360.88" xmlns="http://www.w3.org/2000/svg" xmlns:xlink="http://www.w3.org/1999/xlink">
<g id="graph0" class="graph" transform="scale(1 1) rotate(0) translate(4 356.88)">
<polygon fill="white" stroke="transparent" points="-4,4 -4,-356.88 1065.69,-356.88 1065.69,4 -4,4"/>
<!-- &#45;5384891776223075350 -->
<g id="node1" class="node">
<title>&#45;5384891776223075350</title>
<ellipse fill="none" stroke="black" cx="530.85" cy="-239.29" rx="41.69" ry="41.69"/>
<text text-anchor="middle" x="530.85" y="-235.59" font-family="Times,serif" font-size="14.00">gather</text>
</g>
<!-- 2777078867720005258 -->
<g id="node2" class="node">
<title>2777078867720005258</title>
<polygon fill="none" stroke="black" points="557.85,-352.88 503.85,-352.88 503.85,-316.88 557.85,-316.88 557.85,-352.88"/>
</g>
<!-- &#45;5384891776223075350&#45;&gt;2777078867720005258 -->
<g id="edge1" class="edge">
<title>&#45;5384891776223075350&#45;&gt;2777078867720005258</title>
<path fill="none" stroke="black" d="M530.85,-281.07C530.85,-289.6 530.85,-298.41 530.85,-306.33"/>
<polygon fill="black" stroke="black" points="527.35,-306.46 530.85,-316.46 534.35,-306.46 527.35,-306.46"/>
</g>
<!-- &#45;5922521603241784352 -->
<g id="node3" class="node">
<title>&#45;5922521603241784352</title>
<polygon fill="none" stroke="black" points="107.85,-161.69 53.85,-161.69 53.85,-125.69 107.85,-125.69 107.85,-161.69"/>
</g>
<!-- &#45;5922521603241784352&#45;&gt;&#45;5384891776223075350 -->
<g id="edge2" class="edge">
<title>&#45;5922521603241784352&#45;&gt;&#45;5384891776223075350</title>
<path fill="none" stroke="black" d="M107.87,-153.86C116.44,-156.59 125.99,-159.45 134.85,-161.69 257.22,-192.68 403.61,-218.01 479.51,-230.28"/>
<polygon fill="black" stroke="black" points="479.32,-233.79 489.75,-231.93 480.43,-226.88 479.32,-233.79"/>
</g>
<!-- &#45;8108479751608290718 -->
<g id="node4" class="node">
<title>&#45;8108479751608290718</title>
<polygon fill="none" stroke="black" points="197.85,-161.69 143.85,-161.69 143.85,-125.69 197.85,-125.69 197.85,-161.69"/>
</g>
<!-- &#45;8108479751608290718&#45;&gt;&#45;5384891776223075350 -->
<g id="edge3" class="edge">
<title>&#45;8108479751608290718&#45;&gt;&#45;5384891776223075350</title>
<path fill="none" stroke="black" d="M197.9,-151.73C258,-167.35 403.36,-205.14 480.62,-225.23"/>
<polygon fill="black" stroke="black" points="480.04,-228.7 490.6,-227.82 481.8,-221.92 480.04,-228.7"/>
</g>
<!-- 5479105380015954531 -->
<g id="node5" class="node">
<title>5479105380015954531</title>
<polygon fill="none" stroke="black" points="305.85,-161.69 251.85,-161.69 251.85,-125.69 305.85,-125.69 305.85,-161.69"/>
</g>
<!-- 5479105380015954531&#45;&gt;&#45;5384891776223075350 -->
<g id="edge4" class="edge">
<title>5479105380015954531&#45;&gt;&#45;5384891776223075350</title>
<path fill="none" stroke="black" d="M306.29,-154.89C348.57,-170.59 430.18,-200.9 482.51,-220.33"/>
<polygon fill="black" stroke="black" points="481.33,-223.63 491.92,-223.83 483.76,-217.07 481.33,-223.63"/>
</g>
<!-- &#45;8414694194376649275 -->
<g id="node6" class="node">
<title>&#45;8414694194376649275</title>
<polygon fill="none" stroke="black" points="413.85,-161.69 359.85,-161.69 359.85,-125.69 413.85,-125.69 413.85,-161.69"/>
</g>
<!-- &#45;8414694194376649275&#45;&gt;&#45;5384891776223075350 -->
<g id="edge5" class="edge">
<title>&#45;8414694194376649275&#45;&gt;&#45;5384891776223075350</title>
<path fill="none" stroke="black" d="M413.26,-161.86C434.01,-175.35 463.35,-194.42 487.53,-210.13"/>
<polygon fill="black" stroke="black" points="485.89,-213.24 496.18,-215.76 489.7,-207.37 485.89,-213.24"/>
</g>
<!-- 8888997781622792645 -->
<g id="node7" class="node">
<title>8888997781622792645</title>
<polygon fill="none" stroke="black" points="512.85,-161.69 458.85,-161.69 458.85,-125.69 512.85,-125.69 512.85,-161.69"/>
</g>
<!-- 8888997781622792645&#45;&gt;&#45;5384891776223075350 -->
<g id="edge6" class="edge">
<title>8888997781622792645&#45;&gt;&#45;5384891776223075350</title>
<path fill="none" stroke="black" d="M494.1,-161.86C498.26,-170.52 503.53,-181.47 508.77,-192.37"/>
<polygon fill="black" stroke="black" points="505.65,-193.96 513.14,-201.45 511.96,-190.92 505.65,-193.96"/>
</g>
<!-- 2114140729878631271 -->
<g id="node8" class="node">
<title>2114140729878631271</title>
<polygon fill="none" stroke="black" points="602.85,-161.69 548.85,-161.69 548.85,-125.69 602.85,-125.69 602.85,-161.69"/>
</g>
<!-- 2114140729878631271&#45;&gt;&#45;5384891776223075350 -->
<g id="edge7" class="edge">
<title>2114140729878631271&#45;&gt;&#45;5384891776223075350</title>
<path fill="none" stroke="black" d="M567.59,-161.86C563.43,-170.52 558.16,-181.47 552.92,-192.37"/>
<polygon fill="black" stroke="black" points="549.74,-190.92 548.56,-201.45 556.04,-193.96 549.74,-190.92"/>
</g>
<!-- 4410751920896978381 -->
<g id="node9" class="node">
<title>4410751920896978381</title>
<polygon fill="none" stroke="black" points="701.85,-161.69 647.85,-161.69 647.85,-125.69 701.85,-125.69 701.85,-161.69"/>
</g>
<!-- 4410751920896978381&#45;&gt;&#45;5384891776223075350 -->
<g id="edge8" class="edge">
<title>4410751920896978381&#45;&gt;&#45;5384891776223075350</title>
<path fill="none" stroke="black" d="M648.43,-161.86C627.68,-175.35 598.34,-194.42 574.16,-210.13"/>
<polygon fill="black" stroke="black" points="571.99,-207.37 565.51,-215.76 575.8,-213.24 571.99,-207.37"/>
</g>
<!-- 4481236137387270226 -->
<g id="node10" class="node">
<title>4481236137387270226</title>
<polygon fill="none" stroke="black" points="804.85,-161.69 750.85,-161.69 750.85,-125.69 804.85,-125.69 804.85,-161.69"/>
</g>
<!-- 4481236137387270226&#45;&gt;&#45;5384891776223075350 -->
<g id="edge9" class="edge">
<title>4481236137387270226&#45;&gt;&#45;5384891776223075350</title>
<path fill="none" stroke="black" d="M750.47,-155.07C709.17,-170.72 630.34,-200.59 579.21,-219.96"/>
<polygon fill="black" stroke="black" points="577.8,-216.75 569.69,-223.57 580.28,-223.3 577.8,-216.75"/>
</g>
<!-- 6742143628663355795 -->
<g id="node11" class="node">
<title>6742143628663355795</title>
<polygon fill="none" stroke="black" points="910.85,-161.69 856.85,-161.69 856.85,-125.69 910.85,-125.69 910.85,-161.69"/>
</g>
<!-- 6742143628663355795&#45;&gt;&#45;5384891776223075350 -->
<g id="edge10" class="edge">
<title>6742143628663355795&#45;&gt;&#45;5384891776223075350</title>
<path fill="none" stroke="black" d="M856.73,-151.88C797.63,-167.55 656.46,-204.98 580.78,-225.05"/>
<polygon fill="black" stroke="black" points="579.76,-221.7 570.99,-227.64 581.56,-228.46 579.76,-221.7"/>
</g>
<!-- 963877585277307860 -->
<g id="node12" class="node">
<title>963877585277307860</title>
<polygon fill="none" stroke="black" points="1017.85,-161.69 963.85,-161.69 963.85,-125.69 1017.85,-125.69 1017.85,-161.69"/>
</g>
<!-- 963877585277307860&#45;&gt;&#45;5384891776223075350 -->
<g id="edge11" class="edge">
<title>963877585277307860&#45;&gt;&#45;5384891776223075350</title>
<path fill="none" stroke="black" d="M963.6,-151.49C950.41,-154.71 934.34,-158.53 919.85,-161.69 799.09,-188.03 656.36,-215.1 581.89,-228.92"/>
<polygon fill="black" stroke="black" points="581.04,-225.52 571.84,-230.78 582.31,-232.4 581.04,-225.52"/>
</g>
<!-- &#45;8468409666208896559 -->
<g id="node13" class="node">
<title>&#45;8468409666208896559</title>
<ellipse fill="none" stroke="black" cx="1016.85" cy="-44.85" rx="44.69" ry="44.69"/>
<text text-anchor="middle" x="1016.85" y="-41.15" font-family="Times,serif" font-size="14.00">lambda</text>
</g>
<!-- &#45;8468409666208896559&#45;&gt;963877585277307860 -->
<g id="edge12" class="edge">
<title>&#45;8468409666208896559&#45;&gt;963877585277307860</title>
<path fill="none" stroke="black" d="M1005.44,-88.32C1002.96,-97.57 1000.4,-107.12 998.13,-115.58"/>
<polygon fill="black" stroke="black" points="994.74,-114.7 995.52,-125.27 1001.5,-116.52 994.74,-114.7"/>
</g>
<!-- &#45;7222164242297645230 -->
<g id="node14" class="node">
<title>&#45;7222164242297645230</title>
<ellipse fill="none" stroke="black" cx="692.85" cy="-44.85" rx="44.69" ry="44.69"/>
<text text-anchor="middle" x="692.85" y="-41.15" font-family="Times,serif" font-size="14.00">lambda</text>
</g>
<!-- &#45;7222164242297645230&#45;&gt;4410751920896978381 -->
<g id="edge13" class="edge">
<title>&#45;7222164242297645230&#45;&gt;4410751920896978381</title>
<path fill="none" stroke="black" d="M684.79,-89.17C683.13,-98.13 681.42,-107.34 679.9,-115.52"/>
<polygon fill="black" stroke="black" points="676.41,-115.13 678.02,-125.6 683.29,-116.41 676.41,-115.13"/>
</g>
<!-- 8397785428550419706 -->
<g id="node15" class="node">
<title>8397785428550419706</title>
<ellipse fill="none" stroke="black" cx="368.85" cy="-44.85" rx="44.69" ry="44.69"/>
<text text-anchor="middle" x="368.85" y="-41.15" font-family="Times,serif" font-size="14.00">lambda</text>
</g>
<!-- 8397785428550419706&#45;&gt;&#45;8414694194376649275 -->
<g id="edge14" class="edge">
<title>8397785428550419706&#45;&gt;&#45;8414694194376649275</title>
<path fill="none" stroke="black" d="M376.9,-89.17C378.56,-98.13 380.27,-107.34 381.8,-115.52"/>
<polygon fill="black" stroke="black" points="378.4,-116.41 383.67,-125.6 385.28,-115.13 378.4,-116.41"/>
</g>
<!-- 8012155298297032011 -->
<g id="node16" class="node">
<title>8012155298297032011</title>
<ellipse fill="none" stroke="black" cx="584.85" cy="-44.85" rx="44.69" ry="44.69"/>
<text text-anchor="middle" x="584.85" y="-41.15" font-family="Times,serif" font-size="14.00">lambda</text>
</g>
<!-- 8012155298297032011&#45;&gt;2114140729878631271 -->
<g id="edge15" class="edge">
<title>8012155298297032011&#45;&gt;2114140729878631271</title>
<path fill="none" stroke="black" d="M580.77,-89.74C579.96,-98.41 579.14,-107.27 578.4,-115.21"/>
<polygon fill="black" stroke="black" points="574.9,-115.07 577.46,-125.35 581.87,-115.72 574.9,-115.07"/>
</g>
<!-- &#45;2590977049555310183 -->
<g id="node17" class="node">
<title>&#45;2590977049555310183</title>
<ellipse fill="none" stroke="black" cx="908.85" cy="-44.85" rx="44.69" ry="44.69"/>
<text text-anchor="middle" x="908.85" y="-41.15" font-family="Times,serif" font-size="14.00">lambda</text>
</g>
<!-- &#45;2590977049555310183&#45;&gt;6742143628663355795 -->
<g id="edge16" class="edge">
<title>&#45;2590977049555310183&#45;&gt;6742143628663355795</title>
<path fill="none" stroke="black" d="M897.81,-88.61C895.45,-97.73 893.03,-107.12 890.87,-115.47"/>
<polygon fill="black" stroke="black" points="887.43,-114.82 888.32,-125.38 894.2,-116.57 887.43,-114.82"/>
</g>
<!-- 6962752238925341029 -->
<g id="node18" class="node">
<title>6962752238925341029</title>
<ellipse fill="none" stroke="black" cx="152.85" cy="-44.85" rx="44.69" ry="44.69"/>
<text text-anchor="middle" x="152.85" y="-41.15" font-family="Times,serif" font-size="14.00">lambda</text>
</g>
<!-- 6962752238925341029&#45;&gt;&#45;8108479751608290718 -->
<g id="edge17" class="edge">
<title>6962752238925341029&#45;&gt;&#45;8108479751608290718</title>
<path fill="none" stroke="black" d="M160.9,-89.17C162.56,-98.13 164.27,-107.34 165.8,-115.52"/>
<polygon fill="black" stroke="black" points="162.4,-116.41 167.67,-125.6 169.28,-115.13 162.4,-116.41"/>
</g>
<!-- 9073364772025981137 -->
<g id="node19" class="node">
<title>9073364772025981137</title>
<ellipse fill="none" stroke="black" cx="800.85" cy="-44.85" rx="44.69" ry="44.69"/>
<text text-anchor="middle" x="800.85" y="-41.15" font-family="Times,serif" font-size="14.00">lambda</text>
</g>
<!-- 9073364772025981137&#45;&gt;4481236137387270226 -->
<g id="edge18" class="edge">
<title>9073364772025981137&#45;&gt;4481236137387270226</title>
<path fill="none" stroke="black" d="M790.69,-88.61C788.52,-97.73 786.29,-107.12 784.31,-115.47"/>
<polygon fill="black" stroke="black" points="780.86,-114.84 781.96,-125.38 787.67,-116.46 780.86,-114.84"/>
</g>
<!-- &#45;7638935495550904115 -->
<g id="node20" class="node">
<title>&#45;7638935495550904115</title>
<ellipse fill="none" stroke="black" cx="476.85" cy="-44.85" rx="44.69" ry="44.69"/>
<text text-anchor="middle" x="476.85" y="-41.15" font-family="Times,serif" font-size="14.00">lambda</text>
</g>
<!-- &#45;7638935495550904115&#45;&gt;8888997781622792645 -->
<g id="edge19" class="edge">
<title>&#45;7638935495550904115&#45;&gt;8888997781622792645</title>
<path fill="none" stroke="black" d="M480.92,-89.74C481.73,-98.41 482.55,-107.27 483.29,-115.21"/>
<polygon fill="black" stroke="black" points="479.82,-115.72 484.23,-125.35 486.79,-115.07 479.82,-115.72"/>
</g>
<!-- &#45;2965401055780010274 -->
<g id="node21" class="node">
<title>&#45;2965401055780010274</title>
<ellipse fill="none" stroke="black" cx="44.85" cy="-44.85" rx="44.69" ry="44.69"/>
<text text-anchor="middle" x="44.85" y="-41.15" font-family="Times,serif" font-size="14.00">lambda</text>
</g>
<!-- &#45;2965401055780010274&#45;&gt;&#45;5922521603241784352 -->
<g id="edge20" class="edge">
<title>&#45;2965401055780010274&#45;&gt;&#45;5922521603241784352</title>
<path fill="none" stroke="black" d="M60.22,-87.2C63.83,-96.91 67.58,-107.01 70.88,-115.89"/>
<polygon fill="black" stroke="black" points="67.62,-117.16 74.38,-125.31 74.18,-114.72 67.62,-117.16"/>
</g>
<!-- 5438177113825537901 -->
<g id="node22" class="node">
<title>5438177113825537901</title>
<ellipse fill="none" stroke="black" cx="260.85" cy="-44.85" rx="44.69" ry="44.69"/>
<text text-anchor="middle" x="260.85" y="-41.15" font-family="Times,serif" font-size="14.00">lambda</text>
</g>
<!-- 5438177113825537901&#45;&gt;5479105380015954531 -->
<g id="edge21" class="edge">
<title>5438177113825537901&#45;&gt;5479105380015954531</title>
<path fill="none" stroke="black" d="M268.9,-89.17C270.56,-98.13 272.27,-107.34 273.8,-115.52"/>
<polygon fill="black" stroke="black" points="270.4,-116.41 275.67,-125.6 277.28,-115.13 270.4,-116.41"/>
</g>
</g>
</svg>
