<?xml version="1.0" encoding="UTF-8" standalone="no"?>
<!DOCTYPE svg PUBLIC "-//W3C//DTD SVG 1.1//EN"
 "http://www.w3.org/Graphics/SVG/1.1/DTD/svg11.dtd">
<!-- Generated by graphviz version 2.42.3 (20191010.1750)
 -->
<!-- Title: snakemake_dag Pages: 1 -->
<svg width="148pt" height="260pt"
 viewBox="0.00 0.00 147.50 260.00" xmlns="http://www.w3.org/2000/svg" xmlns:xlink="http://www.w3.org/1999/xlink">
<g id="graph0" class="graph" transform="scale(1 1) rotate(0) translate(4 256)">
<title>snakemake_dag</title>
<polygon fill="white" stroke="transparent" points="-4,4 -4,-256 143.5,-256 143.5,4 -4,4"/>
<!-- 0 -->
<g id="node1" class="node">
<title>0</title>
<path fill="none" stroke="#d6d856" stroke-width="2" stroke-dasharray="5,2" d="M70,-36C70,-36 40,-36 40,-36 34,-36 28,-30 28,-24 28,-24 28,-12 28,-12 28,-6 34,0 40,0 40,0 70,0 70,0 76,0 82,-6 82,-12 82,-12 82,-24 82,-24 82,-30 76,-36 70,-36"/>
<text text-anchor="middle" x="55" y="-15.5" font-family="sans" font-size="10.00">all</text>
</g>
<!-- 1 -->
<g id="node2" class="node">
<title>1</title>
<path fill="none" stroke="#d85656" stroke-width="2" stroke-dasharray="5,2" d="M72.5,-108C72.5,-108 37.5,-108 37.5,-108 31.5,-108 25.5,-102 25.5,-96 25.5,-96 25.5,-84 25.5,-84 25.5,-78 31.5,-72 37.5,-72 37.5,-72 72.5,-72 72.5,-72 78.5,-72 84.5,-78 84.5,-84 84.5,-84 84.5,-96 84.5,-96 84.5,-102 78.5,-108 72.5,-108"/>
<text text-anchor="middle" x="55" y="-87.5" font-family="sans" font-size="10.00">combine</text>
</g>
<!-- 1&#45;&gt;0 -->
<g id="edge1" class="edge">
<title>1&#45;&gt;0</title>
<path fill="none" stroke="grey" stroke-width="2" d="M55,-71.7C55,-63.98 55,-54.71 55,-46.11"/>
<polygon fill="grey" stroke="grey" stroke-width="2" points="58.5,-46.1 55,-36.1 51.5,-46.1 58.5,-46.1"/>
</g>
<!-- 2 -->
<g id="node3" class="node">
<title>2</title>
<path fill="none" stroke="#56d8d8" stroke-width="2" stroke-dasharray="5,2" d="M98,-252C98,-252 12,-252 12,-252 6,-252 0,-246 0,-240 0,-240 0,-228 0,-228 0,-222 6,-216 12,-216 12,-216 98,-216 98,-216 104,-216 110,-222 110,-228 110,-228 110,-240 110,-240 110,-246 104,-252 98,-252"/>
<text text-anchor="middle" x="55" y="-231.5" font-family="sans" font-size="10.00">generate_message</text>
</g>
<!-- 2&#45;&gt;1 -->
<g id="edge2" class="edge">
<title>2&#45;&gt;1</title>
<path fill="none" stroke="grey" stroke-width="2" d="M47.93,-215.67C44.16,-205.47 39.91,-192.22 38,-180 35.53,-164.19 35.53,-159.81 38,-144 39.36,-135.31 41.9,-126.1 44.61,-117.84"/>
<polygon fill="grey" stroke="grey" stroke-width="2" points="47.94,-118.93 47.93,-108.33 41.33,-116.62 47.94,-118.93"/>
</g>
<!-- 3 -->
<g id="node4" class="node">
<title>3</title>
<path fill="none" stroke="#59d856" stroke-width="2" stroke-dasharray="5,2" d="M127.5,-180C127.5,-180 58.5,-180 58.5,-180 52.5,-180 46.5,-174 46.5,-168 46.5,-168 46.5,-156 46.5,-156 46.5,-150 52.5,-144 58.5,-144 58.5,-144 127.5,-144 127.5,-144 133.5,-144 139.5,-150 139.5,-156 139.5,-156 139.5,-168 139.5,-168 139.5,-174 133.5,-180 127.5,-180"/>
<text text-anchor="middle" x="93" y="-159.5" font-family="sans" font-size="10.00">shout_message</text>
</g>
<!-- 2&#45;&gt;3 -->
<g id="edge4" class="edge">
<title>2&#45;&gt;3</title>
<path fill="none" stroke="grey" stroke-width="2" d="M64.39,-215.7C68.76,-207.64 74.06,-197.89 78.9,-188.98"/>
<polygon fill="grey" stroke="grey" stroke-width="2" points="82.02,-190.56 83.71,-180.1 75.87,-187.22 82.02,-190.56"/>
</g>
<!-- 3&#45;&gt;1 -->
<g id="edge3" class="edge">
<title>3&#45;&gt;1</title>
<path fill="none" stroke="grey" stroke-width="2" d="M83.61,-143.7C79.24,-135.64 73.94,-125.89 69.1,-116.98"/>
<polygon fill="grey" stroke="grey" stroke-width="2" points="72.13,-115.22 64.29,-108.1 65.98,-118.56 72.13,-115.22"/>
</g>
</g>
</svg>
