<?xml version="1.0" encoding="utf-8" standalone="no"?>
<!DOCTYPE svg PUBLIC "-//W3C//DTD SVG 1.1//EN"
  "http://www.w3.org/Graphics/SVG/1.1/DTD/svg11.dtd">
<svg xmlns:xlink="http://www.w3.org/1999/xlink" width="528.876562pt" height="309.024687pt" viewBox="0 0 528.876562 309.024687" xmlns="http://www.w3.org/2000/svg" version="1.1">
 <metadata>
  <rdf:RDF xmlns:dc="http://purl.org/dc/elements/1.1/" xmlns:cc="http://creativecommons.org/ns#" xmlns:rdf="http://www.w3.org/1999/02/22-rdf-syntax-ns#">
   <cc:Work>
    <dc:type rdf:resource="http://purl.org/dc/dcmitype/StillImage"/>
    <dc:date>2023-01-10T14:43:36.826074</dc:date>
    <dc:format>image/svg+xml</dc:format>
    <dc:creator>
     <cc:Agent>
      <dc:title>Matplotlib v3.6.2, https://matplotlib.org/</dc:title>
     </cc:Agent>
    </dc:creator>
   </cc:Work>
  </rdf:RDF>
 </metadata>
 <defs>
  <style type="text/css">*{stroke-linejoin: round; stroke-linecap: butt}</style>
 </defs>
 <g id="figure_1">
  <g id="patch_1">
   <path d="M 0 309.024687 
L 528.876562 309.024687 
L 528.876562 0 
L 0 0 
z
" style="fill: #ffffff; stroke: #ffffff; stroke-linejoin: miter"/>
  </g>
  <g id="axes_1">
   <g id="patch_2">
    <path d="M 41.190688 273.312 
L 398.310688 273.312 
L 398.310688 7.2 
L 41.190688 7.2 
z
" style="fill: #ebebeb"/>
   </g>
   <g id="matplotlib.axis_1">
    <g id="xtick_1">
     <g id="line2d_1">
      <path d="M 103.802636 273.312 
L 103.802636 7.2 
" clip-path="url(#p6e48170a1f)" style="fill: none; stroke: #ffffff"/>
     </g>
     <g id="line2d_2">
      <path d="M 103.802636 273.312 
" style="fill: none; stroke: #000000; stroke-width: 1.5"/>
      <defs>
       <path id="m8d6f42d2d0" d="M 0 0 
L 0 2.75 
" style="stroke: #333333"/>
      </defs>
      <g>
       <use xlink:href="#m8d6f42d2d0" x="103.802636" y="273.312" style="stroke: #333333"/>
      </g>
     </g>
     <g id="text_1">
      <!-- 2 -->
      <g style="fill: #4d4d4d" transform="translate(101.003136 284.948625) scale(0.088 -0.088)">
       <defs>
        <path id="DejaVuSans-32" d="M 1228 531 
L 3431 531 
L 3431 0 
L 469 0 
L 469 531 
Q 828 903 1448 1529 
Q 2069 2156 2228 2338 
Q 2531 2678 2651 2914 
Q 2772 3150 2772 3378 
Q 2772 3750 2511 3984 
Q 2250 4219 1831 4219 
Q 1534 4219 1204 4116 
Q 875 4013 500 3803 
L 500 4441 
Q 881 4594 1212 4672 
Q 1544 4750 1819 4750 
Q 2544 4750 2975 4387 
Q 3406 4025 3406 3419 
Q 3406 3131 3298 2873 
Q 3191 2616 2906 2266 
Q 2828 2175 2409 1742 
Q 1991 1309 1228 531 
z
" transform="scale(0.015625)"/>
       </defs>
       <use xlink:href="#DejaVuSans-32"/>
      </g>
     </g>
    </g>
    <g id="xtick_2">
     <g id="line2d_3">
      <path d="M 196.561077 273.312 
L 196.561077 7.2 
" clip-path="url(#p6e48170a1f)" style="fill: none; stroke: #ffffff"/>
     </g>
     <g id="line2d_4">
      <path d="M 196.561077 273.312 
" style="fill: none; stroke: #000000; stroke-width: 1.5"/>
      <g>
       <use xlink:href="#m8d6f42d2d0" x="196.561077" y="273.312" style="stroke: #333333"/>
      </g>
     </g>
     <g id="text_2">
      <!-- 4 -->
      <g style="fill: #4d4d4d" transform="translate(193.761577 284.948625) scale(0.088 -0.088)">
       <defs>
        <path id="DejaVuSans-34" d="M 2419 4116 
L 825 1625 
L 2419 1625 
L 2419 4116 
z
M 2253 4666 
L 3047 4666 
L 3047 1625 
L 3713 1625 
L 3713 1100 
L 3047 1100 
L 3047 0 
L 2419 0 
L 2419 1100 
L 313 1100 
L 313 1709 
L 2253 4666 
z
" transform="scale(0.015625)"/>
       </defs>
       <use xlink:href="#DejaVuSans-34"/>
      </g>
     </g>
    </g>
    <g id="xtick_3">
     <g id="line2d_5">
      <path d="M 289.319519 273.312 
L 289.319519 7.2 
" clip-path="url(#p6e48170a1f)" style="fill: none; stroke: #ffffff"/>
     </g>
     <g id="line2d_6">
      <path d="M 289.319519 273.312 
" style="fill: none; stroke: #000000; stroke-width: 1.5"/>
      <g>
       <use xlink:href="#m8d6f42d2d0" x="289.319519" y="273.312" style="stroke: #333333"/>
      </g>
     </g>
     <g id="text_3">
      <!-- 6 -->
      <g style="fill: #4d4d4d" transform="translate(286.520019 284.948625) scale(0.088 -0.088)">
       <defs>
        <path id="DejaVuSans-36" d="M 2113 2584 
Q 1688 2584 1439 2293 
Q 1191 2003 1191 1497 
Q 1191 994 1439 701 
Q 1688 409 2113 409 
Q 2538 409 2786 701 
Q 3034 994 3034 1497 
Q 3034 2003 2786 2293 
Q 2538 2584 2113 2584 
z
M 3366 4563 
L 3366 3988 
Q 3128 4100 2886 4159 
Q 2644 4219 2406 4219 
Q 1781 4219 1451 3797 
Q 1122 3375 1075 2522 
Q 1259 2794 1537 2939 
Q 1816 3084 2150 3084 
Q 2853 3084 3261 2657 
Q 3669 2231 3669 1497 
Q 3669 778 3244 343 
Q 2819 -91 2113 -91 
Q 1303 -91 875 529 
Q 447 1150 447 2328 
Q 447 3434 972 4092 
Q 1497 4750 2381 4750 
Q 2619 4750 2861 4703 
Q 3103 4656 3366 4563 
z
" transform="scale(0.015625)"/>
       </defs>
       <use xlink:href="#DejaVuSans-36"/>
      </g>
     </g>
    </g>
    <g id="xtick_4">
     <g id="line2d_7">
      <path d="M 382.07796 273.312 
L 382.07796 7.2 
" clip-path="url(#p6e48170a1f)" style="fill: none; stroke: #ffffff"/>
     </g>
     <g id="line2d_8">
      <path d="M 382.07796 273.312 
" style="fill: none; stroke: #000000; stroke-width: 1.5"/>
      <g>
       <use xlink:href="#m8d6f42d2d0" x="382.07796" y="273.312" style="stroke: #333333"/>
      </g>
     </g>
     <g id="text_4">
      <!-- 8 -->
      <g style="fill: #4d4d4d" transform="translate(379.27846 284.948625) scale(0.088 -0.088)">
       <defs>
        <path id="DejaVuSans-38" d="M 2034 2216 
Q 1584 2216 1326 1975 
Q 1069 1734 1069 1313 
Q 1069 891 1326 650 
Q 1584 409 2034 409 
Q 2484 409 2743 651 
Q 3003 894 3003 1313 
Q 3003 1734 2745 1975 
Q 2488 2216 2034 2216 
z
M 1403 2484 
Q 997 2584 770 2862 
Q 544 3141 544 3541 
Q 544 4100 942 4425 
Q 1341 4750 2034 4750 
Q 2731 4750 3128 4425 
Q 3525 4100 3525 3541 
Q 3525 3141 3298 2862 
Q 3072 2584 2669 2484 
Q 3125 2378 3379 2068 
Q 3634 1759 3634 1313 
Q 3634 634 3220 271 
Q 2806 -91 2034 -91 
Q 1263 -91 848 271 
Q 434 634 434 1313 
Q 434 1759 690 2068 
Q 947 2378 1403 2484 
z
M 1172 3481 
Q 1172 3119 1398 2916 
Q 1625 2713 2034 2713 
Q 2441 2713 2670 2916 
Q 2900 3119 2900 3481 
Q 2900 3844 2670 4047 
Q 2441 4250 2034 4250 
Q 1625 4250 1398 4047 
Q 1172 3844 1172 3481 
z
" transform="scale(0.015625)"/>
       </defs>
       <use xlink:href="#DejaVuSans-38"/>
      </g>
     </g>
    </g>
    <g id="xtick_5">
     <g id="line2d_9">
      <path d="M 57.423415 273.312 
L 57.423415 7.2 
" clip-path="url(#p6e48170a1f)" style="fill: none; stroke: #ffffff; stroke-width: 0.5"/>
     </g>
    </g>
    <g id="xtick_6">
     <g id="line2d_10">
      <path d="M 150.181856 273.312 
L 150.181856 7.2 
" clip-path="url(#p6e48170a1f)" style="fill: none; stroke: #ffffff; stroke-width: 0.5"/>
     </g>
    </g>
    <g id="xtick_7">
     <g id="line2d_11">
      <path d="M 242.940298 273.312 
L 242.940298 7.2 
" clip-path="url(#p6e48170a1f)" style="fill: none; stroke: #ffffff; stroke-width: 0.5"/>
     </g>
    </g>
    <g id="xtick_8">
     <g id="line2d_12">
      <path d="M 335.698739 273.312 
L 335.698739 7.2 
" clip-path="url(#p6e48170a1f)" style="fill: none; stroke: #ffffff; stroke-width: 0.5"/>
     </g>
    </g>
    <g id="text_5">
     <!-- n -->
     <g transform="translate(210.505063 299.537031) scale(0.11 -0.11)">
      <defs>
       <path id="DejaVuSans-6e" d="M 3513 2113 
L 3513 0 
L 2938 0 
L 2938 2094 
Q 2938 2591 2744 2837 
Q 2550 3084 2163 3084 
Q 1697 3084 1428 2787 
Q 1159 2491 1159 1978 
L 1159 0 
L 581 0 
L 581 3500 
L 1159 3500 
L 1159 2956 
Q 1366 3272 1645 3428 
Q 1925 3584 2291 3584 
Q 2894 3584 3203 3211 
Q 3513 2838 3513 2113 
z
" transform="scale(0.015625)"/>
      </defs>
      <use xlink:href="#DejaVuSans-6e"/>
     </g>
    </g>
   </g>
   <g id="matplotlib.axis_2">
    <g id="ytick_1">
     <g id="line2d_13">
      <path d="M 41.190688 211.480549 
L 398.310688 211.480549 
" clip-path="url(#p6e48170a1f)" style="fill: none; stroke: #ffffff"/>
     </g>
     <g id="line2d_14">
      <path d="M 41.190688 211.480549 
" style="fill: none; stroke: #000000; stroke-width: 1.5"/>
      <defs>
       <path id="m8799f5e846" d="M 0 0 
L -2.75 0 
" style="stroke: #333333"/>
      </defs>
      <g>
       <use xlink:href="#m8799f5e846" x="41.190688" y="211.480549" style="stroke: #333333"/>
      </g>
     </g>
     <g id="text_6">
      <!-- 0.1 -->
      <g style="fill: #4d4d4d" transform="translate(22.245938 213.908799) scale(0.088 -0.088)">
       <defs>
        <path id="DejaVuSans-30" d="M 2034 4250 
Q 1547 4250 1301 3770 
Q 1056 3291 1056 2328 
Q 1056 1369 1301 889 
Q 1547 409 2034 409 
Q 2525 409 2770 889 
Q 3016 1369 3016 2328 
Q 3016 3291 2770 3770 
Q 2525 4250 2034 4250 
z
M 2034 4750 
Q 2819 4750 3233 4129 
Q 3647 3509 3647 2328 
Q 3647 1150 3233 529 
Q 2819 -91 2034 -91 
Q 1250 -91 836 529 
Q 422 1150 422 2328 
Q 422 3509 836 4129 
Q 1250 4750 2034 4750 
z
" transform="scale(0.015625)"/>
        <path id="DejaVuSans-2e" d="M 684 794 
L 1344 794 
L 1344 0 
L 684 0 
L 684 794 
z
" transform="scale(0.015625)"/>
        <path id="DejaVuSans-31" d="M 794 531 
L 1825 531 
L 1825 4091 
L 703 3866 
L 703 4441 
L 1819 4666 
L 2450 4666 
L 2450 531 
L 3481 531 
L 3481 0 
L 794 0 
L 794 531 
z
" transform="scale(0.015625)"/>
       </defs>
       <use xlink:href="#DejaVuSans-30"/>
       <use xlink:href="#DejaVuSans-2e" x="63.623047"/>
       <use xlink:href="#DejaVuSans-31" x="95.410156"/>
      </g>
     </g>
    </g>
    <g id="ytick_2">
     <g id="line2d_15">
      <path d="M 41.190688 115.551354 
L 398.310688 115.551354 
" clip-path="url(#p6e48170a1f)" style="fill: none; stroke: #ffffff"/>
     </g>
     <g id="line2d_16">
      <path d="M 41.190688 115.551354 
" style="fill: none; stroke: #000000; stroke-width: 1.5"/>
      <g>
       <use xlink:href="#m8799f5e846" x="41.190688" y="115.551354" style="stroke: #333333"/>
      </g>
     </g>
     <g id="text_7">
      <!-- 0.2 -->
      <g style="fill: #4d4d4d" transform="translate(22.245938 117.979604) scale(0.088 -0.088)">
       <use xlink:href="#DejaVuSans-30"/>
       <use xlink:href="#DejaVuSans-2e" x="63.623047"/>
       <use xlink:href="#DejaVuSans-32" x="95.410156"/>
      </g>
     </g>
    </g>
    <g id="ytick_3">
     <g id="line2d_17">
      <path d="M 41.190688 19.622159 
L 398.310688 19.622159 
" clip-path="url(#p6e48170a1f)" style="fill: none; stroke: #ffffff"/>
     </g>
     <g id="line2d_18">
      <path d="M 41.190688 19.622159 
" style="fill: none; stroke: #000000; stroke-width: 1.5"/>
      <g>
       <use xlink:href="#m8799f5e846" x="41.190688" y="19.622159" style="stroke: #333333"/>
      </g>
     </g>
     <g id="text_8">
      <!-- 0.3 -->
      <g style="fill: #4d4d4d" transform="translate(22.245938 22.050409) scale(0.088 -0.088)">
       <defs>
        <path id="DejaVuSans-33" d="M 2597 2516 
Q 3050 2419 3304 2112 
Q 3559 1806 3559 1356 
Q 3559 666 3084 287 
Q 2609 -91 1734 -91 
Q 1441 -91 1130 -33 
Q 819 25 488 141 
L 488 750 
Q 750 597 1062 519 
Q 1375 441 1716 441 
Q 2309 441 2620 675 
Q 2931 909 2931 1356 
Q 2931 1769 2642 2001 
Q 2353 2234 1838 2234 
L 1294 2234 
L 1294 2753 
L 1863 2753 
Q 2328 2753 2575 2939 
Q 2822 3125 2822 3475 
Q 2822 3834 2567 4026 
Q 2313 4219 1838 4219 
Q 1578 4219 1281 4162 
Q 984 4106 628 3988 
L 628 4550 
Q 988 4650 1302 4700 
Q 1616 4750 1894 4750 
Q 2613 4750 3031 4423 
Q 3450 4097 3450 3541 
Q 3450 3153 3228 2886 
Q 3006 2619 2597 2516 
z
" transform="scale(0.015625)"/>
       </defs>
       <use xlink:href="#DejaVuSans-30"/>
       <use xlink:href="#DejaVuSans-2e" x="63.623047"/>
       <use xlink:href="#DejaVuSans-33" x="95.410156"/>
      </g>
     </g>
    </g>
    <g id="ytick_4">
     <g id="line2d_19">
      <path d="M 41.190688 259.445147 
L 398.310688 259.445147 
" clip-path="url(#p6e48170a1f)" style="fill: none; stroke: #ffffff; stroke-width: 0.5"/>
     </g>
    </g>
    <g id="ytick_5">
     <g id="line2d_20">
      <path d="M 41.190688 163.515952 
L 398.310688 163.515952 
" clip-path="url(#p6e48170a1f)" style="fill: none; stroke: #ffffff; stroke-width: 0.5"/>
     </g>
    </g>
    <g id="ytick_6">
     <g id="line2d_21">
      <path d="M 41.190688 67.586757 
L 398.310688 67.586757 
" clip-path="url(#p6e48170a1f)" style="fill: none; stroke: #ffffff; stroke-width: 0.5"/>
     </g>
    </g>
    <g id="text_9">
     <!-- mean -->
     <g transform="translate(15.558281 154.125656) rotate(-90) scale(0.11 -0.11)">
      <defs>
       <path id="DejaVuSans-6d" d="M 3328 2828 
Q 3544 3216 3844 3400 
Q 4144 3584 4550 3584 
Q 5097 3584 5394 3201 
Q 5691 2819 5691 2113 
L 5691 0 
L 5113 0 
L 5113 2094 
Q 5113 2597 4934 2840 
Q 4756 3084 4391 3084 
Q 3944 3084 3684 2787 
Q 3425 2491 3425 1978 
L 3425 0 
L 2847 0 
L 2847 2094 
Q 2847 2600 2669 2842 
Q 2491 3084 2119 3084 
Q 1678 3084 1418 2786 
Q 1159 2488 1159 1978 
L 1159 0 
L 581 0 
L 581 3500 
L 1159 3500 
L 1159 2956 
Q 1356 3278 1631 3431 
Q 1906 3584 2284 3584 
Q 2666 3584 2933 3390 
Q 3200 3197 3328 2828 
z
" transform="scale(0.015625)"/>
       <path id="DejaVuSans-65" d="M 3597 1894 
L 3597 1613 
L 953 1613 
Q 991 1019 1311 708 
Q 1631 397 2203 397 
Q 2534 397 2845 478 
Q 3156 559 3463 722 
L 3463 178 
Q 3153 47 2828 -22 
Q 2503 -91 2169 -91 
Q 1331 -91 842 396 
Q 353 884 353 1716 
Q 353 2575 817 3079 
Q 1281 3584 2069 3584 
Q 2775 3584 3186 3129 
Q 3597 2675 3597 1894 
z
M 3022 2063 
Q 3016 2534 2758 2815 
Q 2500 3097 2075 3097 
Q 1594 3097 1305 2825 
Q 1016 2553 972 2059 
L 3022 2063 
z
" transform="scale(0.015625)"/>
       <path id="DejaVuSans-61" d="M 2194 1759 
Q 1497 1759 1228 1600 
Q 959 1441 959 1056 
Q 959 750 1161 570 
Q 1363 391 1709 391 
Q 2188 391 2477 730 
Q 2766 1069 2766 1631 
L 2766 1759 
L 2194 1759 
z
M 3341 1997 
L 3341 0 
L 2766 0 
L 2766 531 
Q 2569 213 2275 61 
Q 1981 -91 1556 -91 
Q 1019 -91 701 211 
Q 384 513 384 1019 
Q 384 1609 779 1909 
Q 1175 2209 1959 2209 
L 2766 2209 
L 2766 2266 
Q 2766 2663 2505 2880 
Q 2244 3097 1772 3097 
Q 1472 3097 1187 3025 
Q 903 2953 641 2809 
L 641 3341 
Q 956 3463 1253 3523 
Q 1550 3584 1831 3584 
Q 2591 3584 2966 3190 
Q 3341 2797 3341 1997 
z
" transform="scale(0.015625)"/>
      </defs>
      <use xlink:href="#DejaVuSans-6d"/>
      <use xlink:href="#DejaVuSans-65" x="97.412109"/>
      <use xlink:href="#DejaVuSans-61" x="158.935547"/>
      <use xlink:href="#DejaVuSans-6e" x="220.214844"/>
     </g>
    </g>
   </g>
   <g id="PolyCollection_1">
    <path d="M 57.423415 24.78315 
L 57.423415 42.846617 
L 103.802636 172.821084 
L 150.181856 208.046284 
L 196.561077 232.876597 
L 242.940298 244.86295 
L 289.319519 252.220719 
L 335.698739 257.827781 
L 382.07796 261.216 
L 382.07796 250.821112 
L 382.07796 250.821112 
L 335.698739 250.297339 
L 289.319519 248.097683 
L 242.940298 238.837637 
L 196.561077 224.759069 
L 150.181856 201.475134 
L 103.802636 158.105545 
L 57.423415 24.78315 
z
" clip-path="url(#p6e48170a1f)" style="fill: #db5f57; fill-opacity: 0.298039"/>
   </g>
   <g id="line2d_22">
    <path d="M 57.423415 42.846617 
L 103.802636 172.821084 
L 150.181856 208.046284 
L 196.561077 232.876597 
L 242.940298 244.86295 
L 289.319519 252.220719 
L 335.698739 257.827781 
L 382.07796 261.216 
" clip-path="url(#p6e48170a1f)" style="fill: none; stroke: #000000; stroke-opacity: 0; stroke-width: 0.886227; stroke-linejoin: miter"/>
   </g>
   <g id="line2d_23">
    <path d="M 57.423415 37.110052 
L 103.802636 164.72466 
L 150.181856 205.839913 
L 196.561077 230.92156 
L 242.940298 243.148695 
L 289.319519 250.587045 
L 335.698739 256.112567 
L 382.07796 259.160237 
" clip-path="url(#p6e48170a1f)" style="fill: none; stroke: #000000; stroke-opacity: 0; stroke-width: 0.886227; stroke-linejoin: miter"/>
   </g>
   <g id="PolyCollection_2">
    <path d="M 57.423415 19.296 
L 57.423415 51.230829 
L 103.802636 160.206395 
L 150.181856 194.501082 
L 196.561077 222.499936 
L 242.940298 223.068796 
L 289.319519 213.549742 
L 335.698739 209.657895 
L 382.07796 223.819922 
L 382.07796 210.319806 
L 382.07796 210.319806 
L 335.698739 196.429259 
L 289.319519 201.005081 
L 242.940298 186.452622 
L 196.561077 207.864019 
L 150.181856 189.608693 
L 103.802636 139.946149 
L 57.423415 19.296 
z
" clip-path="url(#p6e48170a1f)" style="fill: #91db57; fill-opacity: 0.298039"/>
   </g>
   <g id="line2d_24">
    <path d="M 57.423415 51.230829 
L 103.802636 160.206395 
L 150.181856 194.501082 
L 196.561077 222.499936 
L 242.940298 223.068796 
L 289.319519 213.549742 
L 335.698739 209.657895 
L 382.07796 223.819922 
" clip-path="url(#p6e48170a1f)" style="fill: none; stroke: #000000; stroke-opacity: 0; stroke-width: 0.886227; stroke-linejoin: miter"/>
   </g>
   <g id="line2d_25">
    <path d="M 57.423415 38.999857 
L 103.802636 151.611139 
L 150.181856 192.524941 
L 196.561077 219.180786 
L 242.940298 214.181916 
L 289.319519 207.614603 
L 335.698739 205.552125 
L 382.07796 220.85571 
" clip-path="url(#p6e48170a1f)" style="fill: none; stroke: #000000; stroke-opacity: 0; stroke-width: 0.886227; stroke-linejoin: miter"/>
   </g>
   <g id="PolyCollection_3">
    <path d="M 57.423415 53.897661 
L 57.423415 58.060988 
L 57.423415 53.897661 
L 57.423415 53.897661 
z
" clip-path="url(#p6e48170a1f)" style="fill: #57d3db; fill-opacity: 0.298039"/>
   </g>
   <g id="line2d_26">
    <path d="M 57.423415 58.060988 
" clip-path="url(#p6e48170a1f)" style="fill: none; stroke: #000000; stroke-opacity: 0; stroke-width: 0.886227; stroke-linejoin: miter"/>
   </g>
   <g id="line2d_27">
    <path d="M 57.423415 56.986581 
" clip-path="url(#p6e48170a1f)" style="fill: none; stroke: #000000; stroke-opacity: 0; stroke-width: 0.886227; stroke-linejoin: miter"/>
   </g>
   <g id="PolyCollection_4">
    <path d="M 57.423415 49.082015 
L 57.423415 53.744174 
L 57.423415 49.082015 
L 57.423415 49.082015 
z
" clip-path="url(#p6e48170a1f)" style="fill: #a157db; fill-opacity: 0.298039"/>
   </g>
   <g id="line2d_28">
    <path d="M 57.423415 53.744174 
" clip-path="url(#p6e48170a1f)" style="fill: none; stroke: #000000; stroke-opacity: 0; stroke-width: 0.886227; stroke-linejoin: miter"/>
   </g>
   <g id="line2d_29">
    <path d="M 57.423415 52.717732 
" clip-path="url(#p6e48170a1f)" style="fill: none; stroke: #000000; stroke-opacity: 0; stroke-width: 0.886227; stroke-linejoin: miter"/>
   </g>
   <g id="PathCollection_1">
    <path d="M 57.423415 58.759035 
C 57.893475 58.759035 58.344346 58.572278 58.676729 58.239895 
C 59.009112 57.907512 59.195869 57.456641 59.195869 56.986581 
C 59.195869 56.516521 59.009112 56.065649 58.676729 55.733267 
C 58.344346 55.400884 57.893475 55.214127 57.423415 55.214127 
C 56.953355 55.214127 56.502483 55.400884 56.170101 55.733267 
C 55.837718 56.065649 55.650961 56.516521 55.650961 56.986581 
C 55.650961 57.456641 55.837718 57.907512 56.170101 58.239895 
C 56.502483 58.572278 56.953355 58.759035 57.423415 58.759035 
z
" clip-path="url(#p6e48170a1f)" style="fill: #57d3db; stroke: #57d3db; stroke-width: 0.886227"/>
    <path d="M 57.423415 54.490185 
C 57.893475 54.490185 58.344346 54.303429 58.676729 53.971046 
C 59.009112 53.638663 59.195869 53.187792 59.195869 52.717732 
C 59.195869 52.247671 59.009112 51.7968 58.676729 51.464417 
C 58.344346 51.132035 57.893475 50.945278 57.423415 50.945278 
C 56.953355 50.945278 56.502483 51.132035 56.170101 51.464417 
C 55.837718 51.7968 55.650961 52.247671 55.650961 52.717732 
C 55.650961 53.187792 55.837718 53.638663 56.170101 53.971046 
C 56.502483 54.303429 56.953355 54.490185 57.423415 54.490185 
z
" clip-path="url(#p6e48170a1f)" style="fill: #a157db; stroke: #a157db; stroke-width: 0.886227"/>
    <path d="M 57.423415 38.882505 
C 57.893475 38.882505 58.344346 38.695748 58.676729 38.363366 
C 59.009112 38.030983 59.195869 37.580112 59.195869 37.110052 
C 59.195869 36.639991 59.009112 36.18912 58.676729 35.856737 
C 58.344346 35.524355 57.893475 35.337598 57.423415 35.337598 
C 56.953355 35.337598 56.502483 35.524355 56.170101 35.856737 
C 55.837718 36.18912 55.650961 36.639991 55.650961 37.110052 
C 55.650961 37.580112 55.837718 38.030983 56.170101 38.363366 
C 56.502483 38.695748 56.953355 38.882505 57.423415 38.882505 
z
" clip-path="url(#p6e48170a1f)" style="fill: #db5f57; stroke: #db5f57; stroke-width: 0.886227"/>
    <path d="M 103.802636 166.497114 
C 104.272696 166.497114 104.723567 166.310357 105.05595 165.977974 
C 105.388332 165.645591 105.575089 165.19472 105.575089 164.72466 
C 105.575089 164.2546 105.388332 163.803728 105.05595 163.471346 
C 104.723567 163.138963 104.272696 162.952206 103.802636 162.952206 
C 103.332575 162.952206 102.881704 163.138963 102.549321 163.471346 
C 102.216939 163.803728 102.030182 164.2546 102.030182 164.72466 
C 102.030182 165.19472 102.216939 165.645591 102.549321 165.977974 
C 102.881704 166.310357 103.332575 166.497114 103.802636 166.497114 
z
" clip-path="url(#p6e48170a1f)" style="fill: #db5f57; stroke: #db5f57; stroke-width: 0.886227"/>
    <path d="M 150.181856 207.612367 
C 150.651917 207.612367 151.102788 207.42561 151.43517 207.093227 
C 151.767553 206.760844 151.95431 206.309973 151.95431 205.839913 
C 151.95431 205.369853 151.767553 204.918981 151.43517 204.586599 
C 151.102788 204.254216 150.651917 204.067459 150.181856 204.067459 
C 149.711796 204.067459 149.260925 204.254216 148.928542 204.586599 
C 148.596159 204.918981 148.409402 205.369853 148.409402 205.839913 
C 148.409402 206.309973 148.596159 206.760844 148.928542 207.093227 
C 149.260925 207.42561 149.711796 207.612367 150.181856 207.612367 
z
" clip-path="url(#p6e48170a1f)" style="fill: #db5f57; stroke: #db5f57; stroke-width: 0.886227"/>
    <path d="M 196.561077 232.694014 
C 197.031137 232.694014 197.482008 232.507257 197.814391 232.174874 
C 198.146774 231.842492 198.333531 231.39162 198.333531 230.92156 
C 198.333531 230.4515 198.146774 230.000629 197.814391 229.668246 
C 197.482008 229.335863 197.031137 229.149106 196.561077 229.149106 
C 196.091017 229.149106 195.640146 229.335863 195.307763 229.668246 
C 194.97538 230.000629 194.788623 230.4515 194.788623 230.92156 
C 194.788623 231.39162 194.97538 231.842492 195.307763 232.174874 
C 195.640146 232.507257 196.091017 232.694014 196.561077 232.694014 
z
" clip-path="url(#p6e48170a1f)" style="fill: #db5f57; stroke: #db5f57; stroke-width: 0.886227"/>
    <path d="M 242.940298 244.921149 
C 243.410358 244.921149 243.861229 244.734392 244.193612 244.40201 
C 244.525995 244.069627 244.712752 243.618756 244.712752 243.148695 
C 244.712752 242.678635 244.525995 242.227764 244.193612 241.895381 
C 243.861229 241.562998 243.410358 241.376242 242.940298 241.376242 
C 242.470238 241.376242 242.019367 241.562998 241.686984 241.895381 
C 241.354601 242.227764 241.167844 242.678635 241.167844 243.148695 
C 241.167844 243.618756 241.354601 244.069627 241.686984 244.40201 
C 242.019367 244.734392 242.470238 244.921149 242.940298 244.921149 
z
" clip-path="url(#p6e48170a1f)" style="fill: #db5f57; stroke: #db5f57; stroke-width: 0.886227"/>
    <path d="M 289.319519 252.359499 
C 289.789579 252.359499 290.24045 252.172742 290.572833 251.840359 
C 290.905216 251.507977 291.091973 251.057105 291.091973 250.587045 
C 291.091973 250.116985 290.905216 249.666114 290.572833 249.333731 
C 290.24045 249.001348 289.789579 248.814591 289.319519 248.814591 
C 288.849458 248.814591 288.398587 249.001348 288.066205 249.333731 
C 287.733822 249.666114 287.547065 250.116985 287.547065 250.587045 
C 287.547065 251.057105 287.733822 251.507977 288.066205 251.840359 
C 288.398587 252.172742 288.849458 252.359499 289.319519 252.359499 
z
" clip-path="url(#p6e48170a1f)" style="fill: #db5f57; stroke: #db5f57; stroke-width: 0.886227"/>
    <path d="M 335.698739 257.885021 
C 336.1688 257.885021 336.619671 257.698264 336.952054 257.365881 
C 337.284436 257.033498 337.471193 256.582627 337.471193 256.112567 
C 337.471193 255.642507 337.284436 255.191635 336.952054 254.859253 
C 336.619671 254.52687 336.1688 254.340113 335.698739 254.340113 
C 335.228679 254.340113 334.777808 254.52687 334.445425 254.859253 
C 334.113043 255.191635 333.926286 255.642507 333.926286 256.112567 
C 333.926286 256.582627 334.113043 257.033498 334.445425 257.365881 
C 334.777808 257.698264 335.228679 257.885021 335.698739 257.885021 
z
" clip-path="url(#p6e48170a1f)" style="fill: #db5f57; stroke: #db5f57; stroke-width: 0.886227"/>
    <path d="M 382.07796 260.932691 
C 382.54802 260.932691 382.998892 260.745934 383.331274 260.413551 
C 383.663657 260.081169 383.850414 259.630298 383.850414 259.160237 
C 383.850414 258.690177 383.663657 258.239306 383.331274 257.906923 
C 382.998892 257.57454 382.54802 257.387783 382.07796 257.387783 
C 381.6079 257.387783 381.157029 257.57454 380.824646 257.906923 
C 380.492263 258.239306 380.305506 258.690177 380.305506 259.160237 
C 380.305506 259.630298 380.492263 260.081169 380.824646 260.413551 
C 381.157029 260.745934 381.6079 260.932691 382.07796 260.932691 
z
" clip-path="url(#p6e48170a1f)" style="fill: #db5f57; stroke: #db5f57; stroke-width: 0.886227"/>
    <path d="M 57.423415 40.772311 
C 57.893475 40.772311 58.344346 40.585554 58.676729 40.253171 
C 59.009112 39.920788 59.195869 39.469917 59.195869 38.999857 
C 59.195869 38.529796 59.009112 38.078925 58.676729 37.746543 
C 58.344346 37.41416 57.893475 37.227403 57.423415 37.227403 
C 56.953355 37.227403 56.502483 37.41416 56.170101 37.746543 
C 55.837718 38.078925 55.650961 38.529796 55.650961 38.999857 
C 55.650961 39.469917 55.837718 39.920788 56.170101 40.253171 
C 56.502483 40.585554 56.953355 40.772311 57.423415 40.772311 
z
" clip-path="url(#p6e48170a1f)" style="fill: #91db57; stroke: #91db57; stroke-width: 0.886227"/>
    <path d="M 103.802636 153.383593 
C 104.272696 153.383593 104.723567 153.196836 105.05595 152.864453 
C 105.388332 152.53207 105.575089 152.081199 105.575089 151.611139 
C 105.575089 151.141079 105.388332 150.690207 105.05595 150.357825 
C 104.723567 150.025442 104.272696 149.838685 103.802636 149.838685 
C 103.332575 149.838685 102.881704 150.025442 102.549321 150.357825 
C 102.216939 150.690207 102.030182 151.141079 102.030182 151.611139 
C 102.030182 152.081199 102.216939 152.53207 102.549321 152.864453 
C 102.881704 153.196836 103.332575 153.383593 103.802636 153.383593 
z
" clip-path="url(#p6e48170a1f)" style="fill: #91db57; stroke: #91db57; stroke-width: 0.886227"/>
    <path d="M 150.181856 194.297394 
C 150.651917 194.297394 151.102788 194.110637 151.43517 193.778255 
C 151.767553 193.445872 151.95431 192.995001 151.95431 192.524941 
C 151.95431 192.05488 151.767553 191.604009 151.43517 191.271626 
C 151.102788 190.939244 150.651917 190.752487 150.181856 190.752487 
C 149.711796 190.752487 149.260925 190.939244 148.928542 191.271626 
C 148.596159 191.604009 148.409402 192.05488 148.409402 192.524941 
C 148.409402 192.995001 148.596159 193.445872 148.928542 193.778255 
C 149.260925 194.110637 149.711796 194.297394 150.181856 194.297394 
z
" clip-path="url(#p6e48170a1f)" style="fill: #91db57; stroke: #91db57; stroke-width: 0.886227"/>
    <path d="M 196.561077 220.95324 
C 197.031137 220.95324 197.482008 220.766483 197.814391 220.4341 
C 198.146774 220.101717 198.333531 219.650846 198.333531 219.180786 
C 198.333531 218.710726 198.146774 218.259855 197.814391 217.927472 
C 197.482008 217.595089 197.031137 217.408332 196.561077 217.408332 
C 196.091017 217.408332 195.640146 217.595089 195.307763 217.927472 
C 194.97538 218.259855 194.788623 218.710726 194.788623 219.180786 
C 194.788623 219.650846 194.97538 220.101717 195.307763 220.4341 
C 195.640146 220.766483 196.091017 220.95324 196.561077 220.95324 
z
" clip-path="url(#p6e48170a1f)" style="fill: #91db57; stroke: #91db57; stroke-width: 0.886227"/>
    <path d="M 242.940298 215.954369 
C 243.410358 215.954369 243.861229 215.767613 244.193612 215.43523 
C 244.525995 215.102847 244.712752 214.651976 244.712752 214.181916 
C 244.712752 213.711855 244.525995 213.260984 244.193612 212.928601 
C 243.861229 212.596219 243.410358 212.409462 242.940298 212.409462 
C 242.470238 212.409462 242.019367 212.596219 241.686984 212.928601 
C 241.354601 213.260984 241.167844 213.711855 241.167844 214.181916 
C 241.167844 214.651976 241.354601 215.102847 241.686984 215.43523 
C 242.019367 215.767613 242.470238 215.954369 242.940298 215.954369 
z
" clip-path="url(#p6e48170a1f)" style="fill: #91db57; stroke: #91db57; stroke-width: 0.886227"/>
    <path d="M 289.319519 209.387057 
C 289.789579 209.387057 290.24045 209.2003 290.572833 208.867917 
C 290.905216 208.535534 291.091973 208.084663 291.091973 207.614603 
C 291.091973 207.144543 290.905216 206.693672 290.572833 206.361289 
C 290.24045 206.028906 289.789579 205.842149 289.319519 205.842149 
C 288.849458 205.842149 288.398587 206.028906 288.066205 206.361289 
C 287.733822 206.693672 287.547065 207.144543 287.547065 207.614603 
C 287.547065 208.084663 287.733822 208.535534 288.066205 208.867917 
C 288.398587 209.2003 288.849458 209.387057 289.319519 209.387057 
z
" clip-path="url(#p6e48170a1f)" style="fill: #91db57; stroke: #91db57; stroke-width: 0.886227"/>
    <path d="M 335.698739 207.324579 
C 336.1688 207.324579 336.619671 207.137822 336.952054 206.805439 
C 337.284436 206.473057 337.471193 206.022185 337.471193 205.552125 
C 337.471193 205.082065 337.284436 204.631194 336.952054 204.298811 
C 336.619671 203.966428 336.1688 203.779671 335.698739 203.779671 
C 335.228679 203.779671 334.777808 203.966428 334.445425 204.298811 
C 334.113043 204.631194 333.926286 205.082065 333.926286 205.552125 
C 333.926286 206.022185 334.113043 206.473057 334.445425 206.805439 
C 334.777808 207.137822 335.228679 207.324579 335.698739 207.324579 
z
" clip-path="url(#p6e48170a1f)" style="fill: #91db57; stroke: #91db57; stroke-width: 0.886227"/>
    <path d="M 382.07796 222.628164 
C 382.54802 222.628164 382.998892 222.441407 383.331274 222.109024 
C 383.663657 221.776641 383.850414 221.32577 383.850414 220.85571 
C 383.850414 220.385649 383.663657 219.934778 383.331274 219.602396 
C 382.998892 219.270013 382.54802 219.083256 382.07796 219.083256 
C 381.6079 219.083256 381.157029 219.270013 380.824646 219.602396 
C 380.492263 219.934778 380.305506 220.385649 380.305506 220.85571 
C 380.305506 221.32577 380.492263 221.776641 380.824646 222.109024 
C 381.157029 222.441407 381.6079 222.628164 382.07796 222.628164 
z
" clip-path="url(#p6e48170a1f)" style="fill: #91db57; stroke: #91db57; stroke-width: 0.886227"/>
   </g>
   <g id="line2d_30">
    <path d="M 57.423415 37.110052 
L 103.802636 164.72466 
L 150.181856 205.839913 
L 196.561077 230.92156 
L 242.940298 243.148695 
L 289.319519 250.587045 
L 335.698739 256.112567 
L 382.07796 259.160237 
" clip-path="url(#p6e48170a1f)" style="fill: none; stroke: #db5f57; stroke-width: 0.886227"/>
   </g>
   <g id="line2d_31">
    <path d="M 57.423415 38.999857 
L 103.802636 151.611139 
L 150.181856 192.524941 
L 196.561077 219.180786 
L 242.940298 214.181916 
L 289.319519 207.614603 
L 335.698739 205.552125 
L 382.07796 220.85571 
" clip-path="url(#p6e48170a1f)" style="fill: none; stroke: #91db57; stroke-width: 0.886227"/>
   </g>
   <g id="patch_3">
    <path d="M 405.510688 192.930969 
L 521.676563 192.930969 
L 521.676563 84.125031 
L 405.510688 84.125031 
z
" style="fill: #ffffff"/>
   </g>
   <g id="text_10">
    <!-- name -->
    <g transform="translate(417.710688 107.718625) scale(0.11 -0.11)">
     <use xlink:href="#DejaVuSans-6e"/>
     <use xlink:href="#DejaVuSans-61" x="63.378906"/>
     <use xlink:href="#DejaVuSans-6d" x="124.658203"/>
     <use xlink:href="#DejaVuSans-65" x="222.070312"/>
    </g>
   </g>
   <g id="patch_4">
    <path d="M 417.710688 127.210969 
L 433.550687 127.210969 
L 433.550687 111.370969 
L 417.710688 111.370969 
z
" clip-path="url(#pda1729cdde)" style="fill: #f2f2f2"/>
   </g>
   <g id="patch_5">
    <path d="M 418.153801 126.767855 
L 433.107574 126.767855 
L 433.107574 111.814082 
L 418.153801 111.814082 
z
" clip-path="url(#pda1729cdde)" style="fill: #db5f57; fill-opacity: 0.298039"/>
   </g>
   <g id="line2d_32">
    <path d="M 425.630688 119.290969 
" clip-path="url(#pda1729cdde)" style="fill: none; stroke: #1f77b4; stroke-width: 1.5; stroke-linecap: square"/>
    <defs>
     <path id="m44ac99e66a" d="M 0 1.772454 
C 0.47006 1.772454 0.920931 1.585697 1.253314 1.253314 
C 1.585697 0.920931 1.772454 0.47006 1.772454 0 
C 1.772454 -0.47006 1.585697 -0.920931 1.253314 -1.253314 
C 0.920931 -1.585697 0.47006 -1.772454 0 -1.772454 
C -0.47006 -1.772454 -0.920931 -1.585697 -1.253314 -1.253314 
C -1.585697 -0.920931 -1.772454 -0.47006 -1.772454 0 
C -1.772454 0.47006 -1.585697 0.920931 -1.253314 1.253314 
C -0.920931 1.585697 -0.47006 1.772454 0 1.772454 
z
" style="stroke: #db5f57; stroke-width: 0.886227"/>
    </defs>
    <g clip-path="url(#pda1729cdde)">
     <use xlink:href="#m44ac99e66a" x="425.630688" y="119.290969" style="fill: #db5f57; stroke: #db5f57; stroke-width: 0.886227"/>
    </g>
   </g>
   <g id="line2d_33">
    <path d="M 417.710688 119.290969 
L 433.550687 119.290969 
" clip-path="url(#pda1729cdde)" style="fill: none; stroke: #db5f57; stroke-width: 0.886227"/>
   </g>
   <g id="text_11">
    <!-- domain_splitting -->
    <g transform="translate(436.550687 121.596844) scale(0.088 -0.088)">
     <defs>
      <path id="DejaVuSans-64" d="M 2906 2969 
L 2906 4863 
L 3481 4863 
L 3481 0 
L 2906 0 
L 2906 525 
Q 2725 213 2448 61 
Q 2172 -91 1784 -91 
Q 1150 -91 751 415 
Q 353 922 353 1747 
Q 353 2572 751 3078 
Q 1150 3584 1784 3584 
Q 2172 3584 2448 3432 
Q 2725 3281 2906 2969 
z
M 947 1747 
Q 947 1113 1208 752 
Q 1469 391 1925 391 
Q 2381 391 2643 752 
Q 2906 1113 2906 1747 
Q 2906 2381 2643 2742 
Q 2381 3103 1925 3103 
Q 1469 3103 1208 2742 
Q 947 2381 947 1747 
z
" transform="scale(0.015625)"/>
      <path id="DejaVuSans-6f" d="M 1959 3097 
Q 1497 3097 1228 2736 
Q 959 2375 959 1747 
Q 959 1119 1226 758 
Q 1494 397 1959 397 
Q 2419 397 2687 759 
Q 2956 1122 2956 1747 
Q 2956 2369 2687 2733 
Q 2419 3097 1959 3097 
z
M 1959 3584 
Q 2709 3584 3137 3096 
Q 3566 2609 3566 1747 
Q 3566 888 3137 398 
Q 2709 -91 1959 -91 
Q 1206 -91 779 398 
Q 353 888 353 1747 
Q 353 2609 779 3096 
Q 1206 3584 1959 3584 
z
" transform="scale(0.015625)"/>
      <path id="DejaVuSans-69" d="M 603 3500 
L 1178 3500 
L 1178 0 
L 603 0 
L 603 3500 
z
M 603 4863 
L 1178 4863 
L 1178 4134 
L 603 4134 
L 603 4863 
z
" transform="scale(0.015625)"/>
      <path id="DejaVuSans-5f" d="M 3263 -1063 
L 3263 -1509 
L -63 -1509 
L -63 -1063 
L 3263 -1063 
z
" transform="scale(0.015625)"/>
      <path id="DejaVuSans-73" d="M 2834 3397 
L 2834 2853 
Q 2591 2978 2328 3040 
Q 2066 3103 1784 3103 
Q 1356 3103 1142 2972 
Q 928 2841 928 2578 
Q 928 2378 1081 2264 
Q 1234 2150 1697 2047 
L 1894 2003 
Q 2506 1872 2764 1633 
Q 3022 1394 3022 966 
Q 3022 478 2636 193 
Q 2250 -91 1575 -91 
Q 1294 -91 989 -36 
Q 684 19 347 128 
L 347 722 
Q 666 556 975 473 
Q 1284 391 1588 391 
Q 1994 391 2212 530 
Q 2431 669 2431 922 
Q 2431 1156 2273 1281 
Q 2116 1406 1581 1522 
L 1381 1569 
Q 847 1681 609 1914 
Q 372 2147 372 2553 
Q 372 3047 722 3315 
Q 1072 3584 1716 3584 
Q 2034 3584 2315 3537 
Q 2597 3491 2834 3397 
z
" transform="scale(0.015625)"/>
      <path id="DejaVuSans-70" d="M 1159 525 
L 1159 -1331 
L 581 -1331 
L 581 3500 
L 1159 3500 
L 1159 2969 
Q 1341 3281 1617 3432 
Q 1894 3584 2278 3584 
Q 2916 3584 3314 3078 
Q 3713 2572 3713 1747 
Q 3713 922 3314 415 
Q 2916 -91 2278 -91 
Q 1894 -91 1617 61 
Q 1341 213 1159 525 
z
M 3116 1747 
Q 3116 2381 2855 2742 
Q 2594 3103 2138 3103 
Q 1681 3103 1420 2742 
Q 1159 2381 1159 1747 
Q 1159 1113 1420 752 
Q 1681 391 2138 391 
Q 2594 391 2855 752 
Q 3116 1113 3116 1747 
z
" transform="scale(0.015625)"/>
      <path id="DejaVuSans-6c" d="M 603 4863 
L 1178 4863 
L 1178 0 
L 603 0 
L 603 4863 
z
" transform="scale(0.015625)"/>
      <path id="DejaVuSans-74" d="M 1172 4494 
L 1172 3500 
L 2356 3500 
L 2356 3053 
L 1172 3053 
L 1172 1153 
Q 1172 725 1289 603 
Q 1406 481 1766 481 
L 2356 481 
L 2356 0 
L 1766 0 
Q 1100 0 847 248 
Q 594 497 594 1153 
L 594 3053 
L 172 3053 
L 172 3500 
L 594 3500 
L 594 4494 
L 1172 4494 
z
" transform="scale(0.015625)"/>
      <path id="DejaVuSans-67" d="M 2906 1791 
Q 2906 2416 2648 2759 
Q 2391 3103 1925 3103 
Q 1463 3103 1205 2759 
Q 947 2416 947 1791 
Q 947 1169 1205 825 
Q 1463 481 1925 481 
Q 2391 481 2648 825 
Q 2906 1169 2906 1791 
z
M 3481 434 
Q 3481 -459 3084 -895 
Q 2688 -1331 1869 -1331 
Q 1566 -1331 1297 -1286 
Q 1028 -1241 775 -1147 
L 775 -588 
Q 1028 -725 1275 -790 
Q 1522 -856 1778 -856 
Q 2344 -856 2625 -561 
Q 2906 -266 2906 331 
L 2906 616 
Q 2728 306 2450 153 
Q 2172 0 1784 0 
Q 1141 0 747 490 
Q 353 981 353 1791 
Q 353 2603 747 3093 
Q 1141 3584 1784 3584 
Q 2172 3584 2450 3431 
Q 2728 3278 2906 2969 
L 2906 3500 
L 3481 3500 
L 3481 434 
z
" transform="scale(0.015625)"/>
     </defs>
     <use xlink:href="#DejaVuSans-64"/>
     <use xlink:href="#DejaVuSans-6f" x="63.476562"/>
     <use xlink:href="#DejaVuSans-6d" x="124.658203"/>
     <use xlink:href="#DejaVuSans-61" x="222.070312"/>
     <use xlink:href="#DejaVuSans-69" x="283.349609"/>
     <use xlink:href="#DejaVuSans-6e" x="311.132812"/>
     <use xlink:href="#DejaVuSans-5f" x="374.511719"/>
     <use xlink:href="#DejaVuSans-73" x="424.511719"/>
     <use xlink:href="#DejaVuSans-70" x="476.611328"/>
     <use xlink:href="#DejaVuSans-6c" x="540.087891"/>
     <use xlink:href="#DejaVuSans-69" x="567.871094"/>
     <use xlink:href="#DejaVuSans-74" x="595.654297"/>
     <use xlink:href="#DejaVuSans-74" x="634.863281"/>
     <use xlink:href="#DejaVuSans-69" x="674.072266"/>
     <use xlink:href="#DejaVuSans-6e" x="701.855469"/>
     <use xlink:href="#DejaVuSans-67" x="765.234375"/>
    </g>
   </g>
   <g id="patch_6">
    <path d="M 417.710688 145.050969 
L 433.550687 145.050969 
L 433.550687 129.210969 
L 417.710688 129.210969 
z
" clip-path="url(#p5b72a30553)" style="fill: #f2f2f2"/>
   </g>
   <g id="patch_7">
    <path d="M 418.153801 144.607855 
L 433.107574 144.607855 
L 433.107574 129.654082 
L 418.153801 129.654082 
z
" clip-path="url(#p5b72a30553)" style="fill: #91db57; fill-opacity: 0.298039"/>
   </g>
   <g id="line2d_34">
    <path d="M 425.630688 137.130969 
" clip-path="url(#p5b72a30553)" style="fill: none; stroke: #1f77b4; stroke-width: 1.5; stroke-linecap: square"/>
    <defs>
     <path id="m0a6d62667c" d="M 0 1.772454 
C 0.47006 1.772454 0.920931 1.585697 1.253314 1.253314 
C 1.585697 0.920931 1.772454 0.47006 1.772454 0 
C 1.772454 -0.47006 1.585697 -0.920931 1.253314 -1.253314 
C 0.920931 -1.585697 0.47006 -1.772454 0 -1.772454 
C -0.47006 -1.772454 -0.920931 -1.585697 -1.253314 -1.253314 
C -1.585697 -0.920931 -1.772454 -0.47006 -1.772454 0 
C -1.772454 0.47006 -1.585697 0.920931 -1.253314 1.253314 
C -0.920931 1.585697 -0.47006 1.772454 0 1.772454 
z
" style="stroke: #91db57; stroke-width: 0.886227"/>
    </defs>
    <g clip-path="url(#p5b72a30553)">
     <use xlink:href="#m0a6d62667c" x="425.630688" y="137.130969" style="fill: #91db57; stroke: #91db57; stroke-width: 0.886227"/>
    </g>
   </g>
   <g id="line2d_35">
    <path d="M 417.710688 137.130969 
L 433.550687 137.130969 
" clip-path="url(#p5b72a30553)" style="fill: none; stroke: #91db57; stroke-width: 0.886227"/>
   </g>
   <g id="text_12">
    <!-- numba_parallel -->
    <g transform="translate(436.550687 139.436844) scale(0.088 -0.088)">
     <defs>
      <path id="DejaVuSans-75" d="M 544 1381 
L 544 3500 
L 1119 3500 
L 1119 1403 
Q 1119 906 1312 657 
Q 1506 409 1894 409 
Q 2359 409 2629 706 
Q 2900 1003 2900 1516 
L 2900 3500 
L 3475 3500 
L 3475 0 
L 2900 0 
L 2900 538 
Q 2691 219 2414 64 
Q 2138 -91 1772 -91 
Q 1169 -91 856 284 
Q 544 659 544 1381 
z
M 1991 3584 
L 1991 3584 
z
" transform="scale(0.015625)"/>
      <path id="DejaVuSans-62" d="M 3116 1747 
Q 3116 2381 2855 2742 
Q 2594 3103 2138 3103 
Q 1681 3103 1420 2742 
Q 1159 2381 1159 1747 
Q 1159 1113 1420 752 
Q 1681 391 2138 391 
Q 2594 391 2855 752 
Q 3116 1113 3116 1747 
z
M 1159 2969 
Q 1341 3281 1617 3432 
Q 1894 3584 2278 3584 
Q 2916 3584 3314 3078 
Q 3713 2572 3713 1747 
Q 3713 922 3314 415 
Q 2916 -91 2278 -91 
Q 1894 -91 1617 61 
Q 1341 213 1159 525 
L 1159 0 
L 581 0 
L 581 4863 
L 1159 4863 
L 1159 2969 
z
" transform="scale(0.015625)"/>
      <path id="DejaVuSans-72" d="M 2631 2963 
Q 2534 3019 2420 3045 
Q 2306 3072 2169 3072 
Q 1681 3072 1420 2755 
Q 1159 2438 1159 1844 
L 1159 0 
L 581 0 
L 581 3500 
L 1159 3500 
L 1159 2956 
Q 1341 3275 1631 3429 
Q 1922 3584 2338 3584 
Q 2397 3584 2469 3576 
Q 2541 3569 2628 3553 
L 2631 2963 
z
" transform="scale(0.015625)"/>
     </defs>
     <use xlink:href="#DejaVuSans-6e"/>
     <use xlink:href="#DejaVuSans-75" x="63.378906"/>
     <use xlink:href="#DejaVuSans-6d" x="126.757812"/>
     <use xlink:href="#DejaVuSans-62" x="224.169922"/>
     <use xlink:href="#DejaVuSans-61" x="287.646484"/>
     <use xlink:href="#DejaVuSans-5f" x="348.925781"/>
     <use xlink:href="#DejaVuSans-70" x="398.925781"/>
     <use xlink:href="#DejaVuSans-61" x="462.402344"/>
     <use xlink:href="#DejaVuSans-72" x="523.681641"/>
     <use xlink:href="#DejaVuSans-61" x="564.794922"/>
     <use xlink:href="#DejaVuSans-6c" x="626.074219"/>
     <use xlink:href="#DejaVuSans-6c" x="653.857422"/>
     <use xlink:href="#DejaVuSans-65" x="681.640625"/>
     <use xlink:href="#DejaVuSans-6c" x="743.164062"/>
    </g>
   </g>
   <g id="patch_8">
    <path d="M 417.710688 162.890969 
L 433.550687 162.890969 
L 433.550687 147.050969 
L 417.710688 147.050969 
z
" clip-path="url(#p2208252123)" style="fill: #f2f2f2"/>
   </g>
   <g id="patch_9">
    <path d="M 418.153801 162.447855 
L 433.107574 162.447855 
L 433.107574 147.494082 
L 418.153801 147.494082 
z
" clip-path="url(#p2208252123)" style="fill: #57d3db; fill-opacity: 0.298039"/>
   </g>
   <g id="line2d_36">
    <path d="M 425.630688 154.970969 
" clip-path="url(#p2208252123)" style="fill: none; stroke: #1f77b4; stroke-width: 1.5; stroke-linecap: square"/>
    <defs>
     <path id="mcbd26e0d50" d="M 0 1.772454 
C 0.47006 1.772454 0.920931 1.585697 1.253314 1.253314 
C 1.585697 0.920931 1.772454 0.47006 1.772454 0 
C 1.772454 -0.47006 1.585697 -0.920931 1.253314 -1.253314 
C 0.920931 -1.585697 0.47006 -1.772454 0 -1.772454 
C -0.47006 -1.772454 -0.920931 -1.585697 -1.253314 -1.253314 
C -1.585697 -0.920931 -1.772454 -0.47006 -1.772454 0 
C -1.772454 0.47006 -1.585697 0.920931 -1.253314 1.253314 
C -0.920931 1.585697 -0.47006 1.772454 0 1.772454 
z
" style="stroke: #57d3db; stroke-width: 0.886227"/>
    </defs>
    <g clip-path="url(#p2208252123)">
     <use xlink:href="#mcbd26e0d50" x="425.630688" y="154.970969" style="fill: #57d3db; stroke: #57d3db; stroke-width: 0.886227"/>
    </g>
   </g>
   <g id="line2d_37">
    <path d="M 417.710688 154.970969 
L 433.550687 154.970969 
" clip-path="url(#p2208252123)" style="fill: none; stroke: #57d3db; stroke-width: 0.886227"/>
   </g>
   <g id="text_13">
    <!-- numba_serial -->
    <g transform="translate(436.550687 157.276844) scale(0.088 -0.088)">
     <use xlink:href="#DejaVuSans-6e"/>
     <use xlink:href="#DejaVuSans-75" x="63.378906"/>
     <use xlink:href="#DejaVuSans-6d" x="126.757812"/>
     <use xlink:href="#DejaVuSans-62" x="224.169922"/>
     <use xlink:href="#DejaVuSans-61" x="287.646484"/>
     <use xlink:href="#DejaVuSans-5f" x="348.925781"/>
     <use xlink:href="#DejaVuSans-73" x="398.925781"/>
     <use xlink:href="#DejaVuSans-65" x="451.025391"/>
     <use xlink:href="#DejaVuSans-72" x="512.548828"/>
     <use xlink:href="#DejaVuSans-69" x="553.662109"/>
     <use xlink:href="#DejaVuSans-61" x="581.445312"/>
     <use xlink:href="#DejaVuSans-6c" x="642.724609"/>
    </g>
   </g>
   <g id="patch_10">
    <path d="M 417.710688 180.730969 
L 433.550687 180.730969 
L 433.550687 164.890969 
L 417.710688 164.890969 
z
" clip-path="url(#p61889f9e52)" style="fill: #f2f2f2"/>
   </g>
   <g id="patch_11">
    <path d="M 418.153801 180.287855 
L 433.107574 180.287855 
L 433.107574 165.334082 
L 418.153801 165.334082 
z
" clip-path="url(#p61889f9e52)" style="fill: #a157db; fill-opacity: 0.298039"/>
   </g>
   <g id="line2d_38">
    <path d="M 425.630688 172.810969 
" clip-path="url(#p61889f9e52)" style="fill: none; stroke: #1f77b4; stroke-width: 1.5; stroke-linecap: square"/>
    <defs>
     <path id="mc80b8665b6" d="M 0 1.772454 
C 0.47006 1.772454 0.920931 1.585697 1.253314 1.253314 
C 1.585697 0.920931 1.772454 0.47006 1.772454 0 
C 1.772454 -0.47006 1.585697 -0.920931 1.253314 -1.253314 
C 0.920931 -1.585697 0.47006 -1.772454 0 -1.772454 
C -0.47006 -1.772454 -0.920931 -1.585697 -1.253314 -1.253314 
C -1.585697 -0.920931 -1.772454 -0.47006 -1.772454 0 
C -1.772454 0.47006 -1.585697 0.920931 -1.253314 1.253314 
C -0.920931 1.585697 -0.47006 1.772454 0 1.772454 
z
" style="stroke: #a157db; stroke-width: 0.886227"/>
    </defs>
    <g clip-path="url(#p61889f9e52)">
     <use xlink:href="#mc80b8665b6" x="425.630688" y="172.810969" style="fill: #a157db; stroke: #a157db; stroke-width: 0.886227"/>
    </g>
   </g>
   <g id="line2d_39">
    <path d="M 417.710688 172.810969 
L 433.550687 172.810969 
" clip-path="url(#p61889f9e52)" style="fill: none; stroke: #a157db; stroke-width: 0.886227"/>
   </g>
   <g id="text_14">
    <!-- vectorized -->
    <g transform="translate(436.550687 175.239219) scale(0.088 -0.088)">
     <defs>
      <path id="DejaVuSans-76" d="M 191 3500 
L 800 3500 
L 1894 563 
L 2988 3500 
L 3597 3500 
L 2284 0 
L 1503 0 
L 191 3500 
z
" transform="scale(0.015625)"/>
      <path id="DejaVuSans-63" d="M 3122 3366 
L 3122 2828 
Q 2878 2963 2633 3030 
Q 2388 3097 2138 3097 
Q 1578 3097 1268 2742 
Q 959 2388 959 1747 
Q 959 1106 1268 751 
Q 1578 397 2138 397 
Q 2388 397 2633 464 
Q 2878 531 3122 666 
L 3122 134 
Q 2881 22 2623 -34 
Q 2366 -91 2075 -91 
Q 1284 -91 818 406 
Q 353 903 353 1747 
Q 353 2603 823 3093 
Q 1294 3584 2113 3584 
Q 2378 3584 2631 3529 
Q 2884 3475 3122 3366 
z
" transform="scale(0.015625)"/>
      <path id="DejaVuSans-7a" d="M 353 3500 
L 3084 3500 
L 3084 2975 
L 922 459 
L 3084 459 
L 3084 0 
L 275 0 
L 275 525 
L 2438 3041 
L 353 3041 
L 353 3500 
z
" transform="scale(0.015625)"/>
     </defs>
     <use xlink:href="#DejaVuSans-76"/>
     <use xlink:href="#DejaVuSans-65" x="59.179688"/>
     <use xlink:href="#DejaVuSans-63" x="120.703125"/>
     <use xlink:href="#DejaVuSans-74" x="175.683594"/>
     <use xlink:href="#DejaVuSans-6f" x="214.892578"/>
     <use xlink:href="#DejaVuSans-72" x="276.074219"/>
     <use xlink:href="#DejaVuSans-69" x="317.1875"/>
     <use xlink:href="#DejaVuSans-7a" x="344.970703"/>
     <use xlink:href="#DejaVuSans-65" x="397.460938"/>
     <use xlink:href="#DejaVuSans-64" x="458.984375"/>
    </g>
   </g>
  </g>
 </g>
 <defs>
  <clipPath id="p6e48170a1f">
   <rect x="41.190688" y="7.2" width="357.12" height="266.112"/>
  </clipPath>
  <clipPath id="pda1729cdde">
   <path d="M 417.710688 127.210969 
L 417.710688 111.370969 
L 433.550687 111.370969 
L 433.550687 127.210969 
"/>
  </clipPath>
  <clipPath id="p5b72a30553">
   <path d="M 417.710688 145.050969 
L 417.710688 129.210969 
L 433.550687 129.210969 
L 433.550687 145.050969 
"/>
  </clipPath>
  <clipPath id="p2208252123">
   <path d="M 417.710688 162.890969 
L 417.710688 147.050969 
L 433.550687 147.050969 
L 433.550687 162.890969 
"/>
  </clipPath>
  <clipPath id="p61889f9e52">
   <path d="M 417.710688 180.730969 
L 417.710688 164.890969 
L 433.550687 164.890969 
L 433.550687 180.730969 
"/>
  </clipPath>
 </defs>
</svg>
