<?xml version="1.0" encoding="UTF-8" standalone="no"?>
<!DOCTYPE svg PUBLIC "-//W3C//DTD SVG 1.1//EN"
 "http://www.w3.org/Graphics/SVG/1.1/DTD/svg11.dtd">
<!-- Generated by graphviz version 2.40.1 (0)
 -->
<!-- Title: MPI Pages: 1 -->
<svg width="286pt" height="332pt"
 viewBox="0.00 0.00 286.19 332.00" xmlns="http://www.w3.org/2000/svg" xmlns:xlink="http://www.w3.org/1999/xlink">
<g id="graph0" class="graph" transform="scale(1 1) rotate(0) translate(4 328)">
<title>MPI</title>
<polygon fill="#ffffff" stroke="transparent" points="-4,4 -4,-328 282.1924,-328 282.1924,4 -4,4"/>
<!-- worker 1 -->
<g id="node1" class="node">
<title>worker 1</title>
<ellipse fill="none" stroke="#000000" cx="106.197" cy="-306" rx="51.9908" ry="18"/>
<text text-anchor="middle" x="106.197" y="-302.3" font-family="Times,serif" font-size="14.00" fill="#000000">worker 1</text>
</g>
<!-- worker 2 -->
<g id="node2" class="node">
<title>worker 2</title>
<ellipse fill="none" stroke="#000000" cx="146.197" cy="-234" rx="51.9908" ry="18"/>
<text text-anchor="middle" x="146.197" y="-230.3" font-family="Times,serif" font-size="14.00" fill="#000000">worker 2</text>
</g>
<!-- worker 1&#45;&gt;worker 2 -->
<g id="edge1" class="edge">
<title>worker 1&#45;&gt;worker 2</title>
<path fill="none" stroke="#000000" d="M120.971,-279.4068C124.32,-273.3787 127.8792,-266.9721 131.2359,-260.9301"/>
<polygon fill="#000000" stroke="#000000" points="117.8816,-277.7609 116.0847,-288.2022 124.0007,-281.1604 117.8816,-277.7609"/>
<polygon fill="#000000" stroke="#000000" points="134.4876,-262.2839 136.2845,-251.8425 128.3685,-258.8844 134.4876,-262.2839"/>
</g>
<!-- worker 3 -->
<g id="node3" class="node">
<title>worker 3</title>
<ellipse fill="none" stroke="#000000" cx="66.197" cy="-162" rx="51.9908" ry="18"/>
<text text-anchor="middle" x="66.197" y="-158.3" font-family="Times,serif" font-size="14.00" fill="#000000">worker 3</text>
</g>
<!-- worker 1&#45;&gt;worker 3 -->
<g id="edge2" class="edge">
<title>worker 1&#45;&gt;worker 3</title>
<path fill="none" stroke="#000000" d="M94.4797,-278.4307C91.186,-270.0421 87.7974,-260.7306 85.197,-252 79.1286,-231.6253 74.2336,-208.1032 70.9326,-190.2169"/>
<polygon fill="#000000" stroke="#000000" points="91.2592,-279.8031 98.2498,-287.7644 97.7498,-277.1813 91.2592,-279.8031"/>
<polygon fill="#000000" stroke="#000000" points="74.3374,-189.3735 69.1318,-180.1457 67.4467,-190.6057 74.3374,-189.3735"/>
</g>
<!-- worker 4 -->
<g id="node4" class="node">
<title>worker 4</title>
<ellipse fill="none" stroke="#000000" cx="226.197" cy="-90" rx="51.9908" ry="18"/>
<text text-anchor="middle" x="226.197" y="-86.3" font-family="Times,serif" font-size="14.00" fill="#000000">worker 4</text>
</g>
<!-- worker 1&#45;&gt;worker 4 -->
<g id="edge3" class="edge">
<title>worker 1&#45;&gt;worker 4</title>
<path fill="none" stroke="#000000" d="M155.71,-290.7797C174.8161,-282.3887 194.9745,-269.9317 207.197,-252 234.4693,-211.9889 233.7856,-153.1517 230.3246,-118.4891"/>
<polygon fill="#000000" stroke="#000000" points="154.3767,-287.5436 146.4546,-294.5786 157.0346,-294.0194 154.3767,-287.5436"/>
<polygon fill="#000000" stroke="#000000" points="233.7541,-117.674 229.1352,-108.1389 226.7998,-118.4732 233.7541,-117.674"/>
</g>
<!-- worker 5 -->
<g id="node5" class="node">
<title>worker 5</title>
<ellipse fill="none" stroke="#000000" cx="126.197" cy="-18" rx="51.9908" ry="18"/>
<text text-anchor="middle" x="126.197" y="-14.3" font-family="Times,serif" font-size="14.00" fill="#000000">worker 5</text>
</g>
<!-- worker 1&#45;&gt;worker 5 -->
<g id="edge4" class="edge">
<title>worker 1&#45;&gt;worker 5</title>
<path fill="none" stroke="#000000" d="M75.3232,-283.4159C38.2627,-253.3158 -16.3709,-197.5975 5.197,-144 22.9728,-99.8263 64.4561,-62.4436 93.882,-40.1369"/>
<polygon fill="#000000" stroke="#000000" points="73.3746,-286.337 83.3897,-289.7937 77.7161,-280.846 73.3746,-286.337"/>
<polygon fill="#000000" stroke="#000000" points="96.2493,-42.7394 102.2092,-33.9797 92.0876,-37.1108 96.2493,-42.7394"/>
</g>
<!-- worker 2&#45;&gt;worker 3 -->
<g id="edge5" class="edge">
<title>worker 2&#45;&gt;worker 3</title>
<path fill="none" stroke="#000000" d="M119.6969,-210.1498C111.0084,-202.3302 101.3573,-193.6442 92.6708,-185.8263"/>
<polygon fill="#000000" stroke="#000000" points="117.4638,-212.8489 127.2382,-216.937 122.1466,-207.6458 117.4638,-212.8489"/>
<polygon fill="#000000" stroke="#000000" points="94.7942,-183.0287 85.0198,-178.9405 90.1114,-188.2317 94.7942,-183.0287"/>
</g>
<!-- worker 2&#45;&gt;worker 4 -->
<g id="edge6" class="edge">
<title>worker 2&#45;&gt;worker 4</title>
<path fill="none" stroke="#000000" d="M161.0581,-207.2502C175.4306,-181.3797 197.0846,-142.4025 211.4264,-116.5871"/>
<polygon fill="#000000" stroke="#000000" points="157.9643,-205.6121 156.1673,-216.0535 164.0834,-209.0116 157.9643,-205.6121"/>
<polygon fill="#000000" stroke="#000000" points="214.5555,-118.1617 216.3524,-107.7204 208.4364,-114.7622 214.5555,-118.1617"/>
</g>
<!-- worker 2&#45;&gt;worker 5 -->
<g id="edge7" class="edge">
<title>worker 2&#45;&gt;worker 5</title>
<path fill="none" stroke="#000000" d="M143.604,-205.9956C139.7721,-164.6108 132.6377,-87.5589 128.8,-46.1123"/>
<polygon fill="#000000" stroke="#000000" points="140.1191,-206.3208 144.5263,-215.9555 147.0893,-205.6753 140.1191,-206.3208"/>
<polygon fill="#000000" stroke="#000000" points="132.2843,-45.7797 127.8771,-36.1451 125.3141,-46.4252 132.2843,-45.7797"/>
</g>
<!-- worker 3&#45;&gt;worker 4 -->
<g id="edge8" class="edge">
<title>worker 3&#45;&gt;worker 4</title>
<path fill="none" stroke="#000000" d="M107.4041,-143.4568C131.284,-132.7109 161.2484,-119.2269 185.1082,-108.49"/>
<polygon fill="#000000" stroke="#000000" points="105.8738,-140.3073 98.1909,-147.6028 108.7464,-146.6908 105.8738,-140.3073"/>
<polygon fill="#000000" stroke="#000000" points="186.5757,-111.6677 194.2587,-104.3723 183.7031,-105.2843 186.5757,-111.6677"/>
</g>
<!-- worker 3&#45;&gt;worker 5 -->
<g id="edge9" class="edge">
<title>worker 3&#45;&gt;worker 5</title>
<path fill="none" stroke="#000000" d="M77.6354,-134.5479C88.2655,-109.0358 104.0174,-71.2312 114.6744,-45.6544"/>
<polygon fill="#000000" stroke="#000000" points="74.2902,-133.4765 73.6748,-144.0535 80.7518,-136.1689 74.2902,-133.4765"/>
<polygon fill="#000000" stroke="#000000" points="118.0096,-46.7497 118.6251,-36.1727 111.5481,-44.0573 118.0096,-46.7497"/>
</g>
<!-- worker 4&#45;&gt;worker 5 -->
<g id="edge10" class="edge">
<title>worker 4&#45;&gt;worker 5</title>
<path fill="none" stroke="#000000" d="M195.0457,-67.571C182.9986,-58.8971 169.2412,-48.9918 157.2075,-40.3275"/>
<polygon fill="#000000" stroke="#000000" points="193.3451,-70.6594 203.5055,-73.6621 197.4352,-64.9786 193.3451,-70.6594"/>
<polygon fill="#000000" stroke="#000000" points="158.9592,-37.276 148.7988,-34.2733 154.8691,-42.9567 158.9592,-37.276"/>
</g>
</g>
</svg>
