<?xml version="1.0" encoding="UTF-8" standalone="no"?>
<!DOCTYPE svg PUBLIC "-//W3C//DTD SVG 1.1//EN"
 "http://www.w3.org/Graphics/SVG/1.1/DTD/svg11.dtd">
<!-- Generated by graphviz version 2.44.0 (0)
 -->
<!-- Pages: 1 -->
<svg width="703pt" height="146pt"
 viewBox="0.00 0.00 703.48 145.79" xmlns="http://www.w3.org/2000/svg" xmlns:xlink="http://www.w3.org/1999/xlink">
<g id="graph0" class="graph" transform="scale(1 1) rotate(0) translate(4 141.79)">
<polygon fill="white" stroke="transparent" points="-4,4 -4,-141.79 699.48,-141.79 699.48,4 -4,4"/>
<!-- &#45;2432114205359798105 -->
<g id="node1" class="node">
<title>&#45;2432114205359798105</title>
<ellipse fill="none" stroke="black" cx="577.53" cy="-69.9" rx="27.9" ry="27.9"/>
<text text-anchor="middle" x="577.53" y="-66.2" font-family="Times-Roman" font-size="14.00">add</text>
</g>
<!-- 9027367905028460049 -->
<g id="node2" class="node">
<title>9027367905028460049</title>
<defs>
<linearGradient id="l_0" gradientUnits="userSpaceOnUse" x1="649.39" y1="-82.63" x2="687.57" y2="-57.17" >
<stop offset="0" style="stop-color:#ffffff;stop-opacity:1.;"/>
<stop offset="1" style="stop-color:#dddddd;stop-opacity:1.;"/>
</linearGradient>
</defs>
<polygon fill="url(#l_0)" stroke="black" points="695.48,-87.9 641.48,-87.9 641.48,-51.9 695.48,-51.9 695.48,-87.9"/>
<text text-anchor="middle" x="668.48" y="-66.2" font-family="Times-Roman" font-size="14.00">18</text>
</g>
<!-- &#45;2432114205359798105&#45;&gt;9027367905028460049 -->
<g id="edge1" class="edge">
<title>&#45;2432114205359798105&#45;&gt;9027367905028460049</title>
<path fill="none" stroke="black" d="M605.7,-69.9C613.77,-69.9 622.73,-69.9 631.27,-69.9"/>
<polygon fill="black" stroke="black" points="631.39,-73.4 641.39,-69.9 631.39,-66.4 631.39,-73.4"/>
</g>
<!-- &#45;3145956653185575406 -->
<g id="node3" class="node">
<title>&#45;3145956653185575406</title>
<defs>
<linearGradient id="l_1" gradientUnits="userSpaceOnUse" x1="467.49" y1="-114.63" x2="505.68" y2="-89.17" >
<stop offset="0" style="stop-color:#ffffff;stop-opacity:1.;"/>
<stop offset="1" style="stop-color:#dddddd;stop-opacity:1.;"/>
</linearGradient>
</defs>
<polygon fill="url(#l_1)" stroke="black" points="513.58,-119.9 459.58,-119.9 459.58,-83.9 513.58,-83.9 513.58,-119.9"/>
<text text-anchor="middle" x="486.58" y="-98.2" font-family="Times-Roman" font-size="14.00">10</text>
</g>
<!-- &#45;3145956653185575406&#45;&gt;&#45;2432114205359798105 -->
<g id="edge2" class="edge">
<title>&#45;3145956653185575406&#45;&gt;&#45;2432114205359798105</title>
<path fill="none" stroke="black" d="M513.79,-92.47C522.37,-89.38 532.05,-85.9 541.19,-82.61"/>
<polygon fill="black" stroke="black" points="542.6,-85.83 550.82,-79.15 540.23,-79.24 542.6,-85.83"/>
</g>
<!-- &#45;5317357586981099522 -->
<g id="node4" class="node">
<title>&#45;5317357586981099522</title>
<defs>
<linearGradient id="l_2" gradientUnits="userSpaceOnUse" x1="467.49" y1="-55.63" x2="505.68" y2="-30.17" >
<stop offset="0" style="stop-color:#ffffff;stop-opacity:1.;"/>
<stop offset="1" style="stop-color:#dddddd;stop-opacity:1.;"/>
</linearGradient>
</defs>
<polygon fill="url(#l_2)" stroke="black" points="513.58,-60.9 459.58,-60.9 459.58,-24.9 513.58,-24.9 513.58,-60.9"/>
<text text-anchor="middle" x="486.58" y="-39.2" font-family="Times-Roman" font-size="14.00">8</text>
</g>
<!-- &#45;5317357586981099522&#45;&gt;&#45;2432114205359798105 -->
<g id="edge3" class="edge">
<title>&#45;5317357586981099522&#45;&gt;&#45;2432114205359798105</title>
<path fill="none" stroke="black" d="M513.79,-50.85C522.21,-53.41 531.68,-56.28 540.66,-59.01"/>
<polygon fill="black" stroke="black" points="539.93,-62.44 550.51,-62 541.96,-55.75 539.93,-62.44"/>
</g>
<!-- 8022138330764778642 -->
<g id="node5" class="node">
<title>8022138330764778642</title>
<ellipse fill="none" stroke="black" cx="29.9" cy="-29.9" rx="29.8" ry="29.8"/>
<text text-anchor="middle" x="29.9" y="-26.2" font-family="Times-Roman" font-size="14.00">zero</text>
</g>
<!-- &#45;6188198574139323146 -->
<g id="node6" class="node">
<title>&#45;6188198574139323146</title>
<defs>
<linearGradient id="l_3" gradientUnits="userSpaceOnUse" x1="103.7" y1="-44.63" x2="141.89" y2="-19.17" >
<stop offset="0" style="stop-color:#ffffff;stop-opacity:1.;"/>
<stop offset="1" style="stop-color:#dddddd;stop-opacity:1.;"/>
</linearGradient>
</defs>
<polygon fill="url(#l_3)" stroke="black" points="149.79,-49.9 95.79,-49.9 95.79,-13.9 149.79,-13.9 149.79,-49.9"/>
<text text-anchor="middle" x="122.79" y="-28.2" font-family="Times-Roman" font-size="14.00">0</text>
</g>
<!-- 8022138330764778642&#45;&gt;&#45;6188198574139323146 -->
<g id="edge4" class="edge">
<title>8022138330764778642&#45;&gt;&#45;6188198574139323146</title>
<path fill="none" stroke="black" d="M59.91,-30.54C68.03,-30.71 76.97,-30.91 85.46,-31.1"/>
<polygon fill="black" stroke="black" points="85.45,-34.6 95.52,-31.32 85.6,-27.6 85.45,-34.6"/>
</g>
<!-- 3614651785273473648 -->
<g id="node7" class="node">
<title>3614651785273473648</title>
<ellipse fill="none" stroke="black" cx="213.74" cy="-32.9" rx="27.9" ry="27.9"/>
<text text-anchor="middle" x="213.74" y="-29.2" font-family="Times-Roman" font-size="14.00">add</text>
</g>
<!-- &#45;6188198574139323146&#45;&gt;3614651785273473648 -->
<g id="edge6" class="edge">
<title>&#45;6188198574139323146&#45;&gt;3614651785273473648</title>
<path fill="none" stroke="black" d="M150,-32.19C157.94,-32.28 166.83,-32.38 175.35,-32.48"/>
<polygon fill="black" stroke="black" points="175.45,-35.98 185.49,-32.59 175.53,-28.98 175.45,-35.98"/>
</g>
<!-- 5514536963268394863 -->
<g id="node8" class="node">
<title>5514536963268394863</title>
<defs>
<linearGradient id="l_4" gradientUnits="userSpaceOnUse" x1="285.6" y1="-45.63" x2="323.78" y2="-20.17" >
<stop offset="0" style="stop-color:#ffffff;stop-opacity:1.;"/>
<stop offset="1" style="stop-color:#dddddd;stop-opacity:1.;"/>
</linearGradient>
</defs>
<polygon fill="url(#l_4)" stroke="black" points="331.69,-50.9 277.69,-50.9 277.69,-14.9 331.69,-14.9 331.69,-50.9"/>
<text text-anchor="middle" x="304.69" y="-29.2" font-family="Times-Roman" font-size="14.00">3</text>
</g>
<!-- 3614651785273473648&#45;&gt;5514536963268394863 -->
<g id="edge5" class="edge">
<title>3614651785273473648&#45;&gt;5514536963268394863</title>
<path fill="none" stroke="black" d="M241.91,-32.9C249.98,-32.9 258.94,-32.9 267.48,-32.9"/>
<polygon fill="black" stroke="black" points="267.6,-36.4 277.6,-32.9 267.6,-29.4 267.6,-36.4"/>
</g>
<!-- 61063325496598770 -->
<g id="node9" class="node">
<title>61063325496598770</title>
<ellipse fill="none" stroke="black" cx="395.64" cy="-32.9" rx="27.9" ry="27.9"/>
<text text-anchor="middle" x="395.64" y="-29.2" font-family="Times-Roman" font-size="14.00">add</text>
</g>
<!-- 5514536963268394863&#45;&gt;61063325496598770 -->
<g id="edge8" class="edge">
<title>5514536963268394863&#45;&gt;61063325496598770</title>
<path fill="none" stroke="black" d="M331.9,-32.9C339.84,-32.9 348.72,-32.9 357.25,-32.9"/>
<polygon fill="black" stroke="black" points="357.38,-36.4 367.38,-32.9 357.38,-29.4 357.38,-36.4"/>
</g>
<!-- 61063325496598770&#45;&gt;&#45;5317357586981099522 -->
<g id="edge7" class="edge">
<title>61063325496598770&#45;&gt;&#45;5317357586981099522</title>
<path fill="none" stroke="black" d="M423.81,-35.95C431.87,-36.86 440.83,-37.87 449.37,-38.83"/>
<polygon fill="black" stroke="black" points="449.17,-42.32 459.49,-39.96 449.95,-35.37 449.17,-42.32"/>
</g>
<!-- &#45;2330651624138482270 -->
<g id="node10" class="node">
<title>&#45;2330651624138482270</title>
<ellipse fill="none" stroke="black" cx="29.9" cy="-107.9" rx="29.8" ry="29.8"/>
<text text-anchor="middle" x="29.9" y="-104.2" font-family="Times-Roman" font-size="14.00">zero</text>
</g>
<!-- 8732183852399584367 -->
<g id="node11" class="node">
<title>8732183852399584367</title>
<defs>
<linearGradient id="l_5" gradientUnits="userSpaceOnUse" x1="103.7" y1="-119.63" x2="141.89" y2="-94.17" >
<stop offset="0" style="stop-color:#ffffff;stop-opacity:1.;"/>
<stop offset="1" style="stop-color:#dddddd;stop-opacity:1.;"/>
</linearGradient>
</defs>
<polygon fill="url(#l_5)" stroke="black" points="149.79,-124.9 95.79,-124.9 95.79,-88.9 149.79,-88.9 149.79,-124.9"/>
<text text-anchor="middle" x="122.79" y="-103.2" font-family="Times-Roman" font-size="14.00">0</text>
</g>
<!-- &#45;2330651624138482270&#45;&gt;8732183852399584367 -->
<g id="edge9" class="edge">
<title>&#45;2330651624138482270&#45;&gt;8732183852399584367</title>
<path fill="none" stroke="black" d="M59.91,-107.58C68.03,-107.49 76.97,-107.39 85.46,-107.3"/>
<polygon fill="black" stroke="black" points="85.56,-110.8 95.52,-107.19 85.48,-103.8 85.56,-110.8"/>
</g>
<!-- 255938126880122311 -->
<g id="node12" class="node">
<title>255938126880122311</title>
<ellipse fill="none" stroke="black" cx="213.74" cy="-106.9" rx="27.9" ry="27.9"/>
<text text-anchor="middle" x="213.74" y="-103.2" font-family="Times-Roman" font-size="14.00">add</text>
</g>
<!-- 8732183852399584367&#45;&gt;255938126880122311 -->
<g id="edge11" class="edge">
<title>8732183852399584367&#45;&gt;255938126880122311</title>
<path fill="none" stroke="black" d="M150,-106.9C157.94,-106.9 166.83,-106.9 175.35,-106.9"/>
<polygon fill="black" stroke="black" points="175.49,-110.4 185.49,-106.9 175.49,-103.4 175.49,-110.4"/>
</g>
<!-- 3933146132756709516 -->
<g id="node13" class="node">
<title>3933146132756709516</title>
<defs>
<linearGradient id="l_6" gradientUnits="userSpaceOnUse" x1="285.6" y1="-119.63" x2="323.78" y2="-94.17" >
<stop offset="0" style="stop-color:#ffffff;stop-opacity:1.;"/>
<stop offset="1" style="stop-color:#dddddd;stop-opacity:1.;"/>
</linearGradient>
</defs>
<polygon fill="url(#l_6)" stroke="black" points="331.69,-124.9 277.69,-124.9 277.69,-88.9 331.69,-88.9 331.69,-124.9"/>
<text text-anchor="middle" x="304.69" y="-103.2" font-family="Times-Roman" font-size="14.00">4</text>
</g>
<!-- 255938126880122311&#45;&gt;3933146132756709516 -->
<g id="edge10" class="edge">
<title>255938126880122311&#45;&gt;3933146132756709516</title>
<path fill="none" stroke="black" d="M241.91,-106.9C249.98,-106.9 258.94,-106.9 267.48,-106.9"/>
<polygon fill="black" stroke="black" points="267.6,-110.4 277.6,-106.9 267.6,-103.4 267.6,-110.4"/>
</g>
<!-- 1635783523930252190 -->
<g id="node14" class="node">
<title>1635783523930252190</title>
<ellipse fill="none" stroke="black" cx="395.64" cy="-106.9" rx="27.9" ry="27.9"/>
<text text-anchor="middle" x="395.64" y="-103.2" font-family="Times-Roman" font-size="14.00">add</text>
</g>
<!-- 3933146132756709516&#45;&gt;1635783523930252190 -->
<g id="edge13" class="edge">
<title>3933146132756709516&#45;&gt;1635783523930252190</title>
<path fill="none" stroke="black" d="M331.9,-106.9C339.84,-106.9 348.72,-106.9 357.25,-106.9"/>
<polygon fill="black" stroke="black" points="357.38,-110.4 367.38,-106.9 357.38,-103.4 357.38,-110.4"/>
</g>
<!-- 1635783523930252190&#45;&gt;&#45;3145956653185575406 -->
<g id="edge12" class="edge">
<title>1635783523930252190&#45;&gt;&#45;3145956653185575406</title>
<path fill="none" stroke="black" d="M423.81,-105.37C431.87,-104.92 440.83,-104.41 449.37,-103.93"/>
<polygon fill="black" stroke="black" points="449.71,-107.42 459.49,-103.36 449.31,-100.43 449.71,-107.42"/>
</g>
</g>
</svg>
