<?xml version="1.0" encoding="UTF-8" standalone="no"?>
<!DOCTYPE svg PUBLIC "-//W3C//DTD SVG 1.1//EN"
 "http://www.w3.org/Graphics/SVG/1.1/DTD/svg11.dtd">
<!-- Generated by graphviz version 2.42.4 (0)
 -->
<!-- Pages: 1 -->
<svg width="364pt" height="290pt"
 viewBox="0.00 0.00 364.39 290.19" xmlns="http://www.w3.org/2000/svg" xmlns:xlink="http://www.w3.org/1999/xlink">
<g id="graph0" class="graph" transform="scale(1 1) rotate(0) translate(4 286.19)">
<polygon fill="white" stroke="transparent" points="-4,4 -4,-286.19 360.39,-286.19 360.39,4 -4,4"/>
<!-- &#45;8183022808884796444 -->
<g id="node1" class="node">
<title>&#45;8183022808884796444</title>
<ellipse fill="none" stroke="black" cx="224.79" cy="-140.6" rx="41.69" ry="41.69"/>
<text text-anchor="middle" x="224.79" y="-136.9" font-family="Times,serif" font-size="14.00">gather</text>
</g>
<!-- &#45;1446514905871379943 -->
<g id="node2" class="node">
<title>&#45;1446514905871379943</title>
<polygon fill="none" stroke="black" points="356.39,-158.6 302.39,-158.6 302.39,-122.6 356.39,-122.6 356.39,-158.6"/>
</g>
<!-- &#45;8183022808884796444&#45;&gt;&#45;1446514905871379943 -->
<g id="edge1" class="edge">
<title>&#45;8183022808884796444&#45;&gt;&#45;1446514905871379943</title>
<path fill="none" stroke="black" d="M266.63,-140.6C275.04,-140.6 283.84,-140.6 292.08,-140.6"/>
<polygon fill="black" stroke="black" points="292.13,-144.1 302.13,-140.6 292.13,-137.1 292.13,-144.1"/>
</g>
<!-- &#45;1590064248421290019 -->
<g id="node3" class="node">
<title>&#45;1590064248421290019</title>
<polygon fill="none" stroke="black" points="147.19,-257.6 93.19,-257.6 93.19,-221.6 147.19,-221.6 147.19,-257.6"/>
</g>
<!-- &#45;1590064248421290019&#45;&gt;&#45;8183022808884796444 -->
<g id="edge2" class="edge">
<title>&#45;1590064248421290019&#45;&gt;&#45;8183022808884796444</title>
<path fill="none" stroke="black" d="M140.01,-221.44C153.04,-208.87 170.81,-191.72 186.63,-176.45"/>
<polygon fill="black" stroke="black" points="189.45,-178.6 194.22,-169.14 184.59,-173.56 189.45,-178.6"/>
</g>
<!-- &#45;7185480003707464237 -->
<g id="node4" class="node">
<title>&#45;7185480003707464237</title>
<polygon fill="none" stroke="black" points="147.19,-190.6 93.19,-190.6 93.19,-154.6 147.19,-154.6 147.19,-190.6"/>
</g>
<!-- &#45;7185480003707464237&#45;&gt;&#45;8183022808884796444 -->
<g id="edge3" class="edge">
<title>&#45;7185480003707464237&#45;&gt;&#45;8183022808884796444</title>
<path fill="none" stroke="black" d="M147.35,-164.44C155.9,-161.77 165.69,-158.72 175.34,-155.71"/>
<polygon fill="black" stroke="black" points="176.39,-159.05 184.89,-152.73 174.31,-152.37 176.39,-159.05"/>
</g>
<!-- 7595968237734599132 -->
<g id="node5" class="node">
<title>7595968237734599132</title>
<polygon fill="none" stroke="black" points="147.19,-131.6 93.19,-131.6 93.19,-95.6 147.19,-95.6 147.19,-131.6"/>
</g>
<!-- 7595968237734599132&#45;&gt;&#45;8183022808884796444 -->
<g id="edge4" class="edge">
<title>7595968237734599132&#45;&gt;&#45;8183022808884796444</title>
<path fill="none" stroke="black" d="M147.35,-120.48C155.55,-122.64 164.88,-125.09 174.14,-127.53"/>
<polygon fill="black" stroke="black" points="173.55,-130.99 184.11,-130.15 175.33,-124.22 173.55,-130.99"/>
</g>
<!-- &#45;6937564043110010459 -->
<g id="node6" class="node">
<title>&#45;6937564043110010459</title>
<polygon fill="none" stroke="black" points="147.19,-67.6 93.19,-67.6 93.19,-31.6 147.19,-31.6 147.19,-67.6"/>
</g>
<!-- &#45;6937564043110010459&#45;&gt;&#45;8183022808884796444 -->
<g id="edge5" class="edge">
<title>&#45;6937564043110010459&#45;&gt;&#45;8183022808884796444</title>
<path fill="none" stroke="black" d="M141.96,-68.01C154.42,-79.07 170.67,-93.48 185.4,-106.54"/>
<polygon fill="black" stroke="black" points="183.13,-109.21 192.94,-113.23 187.78,-103.97 183.13,-109.21"/>
</g>
<!-- &#45;4897124532593202902 -->
<g id="node7" class="node">
<title>&#45;4897124532593202902</title>
<ellipse fill="none" stroke="black" cx="28.6" cy="-178.6" rx="28.7" ry="28.7"/>
<text text-anchor="middle" x="28.6" y="-174.9" font-family="Times,serif" font-size="14.00">mul</text>
</g>
<!-- &#45;4897124532593202902&#45;&gt;&#45;7185480003707464237 -->
<g id="edge6" class="edge">
<title>&#45;4897124532593202902&#45;&gt;&#45;7185480003707464237</title>
<path fill="none" stroke="black" d="M57.46,-176.73C65.56,-176.19 74.54,-175.59 83.08,-175.02"/>
<polygon fill="black" stroke="black" points="83.44,-178.5 93.19,-174.34 82.98,-171.52 83.44,-178.5"/>
</g>
<!-- &#45;8047859356802704073 -->
<g id="node8" class="node">
<title>&#45;8047859356802704073</title>
<ellipse fill="none" stroke="black" cx="28.6" cy="-28.6" rx="28.7" ry="28.7"/>
<text text-anchor="middle" x="28.6" y="-24.9" font-family="Times,serif" font-size="14.00">mul</text>
</g>
<!-- &#45;8047859356802704073&#45;&gt;&#45;6937564043110010459 -->
<g id="edge7" class="edge">
<title>&#45;8047859356802704073&#45;&gt;&#45;6937564043110010459</title>
<path fill="none" stroke="black" d="M56.97,-35.01C65.18,-36.94 74.32,-39.08 83,-41.11"/>
<polygon fill="black" stroke="black" points="82.38,-44.56 92.91,-43.44 83.98,-37.75 82.38,-44.56"/>
</g>
<!-- 1118941016686610150 -->
<g id="node9" class="node">
<title>1118941016686610150</title>
<ellipse fill="none" stroke="black" cx="28.6" cy="-103.6" rx="28.7" ry="28.7"/>
<text text-anchor="middle" x="28.6" y="-99.9" font-family="Times,serif" font-size="14.00">mul</text>
</g>
<!-- 1118941016686610150&#45;&gt;7595968237734599132 -->
<g id="edge8" class="edge">
<title>1118941016686610150&#45;&gt;7595968237734599132</title>
<path fill="none" stroke="black" d="M57.46,-106.71C65.56,-107.61 74.54,-108.61 83.08,-109.57"/>
<polygon fill="black" stroke="black" points="82.86,-113.06 93.19,-110.69 83.64,-106.11 82.86,-113.06"/>
</g>
<!-- 4962201971368897487 -->
<g id="node10" class="node">
<title>4962201971368897487</title>
<ellipse fill="none" stroke="black" cx="28.6" cy="-253.6" rx="28.7" ry="28.7"/>
<text text-anchor="middle" x="28.6" y="-249.9" font-family="Times,serif" font-size="14.00">mul</text>
</g>
<!-- 4962201971368897487&#45;&gt;&#45;1590064248421290019 -->
<g id="edge9" class="edge">
<title>4962201971368897487&#45;&gt;&#45;1590064248421290019</title>
<path fill="none" stroke="black" d="M56.97,-249.32C65.18,-248.04 74.32,-246.61 83,-245.25"/>
<polygon fill="black" stroke="black" points="83.57,-248.71 92.91,-243.7 82.49,-241.79 83.57,-248.71"/>
</g>
</g>
</svg>
