<?xml version="1.0" encoding="UTF-8" standalone="no"?>
<!DOCTYPE svg PUBLIC "-//W3C//DTD SVG 1.1//EN"
 "http://www.w3.org/Graphics/SVG/1.1/DTD/svg11.dtd">
<!-- Generated by graphviz version 2.44.0 (0)
 -->
<!-- Pages: 1 -->
<svg width="885pt" height="68pt"
 viewBox="0.00 0.00 885.37 67.79" xmlns="http://www.w3.org/2000/svg" xmlns:xlink="http://www.w3.org/1999/xlink">
<g id="graph0" class="graph" transform="scale(1 1) rotate(0) translate(4 63.79)">
<polygon fill="white" stroke="transparent" points="-4,4 -4,-63.79 881.37,-63.79 881.37,4 -4,4"/>
<!-- &#45;261863194455991749 -->
<g id="node1" class="node">
<title>&#45;261863194455991749</title>
<ellipse fill="none" stroke="black" cx="29.9" cy="-29.9" rx="29.8" ry="29.8"/>
<text text-anchor="middle" x="29.9" y="-26.2" font-family="Times-Roman" font-size="14.00">zero</text>
</g>
<!-- &#45;3497078545375682945 -->
<g id="node2" class="node">
<title>&#45;3497078545375682945</title>
<defs>
<linearGradient id="l_0" gradientUnits="userSpaceOnUse" x1="103.7" y1="-42.63" x2="141.89" y2="-17.17" >
<stop offset="0" style="stop-color:#ffffff;stop-opacity:1.;"/>
<stop offset="1" style="stop-color:#dddddd;stop-opacity:1.;"/>
</linearGradient>
</defs>
<polygon fill="url(#l_0)" stroke="black" points="149.79,-47.9 95.79,-47.9 95.79,-11.9 149.79,-11.9 149.79,-47.9"/>
<text text-anchor="middle" x="122.79" y="-26.2" font-family="Times-Roman" font-size="14.00">0</text>
</g>
<!-- &#45;261863194455991749&#45;&gt;&#45;3497078545375682945 -->
<g id="edge1" class="edge">
<title>&#45;261863194455991749&#45;&gt;&#45;3497078545375682945</title>
<path fill="none" stroke="black" d="M59.91,-29.9C68.03,-29.9 76.97,-29.9 85.46,-29.9"/>
<polygon fill="black" stroke="black" points="85.52,-33.4 95.52,-29.9 85.52,-26.4 85.52,-33.4"/>
</g>
<!-- &#45;8463502321739303318 -->
<g id="node3" class="node">
<title>&#45;8463502321739303318</title>
<ellipse fill="none" stroke="black" cx="213.74" cy="-29.9" rx="27.9" ry="27.9"/>
<text text-anchor="middle" x="213.74" y="-26.2" font-family="Times-Roman" font-size="14.00">add</text>
</g>
<!-- &#45;3497078545375682945&#45;&gt;&#45;8463502321739303318 -->
<g id="edge3" class="edge">
<title>&#45;3497078545375682945&#45;&gt;&#45;8463502321739303318</title>
<path fill="none" stroke="black" d="M150,-29.9C157.94,-29.9 166.83,-29.9 175.35,-29.9"/>
<polygon fill="black" stroke="black" points="175.49,-33.4 185.49,-29.9 175.49,-26.4 175.49,-33.4"/>
</g>
<!-- 3796394072103197185 -->
<g id="node4" class="node">
<title>3796394072103197185</title>
<defs>
<linearGradient id="l_1" gradientUnits="userSpaceOnUse" x1="285.6" y1="-42.63" x2="323.78" y2="-17.17" >
<stop offset="0" style="stop-color:#ffffff;stop-opacity:1.;"/>
<stop offset="1" style="stop-color:#dddddd;stop-opacity:1.;"/>
</linearGradient>
</defs>
<polygon fill="url(#l_1)" stroke="black" points="331.69,-47.9 277.69,-47.9 277.69,-11.9 331.69,-11.9 331.69,-47.9"/>
<text text-anchor="middle" x="304.69" y="-26.2" font-family="Times-Roman" font-size="14.00">3</text>
</g>
<!-- &#45;8463502321739303318&#45;&gt;3796394072103197185 -->
<g id="edge2" class="edge">
<title>&#45;8463502321739303318&#45;&gt;3796394072103197185</title>
<path fill="none" stroke="black" d="M241.91,-29.9C249.98,-29.9 258.94,-29.9 267.48,-29.9"/>
<polygon fill="black" stroke="black" points="267.6,-33.4 277.6,-29.9 267.6,-26.4 267.6,-33.4"/>
</g>
<!-- 6120274708021679996 -->
<g id="node5" class="node">
<title>6120274708021679996</title>
<ellipse fill="none" stroke="black" cx="395.64" cy="-29.9" rx="27.9" ry="27.9"/>
<text text-anchor="middle" x="395.64" y="-26.2" font-family="Times-Roman" font-size="14.00">add</text>
</g>
<!-- 3796394072103197185&#45;&gt;6120274708021679996 -->
<g id="edge5" class="edge">
<title>3796394072103197185&#45;&gt;6120274708021679996</title>
<path fill="none" stroke="black" d="M331.9,-29.9C339.84,-29.9 348.72,-29.9 357.25,-29.9"/>
<polygon fill="black" stroke="black" points="357.38,-33.4 367.38,-29.9 357.38,-26.4 357.38,-33.4"/>
</g>
<!-- &#45;4027344690268657139 -->
<g id="node6" class="node">
<title>&#45;4027344690268657139</title>
<defs>
<linearGradient id="l_2" gradientUnits="userSpaceOnUse" x1="467.49" y1="-42.63" x2="505.68" y2="-17.17" >
<stop offset="0" style="stop-color:#ffffff;stop-opacity:1.;"/>
<stop offset="1" style="stop-color:#dddddd;stop-opacity:1.;"/>
</linearGradient>
</defs>
<polygon fill="url(#l_2)" stroke="black" points="513.58,-47.9 459.58,-47.9 459.58,-11.9 513.58,-11.9 513.58,-47.9"/>
<text text-anchor="middle" x="486.58" y="-26.2" font-family="Times-Roman" font-size="14.00">7</text>
</g>
<!-- 6120274708021679996&#45;&gt;&#45;4027344690268657139 -->
<g id="edge4" class="edge">
<title>6120274708021679996&#45;&gt;&#45;4027344690268657139</title>
<path fill="none" stroke="black" d="M423.81,-29.9C431.87,-29.9 440.83,-29.9 449.37,-29.9"/>
<polygon fill="black" stroke="black" points="449.49,-33.4 459.49,-29.9 449.49,-26.4 449.49,-33.4"/>
</g>
<!-- &#45;1223217639999162688 -->
<g id="node7" class="node">
<title>&#45;1223217639999162688</title>
<ellipse fill="none" stroke="black" cx="577.53" cy="-29.9" rx="27.9" ry="27.9"/>
<text text-anchor="middle" x="577.53" y="-26.2" font-family="Times-Roman" font-size="14.00">add</text>
</g>
<!-- &#45;4027344690268657139&#45;&gt;&#45;1223217639999162688 -->
<g id="edge7" class="edge">
<title>&#45;4027344690268657139&#45;&gt;&#45;1223217639999162688</title>
<path fill="none" stroke="black" d="M513.79,-29.9C521.73,-29.9 530.62,-29.9 539.14,-29.9"/>
<polygon fill="black" stroke="black" points="539.28,-33.4 549.28,-29.9 539.28,-26.4 539.28,-33.4"/>
</g>
<!-- 3134963637396524006 -->
<g id="node8" class="node">
<title>3134963637396524006</title>
<defs>
<linearGradient id="l_3" gradientUnits="userSpaceOnUse" x1="649.39" y1="-42.63" x2="687.57" y2="-17.17" >
<stop offset="0" style="stop-color:#ffffff;stop-opacity:1.;"/>
<stop offset="1" style="stop-color:#dddddd;stop-opacity:1.;"/>
</linearGradient>
</defs>
<polygon fill="url(#l_3)" stroke="black" points="695.48,-47.9 641.48,-47.9 641.48,-11.9 695.48,-11.9 695.48,-47.9"/>
<text text-anchor="middle" x="668.48" y="-26.2" font-family="Times-Roman" font-size="14.00">12</text>
</g>
<!-- &#45;1223217639999162688&#45;&gt;3134963637396524006 -->
<g id="edge6" class="edge">
<title>&#45;1223217639999162688&#45;&gt;3134963637396524006</title>
<path fill="none" stroke="black" d="M605.7,-29.9C613.77,-29.9 622.73,-29.9 631.27,-29.9"/>
<polygon fill="black" stroke="black" points="631.39,-33.4 641.39,-29.9 631.39,-26.4 631.39,-33.4"/>
</g>
<!-- &#45;5487862446146433879 -->
<g id="node9" class="node">
<title>&#45;5487862446146433879</title>
<ellipse fill="none" stroke="black" cx="759.43" cy="-29.9" rx="27.9" ry="27.9"/>
<text text-anchor="middle" x="759.43" y="-26.2" font-family="Times-Roman" font-size="14.00">add</text>
</g>
<!-- 3134963637396524006&#45;&gt;&#45;5487862446146433879 -->
<g id="edge9" class="edge">
<title>3134963637396524006&#45;&gt;&#45;5487862446146433879</title>
<path fill="none" stroke="black" d="M695.69,-29.9C703.63,-29.9 712.51,-29.9 721.04,-29.9"/>
<polygon fill="black" stroke="black" points="721.17,-33.4 731.17,-29.9 721.17,-26.4 721.17,-33.4"/>
</g>
<!-- 8490534549640506791 -->
<g id="node10" class="node">
<title>8490534549640506791</title>
<defs>
<linearGradient id="l_4" gradientUnits="userSpaceOnUse" x1="831.28" y1="-42.63" x2="869.47" y2="-17.17" >
<stop offset="0" style="stop-color:#ffffff;stop-opacity:1.;"/>
<stop offset="1" style="stop-color:#dddddd;stop-opacity:1.;"/>
</linearGradient>
</defs>
<polygon fill="url(#l_4)" stroke="black" points="877.37,-47.9 823.37,-47.9 823.37,-11.9 877.37,-11.9 877.37,-47.9"/>
<text text-anchor="middle" x="850.37" y="-26.2" font-family="Times-Roman" font-size="14.00">18</text>
</g>
<!-- &#45;5487862446146433879&#45;&gt;8490534549640506791 -->
<g id="edge8" class="edge">
<title>&#45;5487862446146433879&#45;&gt;8490534549640506791</title>
<path fill="none" stroke="black" d="M787.6,-29.9C795.66,-29.9 804.62,-29.9 813.16,-29.9"/>
<polygon fill="black" stroke="black" points="813.28,-33.4 823.28,-29.9 813.28,-26.4 813.28,-33.4"/>
</g>
</g>
</svg>
