<?xml version="1.0" encoding="UTF-8" standalone="no"?>
<!DOCTYPE svg PUBLIC "-//W3C//DTD SVG 1.1//EN"
 "http://www.w3.org/Graphics/SVG/1.1/DTD/svg11.dtd">
<!-- Generated by graphviz version 2.42.4 (0)
 -->
<!-- Pages: 1 -->
<svg width="522pt" height="65pt"
 viewBox="0.00 0.00 521.58 65.19" xmlns="http://www.w3.org/2000/svg" xmlns:xlink="http://www.w3.org/1999/xlink">
<g id="graph0" class="graph" transform="scale(1 1) rotate(0) translate(4 61.19)">
<polygon fill="white" stroke="transparent" points="-4,4 -4,-61.19 517.58,-61.19 517.58,4 -4,4"/>
<!-- &#45;5614443968562744485 -->
<g id="node1" class="node">
<title>&#45;5614443968562744485</title>
<ellipse fill="none" stroke="black" cx="28.6" cy="-28.6" rx="28.7" ry="28.7"/>
<text text-anchor="middle" x="28.6" y="-24.9" font-family="Times,serif" font-size="14.00">mul</text>
</g>
<!-- &#45;3942745648738615324 -->
<g id="node2" class="node">
<title>&#45;3942745648738615324</title>
<polygon fill="none" stroke="black" points="147.19,-46.6 93.19,-46.6 93.19,-10.6 147.19,-10.6 147.19,-46.6"/>
</g>
<!-- &#45;5614443968562744485&#45;&gt;&#45;3942745648738615324 -->
<g id="edge1" class="edge">
<title>&#45;5614443968562744485&#45;&gt;&#45;3942745648738615324</title>
<path fill="none" stroke="black" d="M57.46,-28.6C65.56,-28.6 74.54,-28.6 83.08,-28.6"/>
<polygon fill="black" stroke="black" points="83.19,-32.1 93.19,-28.6 83.19,-25.1 83.19,-32.1"/>
</g>
<!-- &#45;987265146870600682 -->
<g id="node3" class="node">
<title>&#45;987265146870600682</title>
<ellipse fill="none" stroke="black" cx="211.79" cy="-28.6" rx="28.7" ry="28.7"/>
<text text-anchor="middle" x="211.79" y="-24.9" font-family="Times,serif" font-size="14.00">mul</text>
</g>
<!-- &#45;3942745648738615324&#45;&gt;&#45;987265146870600682 -->
<g id="edge3" class="edge">
<title>&#45;3942745648738615324&#45;&gt;&#45;987265146870600682</title>
<path fill="none" stroke="black" d="M147.59,-28.6C155.52,-28.6 164.38,-28.6 172.89,-28.6"/>
<polygon fill="black" stroke="black" points="173.03,-32.1 183.03,-28.6 173.03,-25.1 173.03,-32.1"/>
</g>
<!-- &#45;6864516907740110754 -->
<g id="node4" class="node">
<title>&#45;6864516907740110754</title>
<polygon fill="none" stroke="black" points="330.39,-46.6 276.39,-46.6 276.39,-10.6 330.39,-10.6 330.39,-46.6"/>
</g>
<!-- &#45;987265146870600682&#45;&gt;&#45;6864516907740110754 -->
<g id="edge2" class="edge">
<title>&#45;987265146870600682&#45;&gt;&#45;6864516907740110754</title>
<path fill="none" stroke="black" d="M240.65,-28.6C248.76,-28.6 257.73,-28.6 266.27,-28.6"/>
<polygon fill="black" stroke="black" points="266.38,-32.1 276.38,-28.6 266.38,-25.1 266.38,-32.1"/>
</g>
<!-- 8717085918558750099 -->
<g id="node5" class="node">
<title>8717085918558750099</title>
<ellipse fill="none" stroke="black" cx="394.99" cy="-28.6" rx="28.7" ry="28.7"/>
<text text-anchor="middle" x="394.99" y="-24.9" font-family="Times,serif" font-size="14.00">mul</text>
</g>
<!-- &#45;6864516907740110754&#45;&gt;8717085918558750099 -->
<g id="edge5" class="edge">
<title>&#45;6864516907740110754&#45;&gt;8717085918558750099</title>
<path fill="none" stroke="black" d="M330.79,-28.6C338.71,-28.6 347.57,-28.6 356.09,-28.6"/>
<polygon fill="black" stroke="black" points="356.22,-32.1 366.22,-28.6 356.22,-25.1 356.22,-32.1"/>
</g>
<!-- 3558576052097246482 -->
<g id="node6" class="node">
<title>3558576052097246482</title>
<polygon fill="none" stroke="black" points="513.58,-46.6 459.58,-46.6 459.58,-10.6 513.58,-10.6 513.58,-46.6"/>
</g>
<!-- 8717085918558750099&#45;&gt;3558576052097246482 -->
<g id="edge4" class="edge">
<title>8717085918558750099&#45;&gt;3558576052097246482</title>
<path fill="none" stroke="black" d="M423.85,-28.6C431.95,-28.6 440.93,-28.6 449.47,-28.6"/>
<polygon fill="black" stroke="black" points="449.58,-32.1 459.58,-28.6 449.58,-25.1 449.58,-32.1"/>
</g>
</g>
</svg>
