<?xml version="1.0" encoding="UTF-8" standalone="no"?>
<!DOCTYPE svg PUBLIC "-//W3C//DTD SVG 1.1//EN"
 "http://www.w3.org/Graphics/SVG/1.1/DTD/svg11.dtd">
<!-- Generated by graphviz version 2.40.1 (0)
 -->
<!-- Title: worker/queue Pages: 1 -->
<svg width="478pt" height="188pt"
 viewBox="0.00 0.00 477.99 188.00" xmlns="http://www.w3.org/2000/svg" xmlns:xlink="http://www.w3.org/1999/xlink">
<g id="graph0" class="graph" transform="scale(1 1) rotate(0) translate(4 184)">
<title>worker/queue</title>
<polygon fill="#ffffff" stroke="transparent" points="-4,4 -4,-184 473.9908,-184 473.9908,4 -4,4"/>
<!-- controller -->
<g id="node1" class="node">
<title>controller</title>
<ellipse fill="none" stroke="#000000" cx="234.9954" cy="-162" rx="55.7903" ry="18"/>
<text text-anchor="middle" x="234.9954" y="-158.3" font-family="Times,serif" font-size="14.00" fill="#000000">controller</text>
</g>
<!-- job queue -->
<g id="node2" class="node">
<title>job queue</title>
<polygon fill="none" stroke="#000000" points="277.9954,-108 191.9954,-108 191.9954,-72 277.9954,-72 277.9954,-108"/>
<text text-anchor="middle" x="234.9954" y="-86.3" font-family="Times,serif" font-size="14.00" fill="#000000">job queue</text>
</g>
<!-- controller&#45;&gt;job queue -->
<g id="edge1" class="edge">
<title>controller&#45;&gt;job queue</title>
<path fill="none" stroke="#000000" d="M234.9954,-143.8314C234.9954,-136.131 234.9954,-126.9743 234.9954,-118.4166"/>
<polygon fill="#000000" stroke="#000000" points="238.4955,-118.4132 234.9954,-108.4133 231.4955,-118.4133 238.4955,-118.4132"/>
</g>
<!-- worker 1 -->
<g id="node3" class="node">
<title>worker 1</title>
<ellipse fill="none" stroke="#000000" cx="51.9954" cy="-18" rx="51.9908" ry="18"/>
<text text-anchor="middle" x="51.9954" y="-14.3" font-family="Times,serif" font-size="14.00" fill="#000000">worker 1</text>
</g>
<!-- job queue&#45;&gt;worker 1 -->
<g id="edge2" class="edge">
<title>job queue&#45;&gt;worker 1</title>
<path fill="none" stroke="#000000" d="M191.6269,-72.937C162.7591,-61.5792 124.9558,-46.7058 95.9651,-35.2996"/>
<polygon fill="#000000" stroke="#000000" points="97.084,-31.9787 86.4969,-31.5744 94.5211,-38.4927 97.084,-31.9787"/>
</g>
<!-- worker 2 -->
<g id="node4" class="node">
<title>worker 2</title>
<ellipse fill="none" stroke="#000000" cx="173.9954" cy="-18" rx="51.9908" ry="18"/>
<text text-anchor="middle" x="173.9954" y="-14.3" font-family="Times,serif" font-size="14.00" fill="#000000">worker 2</text>
</g>
<!-- job queue&#45;&gt;worker 2 -->
<g id="edge3" class="edge">
<title>job queue&#45;&gt;worker 2</title>
<path fill="none" stroke="#000000" d="M219.6025,-71.8314C212.2866,-63.1962 203.4193,-52.7299 195.4559,-43.3304"/>
<polygon fill="#000000" stroke="#000000" points="197.8867,-40.7851 188.7521,-35.4177 192.5458,-45.31 197.8867,-40.7851"/>
</g>
<!-- worker 3 -->
<g id="node5" class="node">
<title>worker 3</title>
<ellipse fill="none" stroke="#000000" cx="295.9954" cy="-18" rx="51.9908" ry="18"/>
<text text-anchor="middle" x="295.9954" y="-14.3" font-family="Times,serif" font-size="14.00" fill="#000000">worker 3</text>
</g>
<!-- job queue&#45;&gt;worker 3 -->
<g id="edge4" class="edge">
<title>job queue&#45;&gt;worker 3</title>
<path fill="none" stroke="#000000" d="M250.3883,-71.8314C257.7041,-63.1962 266.5714,-52.7299 274.5349,-43.3304"/>
<polygon fill="#000000" stroke="#000000" points="277.445,-45.31 281.2387,-35.4177 272.1041,-40.7851 277.445,-45.31"/>
</g>
<!-- worker 4 -->
<g id="node6" class="node">
<title>worker 4</title>
<ellipse fill="none" stroke="#000000" cx="417.9954" cy="-18" rx="51.9908" ry="18"/>
<text text-anchor="middle" x="417.9954" y="-14.3" font-family="Times,serif" font-size="14.00" fill="#000000">worker 4</text>
</g>
<!-- job queue&#45;&gt;worker 4 -->
<g id="edge5" class="edge">
<title>job queue&#45;&gt;worker 4</title>
<path fill="none" stroke="#000000" d="M278.3638,-72.937C307.2316,-61.5792 345.0349,-46.7058 374.0257,-35.2996"/>
<polygon fill="#000000" stroke="#000000" points="375.4697,-38.4927 383.4939,-31.5744 372.9067,-31.9787 375.4697,-38.4927"/>
</g>
</g>
</svg>
